<?xml version="1.0" standalone="no"?>
<!DOCTYPE svg PUBLIC "-//W3C//DTD SVG 1.1//EN" "http://www.w3.org/Graphics/SVG/1.1/DTD/svg11.dtd" >
<svg>
<metadata>
Created by FontForge 20090914 at Thu Sep 28 10:00:56 2017
 By www-data
Copyright (c) 1987, 1990, 1991 Adobe Systems Incorporated. 
</metadata>
<defs>
<font id="LetterGothicNormal" horiz-adv-x="1249" >
  <font-face 
    font-family="Letter Gothic"
    font-weight="400"
    font-stretch="normal"
    units-per-em="2048"
    panose-1="2 2 5 0 0 0 0 0 0 0"
    ascent="1638"
    descent="-410"
    x-height="1085"
    cap-height="1475"
    bbox="-0.00195312 -590 1425 1901"
    underline-thickness="50"
    underline-position="-75"
    unicode-range="U+0020-U+2122"
  />
<missing-glyph horiz-adv-x="1520" 
d="M95 0v1520h1330v-1520h-1330zM1330 95v1330h-1140v-1330h1140z" />
    <glyph glyph-name=".notdef" horiz-adv-x="1520" 
d="M95 0v1520h1330v-1520h-1330zM1330 95v1330h-1140v-1330h1140z" />
    <glyph glyph-name="space" unicode=" " 
 />
    <glyph glyph-name="exclam" unicode="!" 
d="M688 1475l-29 -1008h-81l-33 1008h143zM471 111c0 36 13.167 68.168 39.5 96.501s59.5 42.5 99.5 42.5c25.333 0 48.333 -6.66699 69 -20c21.333 -12 38.333 -29 51 -51c13.333 -20.667 20 -43.334 20 -68.001c0 -38.667 -14.333 -71.667 -43 -99s-61 -41 -97 -41
c-38.667 0 -71.667 13.333 -99 40c-13.333 14 -23.333 29 -30 45s-10 34.333 -10 55z" />
    <glyph glyph-name="quotedbl" unicode="&#x22;" 
d="M356 1475h193v-226l-53 -278h-82l-58 278v226zM684 1475h193v-226l-58 -278h-82l-53 278v226z" />
    <glyph glyph-name="numbersign" unicode="#" 
d="M549 1651h90l-332 -1848h-94l127 689h-274l16 90h274l58 319h-275l17 90h274zM676 -197h-94l340 1848h90l-119 -660h274l-16 -90h-274l-58 -319h275l-17 -90h-274z" />
    <glyph glyph-name="dollar" unicode="$" 
d="M950 1241l-57.001 -73.999c-80 74 -159.333 115 -238 123v-475c96.667 -32.667 172.167 -77.5 226.5 -134.5s81.5 -133.5 81.5 -229.5c0 -92.667 -27.5 -166.834 -82.5 -222.501s-130.167 -88.167 -225.5 -97.5v-197h-94v197c-27.333 0 -54.666 3.5 -81.999 10.5
s-56.333 17.5 -87 31.5c-56 26 -107.333 61.333 -154 106l61 69c24 -20.667 46.833 -39 68.5 -55s42.5 -29.667 62.5 -41c41.333 -22 85 -35 131 -39v532c-82.667 28 -151.167 70 -205.5 126s-81.5 123.333 -81.5 202s27.833 145.167 83.5 199.5s123.5 87.5 203.5 99.5v148
h94v-148c108.667 -12 207 -55.667 295 -131zM560.999 840.001l-0.000976562 446c-52.667 -8 -97.167 -32.167 -133.5 -72.5s-54.5 -88.5 -54.5 -144.5c0 -34.667 9 -67.667 27 -99c9.33301 -15.333 19.333 -29.333 30 -42s23.334 -25 38.001 -37
c28 -20.667 59 -37.667 93 -51zM654.998 725.001l-0.000976562 -512c30 0 57.167 6 81.5 18s47.833 30.333 70.5 55c40.667 44.667 61 98 61 160c0 67.333 -19.167 124.333 -57.5 171s-90.166 82.667 -155.499 108z" />
    <glyph glyph-name="percent" unicode="%" 
d="M950 1503h86l-753 -1503h-86zM176 1135c0 94 26 178.831 78 254.498s124.333 113.5 217 113.5c66 0 115.333 -18.5 148 -55.5s49 -89.5 49 -157.5c0 -109.333 -29.333 -198.666 -88 -267.999s-127.667 -104 -207 -104c-46.667 0 -84.334 8.66699 -113.001 26
c-27.333 18 -48.666 43 -63.999 75c-13.333 32.667 -20 71.334 -20 116.001zM266 1118c0 -92.667 37.001 -139 111.001 -139c44 0 81.167 17.833 111.5 53.5s52.833 79.667 67.5 132s22 99.833 22 142.5c0 38.667 -8.66699 70.667 -26 96c-16 26 -43 39 -81 39
c-44.667 0 -82.834 -17.833 -114.501 -53.5s-54.667 -78.167 -69 -127.5s-21.5 -97 -21.5 -143zM561.001 196.998c0 94 26 178.834 78 254.501s124.333 113.5 217 113.5c66 0 115.333 -18.5 148 -55.5s49 -89.5 49 -157.5c0 -110 -29.333 -200.333 -88 -271
s-127.667 -106 -207 -106c-66 0 -115.333 19.667 -148 59s-49 93.666 -49 162.999zM651.001 179.999c0 -92.667 37.001 -139 111.001 -139c44 0 81.167 17.833 111.5 53.5s52.833 79.667 67.5 132s22 99.833 22 142.5c0 38.667 -8.66699 70.667 -26 96c-16 26 -43 39 -81 39
c-44.667 0 -82.834 -17.833 -114.501 -53.5s-54.667 -78.167 -69 -127.5s-21.5 -97 -21.5 -143z" />
    <glyph glyph-name="ampersand" unicode="&#x26;" 
d="M807 229l-319.999 488c-34 -42.667 -64.167 -82.667 -90.5 -120s-48.166 -71 -65.499 -101c-34.667 -62 -52 -129 -52 -201c0 -46.667 8.66699 -88 26 -124s43.333 -65 78 -87c17.333 -10 36.166 -17.667 56.499 -23s43.166 -8 68.499 -8c64.667 0 122.667 15 174 45
s93 73.667 125 131zM557.001 803l291.001 -471.001c9.33301 34 16.166 63.167 20.499 87.5s6.5 50.833 6.5 79.5c0 30.667 0.333008 55 1 73c3.33301 90 5 142.333 5 157h102c0 -51.333 -1.5 -98 -4.5 -140s-7.83301 -85.333 -14.5 -130
c-10 -77.333 -28.333 -148.333 -55 -213l176 -209l-69 -70l-160 193c-42.667 -61.333 -93.167 -108.166 -151.5 -140.499s-122.5 -48.5 -192.5 -48.5c-97.333 0 -177.666 29.167 -240.999 87.5s-95 135.833 -95 232.5c0 69.333 12 132.166 36 188.499s49.333 102.5 76 138.5
l57 75l93 118l-28.5 48c-16.333 27.333 -30.833 53 -43.5 77c-20.667 39.333 -37.667 79.5 -51 120.5s-20 83.5 -20 127.5c0 54 9 105.333 27 154s46.667 88.334 86 119.001s87.666 46 144.999 46c43.333 0 82.333 -12.167 117 -36.5s62 -56.833 82 -97.5
s30 -84.667 30 -132c0 -55.333 -10.167 -106.833 -30.5 -154.5s-43.5 -89 -69.5 -124s-67.667 -86.833 -125 -155.5zM541.002 1421c-48.667 0 -84.832 -22.334 -108.499 -67.001s-35.5 -94.667 -35.5 -150c0 -59.333 8.16699 -112.666 24.5 -159.999
s43.833 -101.666 82.5 -162.999l102 154c22 34 39.333 63 52 87c9.33301 19.333 15.666 36.666 18.999 51.999c2 14 3 37.667 3 71c0 44 -12.333 84.333 -37 121s-58.667 55 -102 55z" />
    <glyph glyph-name="quotesingle" unicode="'" 
d="M520 1475h193v-226l-58 -278h-82l-53 278v226z" />
    <glyph glyph-name="parenleft" unicode="(" 
d="M811 -82l-45 -60.9971c-126 87.333 -221 206.666 -285 357.999s-96 309 -96 473c0 82.667 7.5 163.167 22.5 241.5s38.333 154.166 70 227.499s71.5 141 119.5 203s104.333 115.333 169 160l45 -62c-77.333 -57.333 -140.333 -126.833 -189 -208.5s-84 -170 -106 -265
s-33 -193.833 -33 -296.5c0 -154.667 26.167 -299.834 78.5 -435.501s135.5 -247.167 249.5 -334.5z" />
    <glyph glyph-name="parenright" unicode=")" 
d="M422 1458l45 62.001c63.333 -43.333 118.833 -96.5 166.5 -159.5s86.834 -130.167 117.501 -201.5s54 -147.666 70 -228.999c7.33301 -38 13 -77.5 17 -118.5s6 -82.167 6 -123.5c0 -106 -13.5 -211.333 -40.5 -316s-68.667 -201.667 -125 -291
s-126.833 -164 -211.5 -224l-45 61c78 59.333 141.167 130.166 189.5 212.499s83.5 170.166 105.5 263.499s33 191.333 33 294c0 104 -10.667 202.667 -32 296s-56.333 181 -105 263s-112.334 152.333 -191.001 211z" />
    <glyph glyph-name="asterisk" unicode="*" 
d="M569 1475h90v-402l385 115l29 -86l-401 -115l254 -323l-66 -54l-246 312l-237 -312l-70 54l250 323l-397 115l24 86l385 -115v402z" />
    <glyph glyph-name="plus" unicode="+" 
d="M1159 782v-90h-500v-499h-90v499h-499v90h499v500h90v-500h500z" />
    <glyph glyph-name="comma" unicode="," 
d="M504 -229v85.998c81.333 26.667 134.666 67.667 159.999 123c-20 -6 -33.667 -9 -41 -9c-24.667 0 -46 5.33301 -64 16s-32.333 25.834 -43 45.501s-16 42.834 -16 69.501c0 37.333 13.167 68.5 39.5 93.5s58.166 37.5 95.499 37.5c43.333 0 78 -16.167 104 -48.5
s39 -71.833 39 -118.5c0 -46 -13.167 -89.167 -39.5 -129.5s-60.166 -74.5 -101.499 -102.5s-85.666 -49 -132.999 -63z" />
    <glyph glyph-name="hyphen" unicode="-" 
d="M856 696h-483v82h483v-82z" />
    <glyph glyph-name="period" unicode="." 
d="M479 111c0 36.667 13.332 69 39.999 97s58.334 42 95.001 42c38.667 0 71.667 -13.833 99 -41.5s41 -60.167 41 -97.5c0 -24.667 -6 -47.667 -18 -69s-29.167 -38.5 -51.5 -51.5s-45.833 -19.5 -70.5 -19.5c-36 0 -67.5 14 -94.5 42s-40.5 60.667 -40.5 98z" />
    <glyph glyph-name="slash" unicode="/" 
d="M360 -57h-94l606 1589h95z" />
    <glyph glyph-name="zero" unicode="0" 
d="M1020 737c0 -216.667 -16.333 -373.669 -49 -471.002c-9.33301 -29.333 -20.333 -56.833 -33 -82.5s-27.334 -49.5 -44.001 -71.5c-32 -43.333 -71.667 -77.666 -119 -102.999s-101 -38 -161 -38c-84.667 0 -156.667 25.5 -216 76.5s-103.333 118.5 -132 202.5
c-14.667 40 -27.334 89.333 -38.001 148c-6.66699 46.667 -11 80.334 -13 101.001s-3 39.667 -3 57l-3 181l3 176c0 24 1 45.5 3 64.5s6.5 53.5 13.5 103.5s16.833 93.667 29.5 131c20 59.333 45.833 110 77.5 152s71.334 75.667 119.001 101s100.834 38 159.501 38
c84.667 0 157 -25 217 -75s105.333 -116.333 136 -199c35.333 -107.333 53 -271.333 53 -492zM926 736.998c0 191.333 -13.668 332.001 -41.001 422.001c-18 73.333 -50 136 -96 188s-104.333 78 -175 78c-72 0 -130.333 -26.667 -175 -80s-79 -122 -103 -206
c-19.333 -93.333 -29 -227.333 -29 -402c0 -40 0.833008 -88 2.5 -144s2.5 -86.333 2.5 -91c0 -29.333 2.66699 -58.833 8 -88.5s13.333 -62.5 24 -98.5c22 -76.667 55.333 -139.5 100 -188.5s101.334 -73.5 170.001 -73.5c74.667 0 135 27.667 181 83
s78.667 123.333 98 204c22 87.333 33 219.666 33 396.999z" />
    <glyph glyph-name="one" unicode="1" 
d="M668 1520v-1438h274v-82h-651v82h282v1315l-294 -90v90z" />
    <glyph glyph-name="two" unicode="2" 
d="M324 82l688 -0.000976562v-82h-787c0 111.333 9 202.333 27 273s51.833 138.334 101.5 203.001s127.167 143.667 232.5 237l101 88c46 40 84.167 78 114.5 114s55.833 75.833 76.5 119.5s31 87.834 31 132.501c0 77.333 -22.667 139 -68 185s-107.333 69 -186 69
c-88 0 -157.833 -29 -209.5 -87s-81.5 -134 -89.5 -228h-94c0 36.667 5 72.167 15 106.5s23.667 67.833 41 100.5c32 58.667 77 105 135 139s125.333 51 202 51c70 0 131.333 -13.833 184 -41.5s93.334 -67.834 122.001 -120.501s43 -113.334 43 -182.001
c0 -64 -15.333 -124.5 -46 -181.5s-67.334 -106.5 -110.001 -148.5c-38.667 -38.667 -94.667 -91 -168 -157c-76.667 -68.667 -138.167 -128.167 -184.5 -178.5s-81.333 -95.666 -105 -135.999s-40.5 -83.5 -50.5 -129.5c-4 -20 -7.66699 -43 -11 -69s-5 -51.667 -5 -77z
" />
    <glyph glyph-name="three" unicode="3" 
d="M537 758l-0.00195312 82c58 0 112 13 162 39s90 63.167 120 111.5s45 101.833 45 160.5c0 24.667 -3 48.167 -9 70.5s-15.667 44.166 -29 65.499c-24.667 40 -58.834 72.333 -102.501 97s-90.834 37 -141.501 37c-65.333 0 -124.666 -18.333 -177.999 -55
s-96.666 -85 -129.999 -145l-81 45c41.333 74 96.166 132 164.499 174s145.833 63 232.5 63c52 0 100.5 -9.16699 145.5 -27.5s84.833 -44.833 119.5 -79.5c32.667 -32 58.834 -70.833 78.501 -116.5s29.5 -93.834 29.5 -144.501c0 -72 -22.167 -137.167 -66.5 -195.5
s-101.5 -102.5 -171.5 -132.5c94.667 -30.667 168.834 -80.667 222.501 -150s80.5 -151.666 80.5 -246.999c0 -63.333 -10.333 -121.333 -31 -174s-50.667 -98.667 -90 -138s-85.666 -70 -138.999 -92c-26 -10 -53.5 -17.667 -82.5 -23s-59.5 -8 -91.5 -8
c-93.333 0 -173 21.5 -239 64.5s-127 107.5 -183 193.5l86 50c72 -148 182.667 -222 332 -222c64.667 0 123.667 13 177 39s94.5 64.333 123.5 115s43.5 108.667 43.5 174c0 32.667 -2.33301 61.667 -7 87s-12.667 50.666 -24 75.999c-20 46.667 -47.667 84.834 -83 114.501
s-77.333 52.334 -126 68.001s-101 23.5 -157 23.5z" />
    <glyph glyph-name="four" unicode="4" 
d="M840 1503v-1024h209v-82h-209v-397h-95v397h-602v70l545 1036h152zM745 479v959h-4l-491 -959h495z" />
    <glyph glyph-name="five" unicode="5" 
d="M922 1475v-81.9971h-533l-49 -639c36 48.667 78.333 86.667 127 114s102 41 160 41c68.667 0 132.5 -17.667 191.5 -53s106 -87.833 141 -157.5s52.5 -152.167 52.5 -247.5c0 -84 -16.167 -162.333 -48.5 -235s-79.833 -131 -142.5 -175s-135.667 -66 -219 -66
c-73.333 0 -140.5 20 -201.5 60s-115.167 95.333 -162.5 166l69 53c22.667 -37.333 49 -70 79 -98s65.333 -51.333 106 -70c18 -7.33301 37.667 -13.333 59 -18s42.333 -7 63 -7c58 0 110.167 17.5 156.5 52.5s82.5 82 108.5 141s39 121.5 39 187.5
c0 70.667 -9.16699 131.167 -27.5 181.5s-42.333 90.166 -72 119.499s-61 50.666 -94 63.999s-65.5 20 -97.5 20c-57.333 0 -108.333 -15.333 -153 -46s-82.667 -71.334 -114 -122.001l-114 21l57 795h619z" />
    <glyph glyph-name="six" unicode="6" 
d="M930 471c0 102.667 -23.667 189.833 -71 261.5s-119.333 107.5 -216 107.5c-34 0 -69.167 -8.66699 -105.5 -26s-71.166 -43.333 -104.499 -78s-59.833 -78 -79.5 -130s-29.5 -109.333 -29.5 -172c0 -61.333 10.5 -120.5 31.5 -177.5s53 -103.833 96 -140.5
s95.833 -55 158.5 -55c107.333 0 187.666 40 240.999 120c26 40 45.667 84 59 132s20 100.667 20 158zM999 1430l-44.9971 -82.001c-73.333 48.667 -140 73 -200 73c-70 0 -133.167 -22.167 -189.5 -66.5s-103.666 -103.5 -141.999 -177.5s-67.5 -150.667 -87.5 -230
c-9.33301 -40.667 -16.333 -79 -21 -115s-7 -71.667 -7 -107l2 -14l2 -15c41.333 69.333 91.166 124.333 149.499 165s126.166 61 203.499 61c76.667 0 142 -21 196 -63s94.833 -98.167 122.5 -168.5s41.5 -143.5 41.5 -219.5c0 -88.667 -15.167 -170.5 -45.5 -245.5
s-77 -135.5 -140 -181.5s-139.167 -69 -228.5 -69c-71.333 0 -136 20 -194 60s-105.667 109.333 -143 208s-56 225.334 -56 380.001c0 189.333 25.167 350.833 75.5 484.5s117 233 200 298s171.5 97.5 265.5 97.5c23.333 0 44.166 -1.33301 62.499 -4s39.5 -8 63.5 -16
c43.333 -12 81.666 -29.667 114.999 -53z" />
    <glyph glyph-name="seven" unicode="7" 
d="M213 1475h774l-569 -1475h-107l553 1393h-651v82z" />
    <glyph glyph-name="eight" unicode="8" 
d="M262 389c0 -102.667 32.5 -183.001 97.5 -241.001s149.833 -87 254.5 -87c34.667 0 67 3 97 9s59.333 15.667 88 29c53.333 24.667 95.333 61.667 126 111s46 109 46 179s-15.167 130.333 -45.5 181s-72.333 89.834 -126 117.501s-115.5 41.5 -185.5 41.5
c-68.667 0 -129.167 -13.5 -181.5 -40.5s-93.833 -66 -124.5 -117s-46 -111.833 -46 -182.5zM918 1118c0 48 -7.16699 90.5 -21.5 127.5s-34.5 68.5 -60.5 94.5s-57.5 46 -94.5 60s-79.5 21 -127.5 21c-98 0 -173.667 -28.333 -227 -85s-80 -134.667 -80 -234
c0 -88 29 -158.5 87 -211.5s131.333 -79.5 220 -79.5c93.333 0 167.333 27.833 222 83.5s82 130.167 82 223.5zM422 769.999c-64 28 -114.832 74.8301 -152.499 140.497s-56.5 134.834 -56.5 207.501c0 75.333 17 142.5 51 201.5s81.333 104.333 142 136s130 47.5 208 47.5
c79.333 0 149 -15.333 209 -46s106.5 -75.5 139.5 -134.5s49.5 -127.167 49.5 -204.5c0 -76 -17.833 -146 -53.5 -210s-86.167 -110 -151.5 -138c86 -28.667 150.5 -75.667 193.5 -141s64.5 -145.333 64.5 -240c0 -127.333 -38.833 -228.166 -116.5 -302.499
s-189.167 -111.5 -334.5 -111.5c-95.333 0 -177.333 16.833 -246 50.5s-119.834 81.834 -153.501 144.501s-50.5 135.667 -50.5 219c0 194 86 321 258 381z" />
    <glyph glyph-name="nine" unicode="9" 
d="M229 49l45 82c66.667 -46.667 135 -70 205 -70c90 0 168.333 36.667 235 110s117.334 163.333 152.001 270s52 206.667 52 300v41c-41.333 -72 -90.833 -128.167 -148.5 -168.5s-124.5 -60.5 -200.5 -60.5c-77.333 0 -143.333 21.333 -198 64s-96 99 -124 169
s-42 142.667 -42 218c0 32.667 2 63.834 6 93.501s10.667 60.167 20 91.5c18.667 61.333 45.5 115.666 80.5 162.999s78.833 84.333 131.5 111s112.667 40 180 40c73.333 0 136.833 -19.5 190.5 -58.5s96.5 -94.5 128.5 -166.5c26 -57.333 44.833 -123.166 56.5 -197.499
s17.5 -150.5 17.5 -228.5c0 -64 -3.33301 -126 -10 -186c-3.33301 -32.667 -7.33301 -63.5 -12 -92.5s-11.334 -59.5 -20.001 -91.5c-15.333 -61.333 -35.666 -118.333 -60.999 -171c-28 -63.333 -63 -120.333 -105 -171s-91.333 -90.834 -148 -120.501
s-118.334 -44.5 -185.001 -44.5c-88 0 -170 24.667 -246 74zM299 1004c0 -99.333 24.167 -185.668 72.5 -259.001s119.833 -110 214.5 -110c44.667 0 87.334 12 128.001 36s75.667 55.667 105 95c32 42 54.333 85.5 67 130.5s19 94.167 19 147.5
c0 22.667 -1.33301 45.334 -4 68.001s-7 45 -13 67c-10 44 -26.833 84 -50.5 120s-53.834 65.333 -90.501 88s-79.667 34 -129 34c-72 0 -132.667 -20 -182 -60c-46 -38 -80.333 -88.5 -103 -151.5s-34 -131.5 -34 -205.5z" />
    <glyph glyph-name="colon" unicode=":" 
d="M475 111c0 36.667 13.5 69.001 40.5 97.001s59.833 42 98.5 42c25.333 0 48.333 -6.66699 69 -20c21.333 -12 38.333 -29 51 -51c13.333 -20.667 20 -43.334 20 -68.001c0 -38.667 -14.333 -71.667 -43 -99s-61 -41 -97 -41c-24 0 -47.333 6.33301 -70 19
c-10 6 -19.5 13.167 -28.5 21.5s-16.5 17.833 -22.5 28.5c-12 22 -18 45.667 -18 71zM475 827.001c0 24.667 6.00098 47.998 18.001 69.998s29.333 39.167 52 51.5s45.667 18.5 69 18.5c24 0 46.667 -6.16699 68 -18.5s38.666 -29.166 51.999 -50.499s20 -45 20 -71
c0 -35.333 -14.333 -66.666 -43 -93.999s-61 -41 -97 -41c-36.667 0 -69 13.5 -97 40.5s-42 58.5 -42 94.5z" />
    <glyph glyph-name="semicolon" unicode=";" 
d="M504 -229v85.998c81.333 26.667 134.666 67.667 159.999 123c-20 -6 -33.667 -9 -41 -9c-24.667 0 -46 5.33301 -64 16s-32.333 25.834 -43 45.501s-16 42.834 -16 69.501c0 37.333 13.167 68.5 39.5 93.5s58.166 37.5 95.499 37.5c43.333 0 78 -16.167 104 -48.5
s39 -71.833 39 -118.5c0 -46 -13.167 -89.167 -39.5 -129.5s-60.166 -74.5 -101.499 -102.5s-85.666 -49 -132.999 -63zM500 826.998c0 38.667 13 71.666 39 98.999s58 41 96 41c40.667 0 74 -13.5 100 -40.5s39 -60.167 39 -99.5c0 -36 -13.833 -67.5 -41.5 -94.5
s-60.167 -40.5 -97.5 -40.5c-36 0 -67.5 13.333 -94.5 40s-40.5 58.334 -40.5 95.001z" />
    <glyph glyph-name="less" unicode="&#x3c;" 
d="M201 737l778 738l49 -66l-696 -672l696 -671l-49 -66z" />
    <glyph glyph-name="equal" unicode="=" 
d="M1159 922v-91h-1089v91h1089zM1159 647v-90h-1089v90h1089z" />
    <glyph glyph-name="greater" unicode="&#x3e;" 
d="M254 1475l774 -738l-774 -737l-53 66l696 671l-696 672z" />
    <glyph glyph-name="question" unicode="?" 
d="M651 459h-93.9971v200c0 50 5.33301 87 16 111c6 15.333 17.833 32.333 35.5 51s36.5 36.334 56.5 53.001l64 52c43.333 35.333 75 69.666 95 102.999c9.33301 17.333 16.333 36.333 21 57s7 45 7 73c0 51.333 -9.83301 96.5 -29.5 135.5s-48.667 69.833 -87 92.5
s-82.833 34 -133.5 34c-72 0 -129.667 -20.667 -173 -62c-22 -20.667 -39 -45 -51 -73s-18 -59.333 -18 -94h-102c0 30.667 4.5 59.667 13.5 87s21.833 54 38.5 80c29.333 44.667 69.5 79.834 120.5 105.501s108.167 38.5 171.5 38.5c72.667 0 135 -14.167 187 -42.5
s91.833 -68.833 119.5 -121.5s41.5 -115.334 41.5 -188.001s-13.333 -130.334 -40 -173.001s-73.334 -88.667 -140.001 -138c-40.667 -34 -68.834 -60.167 -84.501 -78.5s-25.334 -39.166 -29.001 -62.499s-5.5 -61 -5.5 -113v-127zM483.003 111
c0 36.667 13.332 69 39.999 97s58.334 42 95.001 42c38.667 0 71.667 -13.833 99 -41.5s41 -60.167 41 -97.5c0 -24.667 -6 -47.667 -18 -69s-29.167 -38.5 -51.5 -51.5s-45.833 -19.5 -70.5 -19.5c-36 0 -67.5 14 -94.5 42s-40.5 60.667 -40.5 98z" />
    <glyph glyph-name="at" unicode="@" 
d="M1057 225l32.999 -90.0059c-78.667 -50.667 -163.5 -90.667 -254.5 -120s-179.833 -44 -266.5 -44c-64.667 0 -129.5 11.833 -194.5 35.5s-125.5 62.5 -181.5 116.5s-100.167 121.833 -132.5 203.5s-48.5 176.167 -48.5 283.5c0 112 15 222.333 45 331
s73.333 205.167 130 289.5s125.5 150.833 206.5 199.5s169.5 73 265.5 73c74.667 0 145.834 -14.167 213.501 -42.5s127.667 -69.333 180 -123s93.5 -120 123.5 -199s45 -163.5 45 -253.5c0 -24.667 -1.33301 -50.5 -4 -77.5s-7 -54.833 -13 -83.5
c-11.333 -58 -29.666 -112 -54.999 -162s-58.333 -91.333 -99 -124s-89 -49 -145 -49c-41.333 0 -78.166 10 -110.499 30s-55.5 49.667 -69.5 89c-59.333 -84.667 -130.333 -127 -213 -127c-50 0 -91.167 18.167 -123.5 54.5s-48.5 80.833 -48.5 133.5
c0 62 10.667 126.333 32 193s50.666 122.334 87.999 167.001s85.5 75 144.5 91s126.5 24 202.5 24h65l-53 -319c-8 -44 -12 -83.667 -12 -119c0 -53.333 9.66699 -89.166 29 -107.499s43.666 -27.5 72.999 -27.5c49.333 0 91 22.333 125 67
c31.333 44.667 54.5 98.667 69.5 162s22.5 119.333 22.5 168c0 94.667 -14.333 177.834 -43 249.501s-66.167 129.834 -112.5 174.501s-96.166 77.334 -149.499 98.001s-104.333 31 -153 31c-94 0 -176.5 -24.667 -247.5 -74s-130.167 -115 -177.5 -197
c-44.667 -80 -79.334 -168.333 -104.001 -265c-22 -94 -33 -184.333 -33 -271c0 -66.667 5.66699 -126.167 17 -178.5s29.333 -100.166 54 -143.499c47.333 -84 107.333 -144.833 180 -182.5s147.667 -56.5 225 -56.5c53.333 0 107.5 7.5 162.5 22.5s106.333 34.667 154 59
s100.5 54.5 158.5 90.5zM744.999 826.994l21.002 136.001c-26 0 -61.667 -6.66699 -107 -20c-38.667 -10 -68.834 -24 -90.501 -42s-43.167 -46.667 -64.5 -86s-38.333 -80.333 -51 -123s-19 -79.334 -19 -110.001c0 -16 1.66699 -30.333 5 -43s9.33301 -26 18 -40
c15.333 -24 36.333 -36 63 -36c43.333 0 85.666 27.333 126.999 82s74 148.667 98 282z" />
    <glyph glyph-name="A" unicode="A" 
d="M618 1536l492 -1536h-106l-136 451h-499l-136 -451h-106zM618 1274l-229 -742h459z" />
    <glyph glyph-name="B" unicode="B" 
d="M340 82l311.002 -0.00195312c41.333 0 84.5 11 129.5 33s82.5 56 112.5 102s45 102 45 168c0 60.667 -13.333 117.334 -40 170.001s-66.334 94.834 -119.001 126.501s-114.334 47.5 -185.001 47.5h-254v-647zM668.002 -0.00195312h-422v1475h360
c108.667 0 196.667 -32.167 264 -96.5s101 -152.5 101 -264.5c0 -76 -20.833 -142.167 -62.5 -198.5s-100.167 -100.833 -175.5 -133.5c66 -19.333 121.167 -47 165.5 -83s78.333 -80.333 102 -133s35.5 -111.667 35.5 -177c0 -70.667 -14.333 -135.5 -43 -194.5
s-71.5 -106.167 -128.5 -141.5s-122.5 -53 -196.5 -53zM340.002 810.998h152c122.667 0 216.667 27.833 282 83.5s98 131.5 98 227.5c0 85.333 -23 151.833 -69 199.5s-126.667 71.5 -242 71.5h-221v-582z" />
    <glyph glyph-name="C" unicode="C" 
d="M1008 1196l-95.002 0.00195312c0 22 -3.16699 42.167 -9.5 60.5s-15.833 36.833 -28.5 55.5c-21.333 33.333 -50.5 59.833 -87.5 79.5s-76.833 29.5 -119.5 29.5c-102.667 0 -181.167 -36.667 -235.5 -110s-90.166 -161.5 -107.499 -264.5s-26 -208.833 -26 -317.5
c0 -114 7.5 -218.833 22.5 -314.5s48.833 -179.834 101.5 -252.501s130 -109 232 -109c76.667 0 141.334 25.333 194.001 76c27.333 26 48.333 54.667 63 86s22 66 22 104h94c-5.33301 -56 -17.5 -104.833 -36.5 -146.5s-45.167 -78.167 -78.5 -109.5
c-30.667 -28 -68.5 -50.333 -113.5 -67s-95.833 -25 -152.5 -25c-92 0 -168 23 -228 69s-106.167 106.667 -138.5 182s-54.333 156 -66 242s-17.5 170.333 -17.5 253c0 44.667 1.33301 89.667 4 135s7 90.666 13 135.999c12 90 34.167 173.5 66.5 250.5
s80.333 140.333 144 190s144.834 74.5 243.501 74.5c57.333 0 111.333 -13 162 -39s91.167 -61.833 121.5 -107.5s49.166 -99.167 56.499 -160.5z" />
    <glyph glyph-name="D" unicode="D" 
d="M254 0l-0.000976562 1475h369c80 0 149.333 -19 208 -57s106.667 -88.667 144 -152c24.667 -49.333 45.834 -118.833 63.501 -208.5s26.5 -196.5 26.5 -320.5c0 -115.333 -7.16699 -212.333 -21.5 -291s-29.5 -137.167 -45.5 -175.5s-33.333 -73.833 -52 -106.5
c-80 -109.333 -197.333 -164 -352 -164h-340zM347.999 1393v-1311h184c93.333 0 169.5 12.333 228.5 37s105.833 75 140.5 151c41.333 94.667 62 250.334 62 467.001c0 54 -1 102.5 -3 145.5s-5.66699 86.5 -11 130.5c-8 84 -26.667 153.333 -56 208
c-25.333 50.667 -55.333 87.667 -90 111s-73.5 39.333 -116.5 48s-94.5 13 -154.5 13h-184z" />
    <glyph glyph-name="E" unicode="E" 
d="M1032 1475v-82h-626v-594h450v-82h-450v-635h638v-82h-733v1475h721z" />
    <glyph glyph-name="F" unicode="F" 
d="M1085 1475v-82h-659v-582h496v-82h-496v-729h-98v1475h757z" />
    <glyph glyph-name="G" unicode="G" 
d="M975 631l-357.004 -0.000976562v82h451v-742h-94v234h-4c-21.333 -69.333 -65.166 -125.666 -131.499 -168.999s-137.166 -65 -212.499 -65c-130 0 -232.833 54.167 -308.5 162.5s-113.5 294.5 -113.5 558.5c0 209.333 18.667 373.333 56 492s88.5 201.5 153.5 248.5
s142.5 70.5 232.5 70.5c76 0 139.333 -15.333 190 -46s89.334 -73 116.001 -127s43.667 -117.667 51 -191h-103v16c0 45.333 -9.66699 88.5 -29 129.5s-47.666 74.167 -84.999 99.5c-17.333 12 -36.833 21.167 -58.5 27.5s-44.834 9.5 -69.501 9.5
c-104 0 -182 -37 -234 -111s-85 -160.667 -99 -260c-6 -48.667 -10.667 -99.834 -14 -153.501s-5 -110.834 -5 -171.501c0 -181.333 20 -338.666 60 -471.999s129.333 -200 268 -200c58 0 112.333 14.5 163 43.5s92.834 77.833 126.501 146.5s50.5 158.334 50.5 269.001v119
z" />
    <glyph glyph-name="H" unicode="H" 
d="M324 1475v-668h581v668h99v-1475h-99v725h-581v-725h-99v1475h99z" />
    <glyph glyph-name="I" unicode="I" 
d="M868 1475v-82h-204v-1311h204v-82h-508v82h205v1311h-205v82h508z" />
    <glyph glyph-name="J" unicode="J" 
d="M565 1475h377.001v-1008c0 -118.667 -14.333 -214.167 -43 -286.5s-72.334 -125.333 -131.001 -159s-133 -50.5 -223 -50.5c-121.333 0 -213.166 37.167 -275.499 111.5s-93.5 195.5 -93.5 363.5v156h94v-209c0 -229.333 86 -344 258 -344l13 4
c99.333 0 174.666 30.167 225.999 90.5s77 143.5 77 249.5v1000h-279v82z" />
    <glyph glyph-name="K" unicode="K" 
d="M385 1475l-0.00195312 -675.999c33.333 0 66.5 9.16699 99.5 27.5s64.5 42.166 94.5 71.499c32.667 32.667 59.667 62.334 81 89.001l73 98c44 63.333 83.333 128 118 194c16.667 32.667 32.334 65.5 47.001 98.5s29.334 68.167 44.001 105.5l102 -53l-51 -90l-60 -99
l-65 -111c-54 -87.333 -107.5 -161.833 -160.5 -223.5s-115.5 -113.834 -187.5 -156.501l631 -750h-135l-582 717h-49v-717h-98v1475h98z" />
    <glyph glyph-name="L" unicode="L" 
d="M442 1475v-1393h648v-82h-742v1475h94z" />
    <glyph glyph-name="M" unicode="M" 
d="M614 664l336 811h107v-1475h-94v1282h-5l-344 -819l-340 819l-4 -4v-1278h-98v1475h107z" />
    <glyph glyph-name="N" unicode="N" 
d="M897 -16l-541 1359l-4 -4v-1339h-94v1475h139l500 -1262l4 4v1258h98v-1491h-102z" />
    <glyph glyph-name="O" unicode="O" 
d="M618 -29c-62.667 0 -119.999 11.167 -171.999 33.5s-97.667 61.5 -137 117.5s-71 135 -95 237c-10.667 49.333 -19 106.166 -25 170.499s-9 133.5 -9 207.5c0 135.333 10 258.833 30 370.5s62.167 205.5 126.5 281.5s158.166 114 281.499 114
c102 0 183.333 -26.167 244 -78.5s105 -118.833 133 -199.5c16 -48 28.167 -89.667 36.5 -125s12.5 -71.333 12.5 -108c0 -31.333 0.666992 -60.666 2 -87.999c4.66699 -96 7 -151.667 7 -167c0 -198 -18.667 -353.5 -56 -466.5s-87.833 -191.167 -151.5 -234.5
s-139.5 -65 -227.5 -65zM283.001 737c0 -131.333 8.5 -242.168 25.5 -332.501s40.5 -160.833 70.5 -211.5s65.5 -86.667 106.5 -108s85.167 -32 132.5 -32c106.667 0 188.667 52 246 156s86 280 86 528c0 133.333 -8.16699 245.5 -24.5 336.5s-38.833 161.167 -67.5 210.5
s-63 84.5 -103 105.5s-85.667 31.5 -137 31.5c-73.333 0 -134.333 -22 -183 -66s-86.167 -117.667 -112.5 -221s-39.5 -235.666 -39.5 -396.999z" />
    <glyph glyph-name="P" unicode="P" 
d="M299 0v1475h332c95.333 0 173 -20 233 -60s104 -93.667 132 -161c13.333 -34 23.333 -68.5 30 -103.5s10 -73.167 10 -114.5c0 -142 -40.333 -249.833 -121 -323.5s-191.667 -110.5 -333 -110.5h-189v-602h-94zM635 1393h-242v-709h172c124 0 216.5 31 277.5 93
s91.5 147 91.5 255c0 128.667 -28.167 221 -84.5 277s-127.833 84 -214.5 84z" />
    <glyph glyph-name="Q" unicode="Q" 
d="M889 90l168.001 -216.999h-123l-111 160c-61.333 -41.333 -131 -62 -209 -62c-67.333 0 -127.5 13.167 -180.5 39.5s-98.667 69.666 -137 129.999s-68 139.833 -89 238.5s-31.5 218 -31.5 358c0 136.667 10 254.167 30 352.5s49 178 87 239s83.667 105.333 137 133
s114.666 41.5 183.999 41.5c136 0 243.167 -58.167 321.5 -174.5s117.5 -313.5 117.5 -591.5c0 -141.333 -10.333 -266.5 -31 -375.5s-65 -199.5 -133 -271.5zM279.001 737.001c0 -56.667 1.33105 -110.998 3.99805 -162.998s7 -101.667 13 -149
c10.667 -94 40.834 -179.5 90.501 -256.5s125.5 -115.5 227.5 -115.5c224 0 336 215.667 336 647v37c0 70 -2 132.167 -6 186.5s-10.667 104.5 -20 150.5c-17.333 89.333 -41 158.666 -71 207.999s-64.667 84.833 -104 106.5s-84.333 32.5 -135 32.5
c-101.333 0 -176.666 -37 -225.999 -111s-79.833 -158.833 -91.5 -254.5s-17.5 -201.834 -17.5 -318.501z" />
    <glyph glyph-name="R" unicode="R" 
d="M295 0l0.000976562 1475h352c120 0 214.833 -37.167 284.5 -111.5s104.5 -172.5 104.5 -294.5c0 -60 -11 -118.167 -33 -174.5s-54.333 -104.833 -97 -145.5s-93.334 -70.667 -152.001 -90l397 -659h-123l-364 639h-271v-639h-98zM393.001 1393l0.000976562 -672h238
c48.667 0 95.667 12.333 141 37s83.666 64 114.999 118s47 121 47 201c0 94 -23.667 170.167 -71 228.5s-119.333 87.5 -216 87.5h-254z" />
    <glyph glyph-name="S" unicode="S" 
d="M999 1339l-57.0039 -73.0029c-56 50 -109.667 88.333 -161 115s-105.666 40 -162.999 40c-49.333 0 -95.166 -10.833 -137.499 -32.5s-75.666 -52.167 -99.999 -91.5s-36.5 -84 -36.5 -134c0 -40.667 6.83301 -76.167 20.5 -106.5s36.834 -60.833 69.501 -91.5
c30 -28 78 -61.667 144 -101l118 -73c127.333 -74.667 215.833 -139.667 265.5 -195s74.5 -127 74.5 -215c0 -32 -2.33301 -62.167 -7 -90.5s-12 -55.166 -22 -80.499c-19.333 -50.667 -47.166 -93.667 -83.499 -129s-81 -62.5 -134 -81.5s-110.167 -28.5 -171.5 -28.5
c-83.333 0 -159.5 18.333 -228.5 55s-130.5 90.667 -184.5 162l74 62c41.333 -60.667 91.666 -108.667 150.999 -144s122 -53 188 -53c56 0 108.333 13 157 39s87.334 62.667 116.001 110c14 23.333 24.667 47.5 32 72.5s11 52.167 11 81.5c0 52.667 -5.66699 94 -17 124
c-10 30.667 -35.167 63.667 -75.5 99s-105.166 80 -194.499 134l-139 82c-42.667 27.333 -79 52.333 -109 75c-26 19.333 -51.833 43.833 -77.5 73.5s-45.334 61.834 -59.001 96.501s-20.5 73 -20.5 115c0 70.667 16.5 132.334 49.5 185.001s78.667 93 137 121
s123.166 42 194.499 42c128.667 0 254 -54.667 376 -164z" />
    <glyph glyph-name="T" unicode="T" 
d="M1090 1475v-82h-426v-1393h-99v1393h-422v82h947z" />
    <glyph glyph-name="U" unicode="U" 
d="M905 1475l94 0.000976562v-1094c0 -90.667 -19.167 -166.5 -57.5 -227.5s-88.166 -107.167 -149.499 -138.5c-30 -14.667 -59.333 -25.667 -88 -33s-58.667 -11 -90 -11c-64.667 0 -127.334 17 -188.001 51s-109.334 80.833 -146.001 140.5s-55 124.167 -55 193.5v1119
h99v-1045c0 -46 3 -87 9 -123s15.667 -68.667 29 -98c25.333 -54.667 59.5 -94.334 102.5 -119.001s92.833 -37 149.5 -37c57.333 0 107.833 12 151.5 36s77.834 62.5 102.501 115.5s37 117.167 37 192.5v1078z" />
    <glyph glyph-name="V" unicode="V" 
d="M618 70l287 1405h111l-324 -1491h-155l-332 1491h110l299 -1405h4z" />
    <glyph glyph-name="W" unicode="W" 
d="M606 979l258 -819h4l86 1315h111l-115 -1491h-127l-217 745l-213 -745h-127l-114 1491h110l86 -1315h4z" />
    <glyph glyph-name="X" unicode="X" 
d="M225 1475h115l274 -635l279 635h115l-344 -730l352 -745h-115l-287 655l-286 -655h-115l356 745z" />
    <glyph glyph-name="Y" unicode="Y" 
d="M578 737l311 738h106l-368 -848v-627h-99v627l-368 848h106z" />
    <glyph glyph-name="Z" unicode="Z" 
d="M254 1475h729v-82l-635 -1311h684v-82h-799v82l639 1311h-618v82z" />
    <glyph glyph-name="bracketleft" unicode="[" 
d="M369 1520h549v-82h-451v-1536h451v-82h-549v1700z" />
    <glyph glyph-name="backslash" unicode="\" 
d="M872 -57l-606 1589h94l607 -1589h-95z" />
    <glyph glyph-name="bracketright" unicode="]" 
d="M864 1520v-1700h-549v82h455v1536h-455v82h549z" />
    <glyph glyph-name="asciicircum" unicode="^" 
d="M328 733h-103l336 660h107l331 -660h-102l-283 561z" />
    <glyph glyph-name="underscore" unicode="_" 
d="M1229 -258h-1229v102h1229v-102z" />
    <glyph glyph-name="grave" unicode="`" 
d="M446 1503l324 -266l-45 -61l-356 241z" />
    <glyph glyph-name="a" unicode="a" 
d="M811 279l-0.00292969 281.998c-88 44 -165.667 66 -233 66c-56 0 -103.167 -14.167 -141.5 -42.5s-66.666 -66.666 -84.999 -114.999s-27.5 -99.833 -27.5 -154.5c0 -42 7.83301 -82.667 23.5 -122s39.5 -71.166 71.5 -95.499s68.333 -36.5 109 -36.5
c60.667 0 112.834 19.167 156.501 57.5s85.834 91.833 126.501 160.5zM953.997 -12.002l-86 -13.002c-12 36.667 -21.833 71.667 -29.5 105s-11.5 61.333 -11.5 84c-30 -42 -58.167 -76.167 -84.5 -102.5s-58.166 -47.5 -95.499 -63.5
c-17.333 -7.33301 -35.833 -13 -55.5 -17s-40.834 -6 -63.501 -6c-62.667 0 -116.334 15.667 -161.001 47s-78.834 73.333 -102.501 126s-35.5 111.334 -35.5 176.001c0 52.667 7.16699 102 21.5 148s35.5 87 63.5 123s62 64 102 84s85.667 30 137 30
c42 0 86.333 -7.16699 133 -21.5s91 -31.833 133 -52.5v29c0 83.333 -6.66699 151.5 -20 204.5s-36.333 92.167 -69 117.5s-76.667 38 -132 38c-44 0 -86.167 -6.16699 -126.5 -18.5s-85.5 -29.5 -135.5 -51.5l-21 86c112 44 207.667 66 287 66
c49.333 0 92.833 -8.16699 130.5 -24.5s69.834 -39.833 96.501 -70.5s47.334 -68.5 62.001 -113.5s22 -95.833 22 -152.5v-20l-6 -202l-6 -240c0 -38.667 4.33301 -82.667 13 -132s22 -103.666 40 -162.999z" />
    <glyph glyph-name="b" unicode="b" 
d="M258 1520l97.998 0.000976562v-504c36 28 76.833 50 122.5 66s93.834 24 144.501 24c40.667 0 84.667 -9 132 -27s94.333 -49.333 141 -94c44.667 -42.667 81.334 -100.334 110.001 -173.001c14 -36 24.667 -75.667 32 -119s11 -91.333 11 -144
c0 -130.667 -21.333 -239.167 -64 -325.5s-96.667 -149.333 -162 -189s-130.666 -59.5 -195.999 -59.5c-63.333 0 -119.333 15.833 -168 47.5s-88.334 76.167 -119.001 133.5l-41 -181l-90 13c13.333 40 23 79 29 117s10.167 65.833 12.5 83.5s3.5 36.167 3.5 55.5l4 137
v1139zM355.998 918.001l0.000976562 -639c30.667 -68 67.167 -121.333 109.5 -160s96.166 -58 161.499 -58c33.333 0 68.833 8.16699 106.5 24.5s72.167 42.333 103.5 78s58 85.834 80 150.501s33 141.667 33 231c0 121.333 -19 217.666 -57 288.999s-84 120.833 -138 148.5
s-106.333 41.5 -157 41.5c-84 0 -164.667 -35.333 -242 -106z" />
    <glyph glyph-name="c" unicode="c" 
d="M971 229l65.0039 -69.001c-37.333 -40.667 -73.5 -74 -108.5 -100s-73.5 -46.667 -115.5 -62s-86 -23 -132 -23c-72.667 0 -143.334 17.333 -212.001 52s-126.334 93.834 -173.001 177.501s-70 192.834 -70 327.501c0 104 13 193.333 39 268s61 134.5 105 179.5
s91.667 77.333 143 97s104.666 29.5 159.999 29.5c148 0 272 -72.333 372 -217l-86 -58c-28.667 56.667 -67.5 103 -116.5 139s-105.5 54 -169.5 54c-54.667 0 -108 -13.333 -160 -40s-96.333 -75.667 -133 -147s-55 -167.333 -55 -288c0 -90 10.5 -166.167 31.5 -228.5
s48.333 -112.333 82 -150s71.5 -65.334 113.5 -83.001s83.667 -26.5 125 -26.5c99.333 0 197.666 56 294.999 168z" />
    <glyph glyph-name="d" unicode="d" 
d="M967 1520v-1139c0 -147.333 16.333 -278.333 49 -393l-90 -13l-37 181c-29.333 -56 -69.5 -100.167 -120.5 -132.5s-107.833 -48.5 -170.5 -48.5c-65.333 0 -130 19.5 -194 58.5s-117.333 102 -160 189s-64 195.833 -64 326.5c0 102 14 189 42 261s64.167 130 108.5 174
s90.833 75.333 139.5 94c26 9.33301 49.667 16.333 71 21s43 7 65 7c47.333 0 94.5 -8 141.5 -24s88.5 -38 124.5 -66v504h95zM872 279v638.999c-80.667 70.667 -161 106 -241 106c-50.667 0 -103 -13.5 -157 -40.5s-100.833 -76.5 -140.5 -148.5s-59.5 -168.667 -59.5 -290
c0 -57.333 4.33301 -109.5 13 -156.5s22 -89.167 40 -126.5c34.667 -71.333 77.5 -122.666 128.5 -153.999s99.833 -47 146.5 -47c62.667 0 117.167 20.167 163.5 60.5s81.833 92.833 106.5 157.5z" />
    <glyph glyph-name="e" unicode="e" 
d="M979 168l41.002 -89.998c-46.667 -21.333 -90.334 -39.666 -131.001 -54.999c-17.333 -6 -37.333 -12.333 -60 -19c-17.333 -4.66699 -38.333 -10 -63 -16c-45.333 -8.66699 -89 -13 -131 -13c-100.667 0 -183.5 26.333 -248.5 79s-112.5 122.334 -142.5 209.001
c-14 43.333 -24.667 87.5 -32 132.5s-11 92.167 -11 141.5c0 69.333 8 137.666 24 204.999s41.667 128.5 77 183.5s81 98.833 137 131.5s122.667 49 200 49c50 0 98.167 -9.83301 144.5 -29.5s88.166 -50.834 125.499 -93.501s67.833 -102.334 91.5 -179.001
s35.5 -168.667 35.5 -276h-741c0 -84.667 9.33301 -157.334 28 -218.001s44.667 -109.667 78 -147c62 -68 141.333 -102 238 -102c110 0 223.333 35.667 340 107zM295.002 610.002h647v17c0 64.667 -12.333 127.167 -37 187.5s-61.334 110.333 -110.001 150
s-104.667 59.5 -168 59.5c-65.333 0 -123.166 -20 -173.499 -60s-90 -91.5 -119 -154.5s-43.5 -126.833 -43.5 -191.5z" />
    <glyph glyph-name="f" unicode="f" 
d="M1077 1438l-0.000976562 -103l-74 34c-20 9.33301 -38.333 17.333 -55 24s-31.834 12 -45.501 16s-27 7 -40 9s-26.167 3 -39.5 3c-140 0 -216.333 -73.667 -229 -221v-188h360v-82h-360v-930h-94v930h-279v82h279v123c0 64 7.83301 118.833 23.5 164.5
s38.834 84.167 69.501 115.5c58.667 58.667 131.334 88 218.001 88c67.333 0 156 -21.667 266 -65z" />
    <glyph glyph-name="g" unicode="g" 
d="M274 -201l69.999 58.001c32 -38 71.5 -68 118.5 -90s96.167 -33 147.5 -33c42 0 84.333 12 127 36s78 63.167 106 117.5s42 124.5 42 210.5v131c-24.667 -26.667 -53.834 -49.5 -87.501 -68.5s-69.5 -34.5 -107.5 -46.5c-39.333 -10.667 -75.333 -16 -108 -16
c-82.667 0 -152 23.833 -208 71.5s-98.167 108.334 -126.5 182.001s-42.5 150.5 -42.5 230.5c0 89.333 13 173.666 39 252.999s69 144.333 129 195s136.333 76 229 76c56.667 0 106.834 -10.333 150.501 -31s91.834 -51.334 144.501 -92.001l29 123h98
c-32.667 -126.667 -49 -290.667 -49 -492l2 -38l2 -39v-451c0 -52.667 -4.66699 -99.167 -14 -139.5s-24.333 -76.833 -45 -109.5c-39.333 -64.667 -89 -111.667 -149 -141s-120.333 -44 -181 -44c-55.333 0 -111.333 13.5 -168 40.5s-106 62.5 -148 106.5zM880.999 344.001
l-0.00292969 523.999c-31.333 44.667 -72.166 81.834 -122.499 111.501s-103.833 44.5 -160.5 44.5c-51.333 0 -96.166 -12.667 -134.499 -38s-69 -58.833 -92 -100.5s-40.167 -88.667 -51.5 -141s-17 -101.166 -17 -146.499c0 -79.333 10 -146.333 30 -201
s44.833 -97.334 74.5 -128.001s60.834 -53.667 93.501 -69c16 -6.66699 31.167 -11.667 45.5 -15s28.833 -5 43.5 -5c54 0 108.5 15.333 163.5 46s97.5 70 127.5 118z" />
    <glyph glyph-name="h" unicode="h" 
d="M266 0l-0.000976562 1520h99v-672h4c23.333 48 52.833 91.167 88.5 129.5s77.167 69.333 124.5 93s96.333 35.5 147 35.5c36.667 0 74.834 -10.167 114.501 -30.5s73.5 -54.666 101.5 -102.999s42 -108.833 42 -181.5v-791h-98v680c0 229.333 -58.667 344 -176 344
c-58.667 0 -115 -22 -169 -66s-97.333 -103.167 -130 -177.5s-49 -152.833 -49 -235.5v-545h-99z" />
    <glyph glyph-name="i" unicode="i" 
d="M594 0v1004h-315v81h409v-1085h-94zM639 1503c28.667 0 53.5 -10.166 74.5 -30.499s31.5 -45.5 31.5 -75.5s-10.333 -55.333 -31 -76s-45.667 -31 -75 -31c-30 0 -55.667 10.333 -77 31c-20 21.333 -30 46.666 -30 75.999c0 30 10.167 55.167 30.5 75.5
s45.833 30.5 76.5 30.5z" />
    <glyph glyph-name="j" unicode="j" 
d="M176 57l98.001 0.000976562c0 -101.333 16.167 -180.5 48.5 -237.5s90.166 -85.5 173.499 -85.5c44.667 0 84.5 10.333 119.5 31s62 49.5 81 86.5s28.5 76.833 28.5 119.5v1033h-324v81h422v-1081c0 -65.333 -14.167 -124.833 -42.5 -178.5s-67.833 -96 -118.5 -127
s-106 -46.5 -166 -46.5c-74 0 -135 18.667 -183 56s-82.833 86.666 -104.5 147.999s-32.5 128.333 -32.5 201zM762.001 1503c28.667 0 53.5 -10.167 74.5 -30.5s31.5 -45.5 31.5 -75.5s-10.333 -55.333 -31 -76s-45.667 -31 -75 -31c-30.667 0 -56.167 10.167 -76.5 30.5
s-30.5 45.833 -30.5 76.5c0 29.333 10 54.333 30 75s45.667 31 77 31z" />
    <glyph glyph-name="k" unicode="k" 
d="M877 1085h122l-178 -215l-98 -118l-52 -57l-102 -105l525 -590h-131l-451 537l-102 -103v-434h-99v1520h99v-971c185.333 177.333 341 356 467 536z" />
    <glyph glyph-name="l" unicode="l" 
d="M578 0v1438h-320v82h418v-1520h-98z" />
    <glyph glyph-name="m" unicode="m" 
d="M160 0v758.001c0 131.333 -13.667 247.333 -41 348h98l29 -139c66.667 92.667 151.334 139 254.001 139c75.333 0 131.333 -43.667 168 -131c67.333 87.333 141 131 221 131c44 0 82.167 -9.16699 114.5 -27.5s56.833 -44.333 73.5 -78s25 -73.5 25 -119.5v-881h-94v877
c0 100.667 -43.667 151 -131 151c-40.667 0 -77.334 -12.833 -110.001 -38.5s-61.667 -59.167 -87 -100.5v-889h-98v831c0 56.667 -7 103 -21 139s-45.333 54 -94 54c-43.333 0 -84 -14.833 -122 -44.5s-68.333 -66.834 -91 -111.501v-868h-94z" />
    <glyph glyph-name="n" unicode="n" 
d="M344 446l-0.000976562 -446h-94v545c0 217.333 -15 401.666 -45 552.999h90l41 -312h4c14 52.667 40.333 103.834 79 153.501s86 89.834 142 120.501s110.667 46 164 46c61.333 0 110.5 -15.333 147.5 -46s63.333 -71.5 79 -122.5s23.5 -105.5 23.5 -163.5v-774h-94v729
c0 58 -2.66699 106.833 -8 146.5s-20.333 74.334 -45 104.001s-63 44.5 -115 44.5c-56.667 0 -113.167 -19.833 -169.5 -59.5s-103.666 -102.834 -141.999 -189.501s-57.5 -196.334 -57.5 -329.001z" />
    <glyph glyph-name="o" unicode="o" 
d="M614 -25c-48.667 0 -96.5 9.33398 -143.5 28.001s-91.333 50.5 -133 95.5s-74.834 105.5 -99.501 181.5s-37 164.333 -37 265c0 133.333 19.833 241.5 59.5 324.5s90.667 143.167 153 180.5s129.166 56 200.499 56c68 0 133.333 -17 196 -51s115.334 -93 158.001 -177
s64 -195 64 -333c0 -106.667 -12 -196.334 -36 -269.001s-57.333 -131.667 -100 -177c-39.333 -43.333 -83.666 -74.833 -132.999 -94.5s-99 -29.5 -149 -29.5zM614 61.001c82.667 0 147.67 23.832 195.003 71.499s80 107.834 98 180.501s27 150 27 232
c0 80 -8.83301 155.833 -26.5 227.5s-50.334 131.5 -98.001 179.5s-112.834 72 -195.501 72c-118 0 -200 -47 -246 -141s-69 -206.667 -69 -338c0 -42.667 2 -82.5 6 -119.5s10.667 -74.167 20 -111.5c16.667 -71.333 48.667 -131.333 96 -180s111.666 -73 192.999 -73z" />
    <glyph glyph-name="p" unicode="p" 
d="M258 -434l-0.000976562 1139c0 158.667 -16.333 288.334 -49 389.001l90 12l37 -176h4c29.333 55.333 68.5 98.5 117.5 129.5s105.5 46.5 169.5 46.5c48.667 0 97.834 -10.167 147.501 -30.5s94.5 -52.333 134.5 -96s73.333 -103 100 -178s40 -163.167 40 -264.5
c0 -104 -14.167 -192.167 -42.5 -264.5s-64.5 -129.833 -108.5 -172.5s-90.667 -74.167 -140 -94.5s-94.333 -30.5 -135 -30.5c-98 0 -187 31.667 -267 95v-504h-98zM355.999 806.999l0.000976562 -639.001c38 -35.333 77 -62 117 -80s81.667 -27 125 -27
c50 0 102.167 14 156.5 42s100.5 78.167 138.5 150.5s57 168.166 57 287.499c0 91.333 -10.5 168.5 -31.5 231.5s-47.667 112.5 -80 148.5s-66.666 62.167 -102.999 78.5s-72.5 24.5 -108.5 24.5c-44.667 0 -84.334 -9.16699 -119.001 -27.5
s-63.334 -43.166 -86.001 -74.499s-44.667 -69.666 -66 -114.999z" />
    <glyph glyph-name="q" unicode="q" 
d="M971 -434h-98.998v504c-36 -29.333 -78 -52.5 -126 -69.5s-94.667 -25.5 -140 -25.5c-41.333 0 -86.166 9.83301 -134.499 29.5s-94.333 50.667 -138 93s-80.5 101.166 -110.5 176.499c-14 37.333 -24.667 77.833 -32 121.5s-11 90.834 -11 141.501
c0 133.333 21.167 242.5 63.5 327.5s95.666 146.5 159.999 184.5s129.166 57 194.499 57c33.333 0 63.666 -3.66699 90.999 -11s54 -19.333 80 -36c49.333 -29.333 88 -72.333 116 -129h4l37 176l90 -12c-30 -102 -45 -231.667 -45 -389v-1139zM872.002 168
l-0.000976562 638.999c-29.333 68 -65.166 121.167 -107.499 159.5s-96.5 57.5 -162.5 57.5c-47.333 0 -96.166 -15.167 -146.499 -45.5s-93.166 -82.666 -128.499 -156.999s-53 -167.833 -53 -280.5c0 -61.333 4.66699 -115.5 14 -162.5s24.333 -89.167 45 -126.5
c38.667 -70.667 85.167 -120.167 139.5 -148.5s107.166 -42.5 158.499 -42.5c81.333 0 161.666 35.667 240.999 107z" />
    <glyph glyph-name="r" unicode="r" 
d="M442 442v-442.002h-94v750l-41 348h94l37 -307c26 56 56.167 107.167 90.5 153.5s75.166 84.833 122.499 115.5s99.333 46 156 46s101.834 -16.167 135.501 -48.5s57.667 -72.666 72 -120.999s21.5 -101.166 21.5 -158.499h-98c0 72 -8.83301 131 -26.5 177
s-55.167 69 -112.5 69c-42 0 -91.5 -21.667 -148.5 -65s-106.167 -109 -147.5 -197c-19.333 -43.333 -34.333 -92 -45 -146s-16 -112 -16 -174z" />
    <glyph glyph-name="s" unicode="s" 
d="M922 991l-41.0029 -77.9971c-102 74 -199 111 -291 111c-57.333 0 -107.833 -19 -151.5 -57s-65.5 -84.667 -65.5 -140c0 -54.667 22 -98 66 -130s102.333 -62.333 175 -91c56.667 -22 105.5 -43.833 146.5 -65.5s76.5 -44.5 106.5 -68.5c58 -45.333 87 -114 87 -206
c0 -56.667 -15.167 -107.334 -45.5 -152.001s-70.666 -79 -120.999 -103s-103.833 -36 -160.5 -36c-62.667 0 -133 17.333 -211 52c-39.333 17.333 -75 36.166 -107 56.499s-61.333 43.166 -88 68.499l53 77c44.667 -44.667 100.834 -83.834 168.501 -117.501
s130.5 -50.5 188.5 -50.5c42.667 0 80.834 7.5 114.501 22.5s60.5 37.167 80.5 66.5s30 65.333 30 108c0 72 -20.833 124.833 -62.5 158.5s-105.5 66.834 -191.5 99.501c-70.667 27.333 -126.667 52.333 -168 75s-77.5 54.167 -108.5 94.5s-46.5 90.5 -46.5 150.5
c0 50 14.833 95.5 44.5 136.5s69 73.5 118 97.5s99.833 36 152.5 36c116 0 225.333 -38.333 328 -115z" />
    <glyph glyph-name="t" unicode="t" 
d="M926 1085l0.000976562 -81.001h-398v-742c0 -58 13.167 -106 39.5 -144s70.5 -57 132.5 -57c37.333 0 72.166 8.66699 104.499 26s60.333 39.833 84 67.5s44.167 60.834 61.5 99.501l94 -25c-37.333 -75.333 -86 -136.5 -146 -183.5s-127.333 -70.5 -202 -70.5
c-79.333 0 -143.5 26 -192.5 78s-73.5 140.667 -73.5 266v685h-242v81h242v349h98v-349h398z" />
    <glyph glyph-name="u" unicode="u" 
d="M889 647l0.000976562 437.999h94v-536c0 -220 15 -403 45 -549h-90l-41 307h-4c-10 -42 -27.5 -82.167 -52.5 -120.5s-55.5 -73.666 -91.5 -105.999s-75.333 -58 -118 -77s-83.667 -28.5 -123 -28.5c-90 0 -154.167 33.167 -192.5 99.5s-57.5 147.833 -57.5 244.5v766h94
v-720c0 -102 14 -178.167 42 -228.5s70 -75.5 126 -75.5c22 0 43 2.66699 63 8s41.333 14.333 64 27c43.333 24 83.166 60 119.499 108s65.833 109.833 88.5 185.5s34 161.5 34 257.5z" />
    <glyph glyph-name="v" unicode="v" 
d="M909 1085h103l-344 -1101h-111l-344 1101h102l295 -954z" />
    <glyph glyph-name="w" unicode="w" 
d="M295 -16l-193 1101h107l151 -938h5l188 660h106l189 -660h4l152 938h102l-193 -1101h-102l-205 704l-205 -704h-106z" />
    <glyph glyph-name="x" unicode="x" 
d="M995 1085l-327 -499l422 -586h-132l-344 516l-344 -516h-127l418 582l-336 503h111l278 -426l275 426h106z" />
    <glyph glyph-name="y" unicode="y" 
d="M938 1085l111 -0.000976562l-406 -1032c-30 -78 -57.5 -142.667 -82.5 -194s-59.667 -98.666 -104 -141.999s-95.5 -65 -153.5 -65c-58.667 0 -109.5 19.167 -152.5 57.5s-75.5 88.833 -97.5 151.5l82 41c44 -112 100 -168 168 -168c47.333 0 85.333 19.333 114 58
c26 35.333 53.667 84.333 83 147l82 188l-353 958h107l291 -831z" />
    <glyph glyph-name="z" unicode="z" 
d="M303 1085h692v-81l-663 -922h688v-82h-811v82l672 922h-578v81z" />
    <glyph glyph-name="braceleft" unicode="{" 
d="M643 406l-0.00292969 -320.006c0 -52 6 -96.333 18 -133s33 -66 63 -88s71.333 -35.667 124 -41l-4 -4c-78.667 0 -138.834 9.33301 -180.501 28s-71.167 49.834 -88.5 93.501s-26 102.834 -26 177.501v307c0 52.667 -3.66699 92.667 -11 120
c-6.66699 30 -22.667 55 -48 75c-22.667 19.333 -57.667 35 -105 47v4c46.667 11.333 81.834 26.833 105.501 46.5s39.5 43.834 47.5 72.501c3.33301 13.333 6 30 8 50s3 42.667 3 68v328c0 38.667 2 70.834 6 96.501s11.333 49.834 22 72.501
c18.667 39.333 49.334 68 92.001 86c20 8 45.167 14.667 75.5 20s63.5 8 99.5 8l4 -4c-52.667 -8 -94 -22.333 -124 -43s-51 -49.167 -63 -85.5s-18 -81.166 -18 -134.499v-327c0 -50.667 -3.66699 -92.334 -11 -125.001s-23.166 -59.334 -47.499 -80.001
s-62.166 -37 -113.499 -49v-4c48.667 -11.333 85.5 -28.166 110.5 -50.499s41.5 -50.166 49.5 -83.499s12 -76 12 -128z" />
    <glyph glyph-name="bar" unicode="|" 
d="M569 -590v2212h90v-2212h-90z" />
    <glyph glyph-name="braceright" unicode="}" 
d="M590 938l-0.00195312 319c0 51.333 -6.16699 95 -18.5 131s-33 64.5 -62 85.5s-70.5 35.167 -124.5 42.5l4 4c78.667 0 138.667 -9.33301 180 -28s70.833 -49.334 88.5 -92.001s26.5 -101 26.5 -175v-312c0 -18.667 0.333008 -35.667 1 -51s2.5 -31.833 5.5 -49.5
s9.83301 -36.167 20.5 -55.5c10.667 -17.333 27 -33 49 -47c20 -11.333 49.333 -22.666 88 -33.999v-4c-47.333 -11.333 -82.666 -26.666 -105.999 -45.999s-39 -44 -47 -74c-3.33301 -13.333 -6 -30 -8 -50s-3 -42.667 -3 -68v-332c0 -73.333 -9.33301 -129.5 -28 -168.5
s-49.667 -67.5 -93 -85.5c-20 -8 -45.167 -14.667 -75.5 -20s-63.166 -8 -98.499 -8l-4 4c77.333 10.667 130.833 36.5 160.5 77.5s44.5 102.5 44.5 184.5v332c0 54 3.83301 96 11.5 126s23.667 55.833 48 77.5s61.833 38.5 112.5 50.5v4
c-48 11.333 -84.5 28.166 -109.5 50.499s-42.167 50.5 -51.5 84.5c-3.33301 15.333 -6 33.833 -8 55.5s-3 45.5 -3 71.5z" />
    <glyph glyph-name="asciitilde" unicode="~" 
d="M1102 905l64.9961 -49.0029c-20 -40 -45.5 -77.167 -76.5 -111.5s-66.5 -63.166 -106.5 -86.499s-81.333 -35 -124 -35c-23.333 0 -56.333 7.16699 -99 21.5s-92 32.833 -148 55.5s-105 41.334 -147 56.001c-20.667 6.66699 -39.167 12 -55.5 16s-30.166 6 -41.499 6
c-40.667 0 -75 -9.66699 -103 -29s-51.333 -42 -70 -68l-69 -108l-66 45c26 46 52.833 87.167 80.5 123.5s59.834 66.5 96.501 90.5s77.334 36 122.001 36c18.667 0 37.5 -1.66699 56.5 -5s40.833 -9 65.5 -17c50 -15.333 104.333 -36 163 -62l98 -40l40 -16
c28 -10 53.667 -15 77 -15c49.333 0 96.333 19.333 141 58s78.334 83.334 101.001 134.001z" />
    <glyph glyph-name="c274" 
d="M365 516c0 44 11.002 85.8311 33.002 125.498s52.667 71 92 94s80.666 34.5 123.999 34.5c46 0 88.5 -11.333 127.5 -34s69.833 -54 92.5 -94s34 -82 34 -126c0 -23.333 -2.66699 -44.666 -8 -63.999s-14.333 -39.666 -27 -60.999c-22 -37.333 -52.333 -67.5 -91 -90.5
s-81.334 -34.5 -128.001 -34.5c-46 0 -88 11 -126 33s-68 52.167 -90 90.5s-33 80.5 -33 126.5z" />
    <glyph glyph-name="c157" 
d="M922 991l-41.0029 -77.9971c-102 74 -199 111 -291 111c-57.333 0 -107.833 -19 -151.5 -57s-65.5 -84.667 -65.5 -140c0 -54.667 22 -98 66 -130s102.333 -62.333 175 -91c56.667 -22 105.5 -43.833 146.5 -65.5s76.5 -44.5 106.5 -68.5c58 -45.333 87 -114 87 -206
c0 -56.667 -15.167 -107.334 -45.5 -152.001s-70.666 -79 -120.999 -103s-103.833 -36 -160.5 -36c-62.667 0 -133 17.333 -211 52c-39.333 17.333 -75 36.166 -107 56.499s-61.333 43.166 -88 68.499l53 77c44.667 -44.667 100.834 -83.834 168.501 -117.501
s130.5 -50.5 188.5 -50.5c42.667 0 80.834 7.5 114.501 22.5s60.5 37.167 80.5 66.5s30 65.333 30 108c0 72 -20.833 124.833 -62.5 158.5s-105.5 66.834 -191.5 99.501c-70.667 27.333 -126.667 52.333 -168 75s-77.5 54.167 -108.5 94.5s-46.5 90.5 -46.5 150.5
c0 50 14.833 95.5 44.5 136.5s69 73.5 118 97.5s99.833 36 152.5 36c116 0 225.333 -38.333 328 -115zM617.997 -15.9971h74l-49 -144c28 0 52.167 -2.33301 72.5 -7s40.5 -13 60.5 -25c36.667 -22.667 55 -58.334 55 -107.001c0 -28.667 -9 -55.167 -27 -79.5
s-40.667 -42.166 -68 -53.499c-27.333 -12.667 -55.666 -19 -84.999 -19c-46 0 -110 18 -192 54l24 65l77 -24c28 -8.66699 51.667 -13 71 -13c12.667 0 24.167 1.33301 34.5 4s22.166 8 35.499 16c24 13.333 36 31.333 36 54c0 44 -39.667 66 -119 66h-20.5
c-6.33301 0 -14.5 -0.666992 -24.5 -2l-28 -2z" />
    <glyph glyph-name="c158" 
d="M975 631l-357.004 -0.000976562v82h451v-742h-94v234h-4c-21.333 -69.333 -65.166 -125.666 -131.499 -168.999s-137.166 -65 -212.499 -65c-130 0 -232.833 54.167 -308.5 162.5s-113.5 294.5 -113.5 558.5c0 209.333 18.667 373.333 56 492s88.5 201.5 153.5 248.5
s142.5 70.5 232.5 70.5c76 0 139.333 -15.333 190 -46s89.334 -73 116.001 -127s43.667 -117.667 51 -191h-103v16c0 45.333 -9.66699 88.5 -29 129.5s-47.666 74.167 -84.999 99.5c-17.333 12 -36.833 21.167 -58.5 27.5s-44.834 9.5 -69.501 9.5
c-104 0 -182 -37 -234 -111s-85 -160.667 -99 -260c-6 -48.667 -10.667 -99.834 -14 -153.501s-5 -110.834 -5 -171.501c0 -181.333 20 -338.666 60 -471.999s129.333 -200 268 -200c58 0 112.333 14.5 163 43.5s92.834 77.833 126.501 146.5s50.5 158.334 50.5 269.001v119
zM290.996 1823h90c12 -109.333 99.333 -164 262 -164c162 0 249.333 54.667 262 164h90c-18 -164 -130 -246 -336 -246c-92.667 0 -165.167 11.833 -217.5 35.5s-88 52.667 -107 87s-33.5 75.5 -43.5 123.5z" />
    <glyph glyph-name="c277" horiz-adv-x="1974" 
 />
    <glyph glyph-name="nonbreakingspace" unicode="&#xa0;" 
 />
    <glyph glyph-name="exclamdown" unicode="&#xa1;" 
d="M545 0l24 1012h82l37 -1012h-143zM471 1364c0 39.333 13.332 72.333 39.999 99s59.667 40 99 40c23.333 0 46 -6 68 -18s39.5 -28.667 52.5 -50s19.5 -45 19.5 -71c0 -24.667 -6.33301 -47.167 -19 -67.5s-30.167 -36.666 -52.5 -48.999s-45.166 -18.5 -68.499 -18.5
c-38.667 0 -71.5 13.167 -98.5 39.5s-40.5 58.166 -40.5 95.499z" />
    <glyph glyph-name="cent" unicode="&#xa2;" horiz-adv-x="1974" 
 />
    <glyph glyph-name="sterling" unicode="&#xa3;" horiz-adv-x="1974" 
 />
    <glyph glyph-name="currency" unicode="&#xa4;" horiz-adv-x="1974" 
 />
    <glyph glyph-name="yen" unicode="&#xa5;" horiz-adv-x="1974" 
 />
    <glyph glyph-name="brokenbar" unicode="&#xa6;" horiz-adv-x="1974" 
 />
    <glyph glyph-name="section" unicode="&#xa7;" horiz-adv-x="1974" 
 />
    <glyph glyph-name="dieresis" unicode="&#xa8;" 
d="M311 1335c0 32 11.1689 59.168 33.502 81.501s49.5 33.5 81.5 33.5c21.333 0 40.666 -5 57.999 -15s31.166 -23.333 41.499 -40s15.5 -36.667 15.5 -60c0 -30.667 -10.833 -57.334 -32.5 -80.001s-49.167 -34 -82.5 -34c-30.667 0 -57.667 11.333 -81 34
c-22.667 24 -34 50.667 -34 80zM688.002 1335c0 21.333 4.83301 40.499 14.5 57.499s23.167 31.167 40.5 42.5c17.333 10 37.333 15 60 15c30.667 0 57.5 -10.833 80.5 -32.5s34.5 -49.167 34.5 -82.5c0 -31.333 -11.333 -58.166 -34 -80.499s-49.667 -33.5 -81 -33.5
c-32 0 -59.667 11 -83 33c-21.333 22.667 -32 49.667 -32 81z" />
    <glyph glyph-name="copyright" unicode="&#xa9;" 
d="M610 -29c-108.667 0 -210.169 34.166 -304.502 102.499s-168.833 162 -223.5 281s-82 247.833 -82 386.5s27.333 266 82 382s128.667 208.333 222 277s195.333 103 306 103c85.333 0 164.5 -19.167 237.5 -57.5s137.333 -92.666 193 -162.999s99 -153 130 -248
s46.5 -192.833 46.5 -293.5c0 -140 -26.667 -269 -80 -387s-126.666 -211.333 -219.999 -280s-195.666 -103 -306.999 -103zM609.998 52.999c72 0 140.001 18.001 204.001 54.001s120 86 168 150s85.667 137.667 113 221c13.333 43.333 23.333 86 30 128s10 87 10 135
c0 92 -13.333 179.667 -40 263s-64.334 156 -113.001 218s-104.5 110.667 -167.5 146s-131.167 53 -204.5 53c-95.333 0 -183.5 -30.667 -264.5 -92s-145.5 -144.666 -193.5 -249.999c-22.667 -51.333 -40 -105.333 -52 -162s-18 -115.334 -18 -176.001
c0 -122 23.333 -235.833 70 -341.5s110.667 -189.834 192 -252.501s170 -94 266 -94zM830.999 602l82 -0.00195312c-8 -88 -38 -159.833 -90 -215.5s-113.333 -83.5 -184 -83.5c-65.333 0 -124 19.5 -176 58.5s-92.333 92.5 -121 160.5c-14 34 -24.667 69.333 -32 106
s-11 75.667 -11 117c0 86.667 13.5 162.834 40.5 228.501s66.5 117.834 118.5 156.501s111 58 177 58c72 0 133.5 -26 184.5 -78s82.167 -123 93.5 -213h-82c-8 60.667 -30.167 110.667 -66.5 150s-79.5 59 -129.5 59c-75.333 0 -136.5 -35 -183.5 -105
s-70.5 -153.667 -70.5 -251c0 -63.333 10.833 -123 32.5 -179s52.167 -101 91.5 -135s84 -51 134 -51c46.667 0 88.5 20 125.5 60s59.167 92.333 66.5 157z" />
    <glyph glyph-name="ordfeminine" unicode="&#xaa;" 
d="M811 1249l-0.00195312 -245v-30c0 -8.66699 1.33301 -19.667 4 -33c2 -17.333 3.33301 -27.333 4 -30c3.33301 -10 5.33301 -17 6 -21l15 -59l-74 -12l-25 94c-30 -32 -57.667 -55 -83 -69s-57.666 -21 -96.999 -21c-37.333 0 -71.166 9 -101.499 27
s-53.666 42.667 -69.999 74s-24.5 67.333 -24.5 108c0 70.667 19.667 128 59 172s93.333 66 162 66c50.667 0 99.667 -8.33301 147 -25c0 66.667 -9.83301 114.834 -29.5 144.501s-50.834 44.5 -93.501 44.5c-44 0 -104 -18 -180 -54l-16 90c84 22 150.667 33 200 33
c36 0 68.833 -9 98.5 -27s53.5 -45.333 71.5 -82s27 -82.334 27 -137.001v-8zM728.998 1016l-0.000976562 150.999c-58 22 -104.333 33 -139 33c-47.333 0 -83.166 -16.167 -107.499 -48.5s-36.5 -73.5 -36.5 -123.5c0 -35.333 10.5 -66.666 31.5 -93.999
s48.833 -41 83.5 -41c60 0 116 41 168 123zM847.997 716.999v-70h-488v70h488z" />
    <glyph glyph-name="guillemotleft" unicode="&#xab;" 
d="M1106 1241l57 -61l-467 -451l467 -446l-57 -66l-533 512zM598 1241l61 -61l-471 -451l471 -446l-61 -66l-528 512z" />
    <glyph glyph-name="logicalnot" unicode="&#xac;" 
d="M1069 356v475h-999v91h1089v-566h-90z" />
    <glyph glyph-name="minus" unicode="&#xad;" 
d="M856 696h-483v82h483v-82z" />
    <glyph glyph-name="registered" unicode="&#xae;" 
d="M618 -29c-112 0 -215.332 34.167 -309.999 102.5s-169.667 162 -225 281s-83 247.833 -83 386.5c0 103.333 16 201.5 48 294.5s76.167 174.667 132.5 245s122.166 125 197.499 164s155.333 58.5 240 58.5s164 -19.333 238 -58s139 -93.167 195 -163.5
s99.667 -152.5 131 -246.5s47 -192 47 -294c0 -138 -27 -266 -81 -384s-128.333 -211.833 -223 -281.5s-197 -104.5 -307 -104.5zM618.001 53c95.333 0 183.834 31.167 265.501 93.5s146 146.333 193 252s70.5 219.834 70.5 342.501c0 120.667 -23.333 233.167 -70 337.5
s-110.5 187.5 -191.5 249.5s-170.167 93 -267.5 93c-74 0 -143 -17.333 -207 -52s-121 -83.834 -171 -147.501s-88.833 -137.167 -116.5 -220.5s-41.5 -170 -41.5 -260c0 -124.667 23.667 -239.167 71 -343.5s112.166 -187.833 194.499 -250.5s172.5 -94 270.5 -94z
M717.002 705l205 -394h-99l-196 394h-156v-394h-82v856h299c82 0 142.833 -18.167 182.5 -54.5s59.5 -94.5 59.5 -174.5c0 -78 -19.333 -136 -58 -174c-18.667 -18.667 -41.167 -33.167 -67.5 -43.5s-55.5 -15.5 -87.5 -15.5zM471.002 1085l-0.000976562 -299h209
c112 0 168 52 168 156c0 60 -16.167 98.833 -48.5 116.5s-76.166 26.5 -131.499 26.5h-197z" />
    <glyph glyph-name="macron" unicode="&#xaf;" 
d="M909 1294h-590v82h590v-82z" />
    <glyph glyph-name="degree" unicode="&#xb0;" 
d="M221 1126c0 52 9.99902 102.5 29.999 151.5s48 91.167 84 126.5s78.5 63.5 127.5 84.5s99.5 31.5 151.5 31.5c54 0 105.5 -10.167 154.5 -30.5s91.5 -48.333 127.5 -84s64.333 -78.167 85 -127.5s31 -100 31 -152c0 -72 -17.333 -138 -52 -198
s-83.167 -108.167 -145.5 -144.5s-129.166 -54.5 -200.499 -54.5c-69.333 0 -134.5 18 -195.5 54s-109.167 84.5 -144.5 145.5s-53 126.833 -53 197.5zM306.999 1126c0 -40 7.83008 -78.9971 23.4971 -116.997s37.834 -72.333 66.501 -103
c28 -27.333 61.167 -49.333 99.5 -66s77.5 -25 117.5 -25c40.667 0 80.167 8 118.5 24s72 38.167 101 66.5s51.667 61.666 68 99.999s24.5 78.5 24.5 120.5c0 40 -7.66699 78.833 -23 116.5s-37.666 71 -66.999 100s-63.166 51.5 -101.499 67.5s-78.5 24 -120.5 24
c-54 0 -104.5 -13.833 -151.5 -41.5s-84.667 -65.334 -113 -113.001s-42.5 -98.834 -42.5 -153.501z" />
    <glyph glyph-name="plusminus" unicode="&#xb1;" 
d="M1159 881v-90h-500v-500h-90v500h-499v90h499v499h90v-499h500zM1159 188v-90h-1089v90h1089z" />
    <glyph glyph-name="twosuperior" unicode="&#xb2;" 
d="M471 758l372.998 0.000976562v-66h-455c0 56.667 4.16699 104.5 12.5 143.5s25.166 75.833 50.499 110.5c24 36 60.333 74.333 109 115l63 53c25.333 20.667 48 42 68 64c17.333 19.333 33 41 47 65c12.667 25.333 19 49.333 19 72c0 38.667 -10.667 68.834 -32 90.501
s-51.666 32.5 -90.999 32.5c-44.667 0 -79.334 -15.667 -104.001 -47c-12 -15.333 -21.5 -32.833 -28.5 -52.5s-10.5 -41.167 -10.5 -64.5h-82c0 34 5.5 64.667 16.5 92s26.833 52 47.5 74c39.333 42 94.333 63 165 63c40.667 0 75.834 -7.33301 105.501 -22
s53 -36.834 70 -66.501s25.5 -64.167 25.5 -103.5c0 -52.667 -15.5 -96.834 -46.5 -132.501s-85.167 -88.5 -162.5 -158.5c-53.333 -45.333 -92.666 -86.333 -117.999 -123c-13.333 -19.333 -23.666 -40.333 -30.999 -63s-11 -48 -11 -76z" />
    <glyph glyph-name="threesuperior" unicode="&#xb3;" 
d="M557 1090l-0.000976562 64.998l8 -2l8 -2c28.667 0 55.334 6.5 80.001 19.5s44.834 32 60.501 57s23.5 51.5 23.5 79.5c0 37.333 -14.167 68.5 -42.5 93.5s-61.833 37.5 -100.5 37.5c-33.333 0 -63.5 -10.667 -90.5 -32s-48.833 -49 -65.5 -83l-69 41
c15.333 29.333 35 54.5 59 75.5s50.5 36.833 79.5 47.5s60.5 16 94.5 16c61.333 0 112.833 -19.167 154.5 -57.5s62.5 -87.5 62.5 -147.5c0 -35.333 -10 -67.333 -30 -96s-46.667 -54 -80 -76c95.333 -43.333 143 -112.666 143 -207.999
c0 -70.667 -23.5 -128.667 -70.5 -174s-105.5 -68 -175.5 -68c-38.667 0 -72.834 5.5 -102.501 16.5s-55.834 27.167 -78.501 48.5s-45.667 50 -69 86l74 41c21.333 -42 45.333 -74 72 -96c28 -20.667 62.667 -31 104 -31c34 0 63 6.83301 87 20.5s43 32.834 57 57.501
c6.66699 12 11.667 24.833 15 38.5s5 29.5 5 47.5c0 62.667 -18.667 109.167 -56 139.5s-89.666 45.5 -156.999 45.5z" />
    <glyph glyph-name="acute" unicode="&#xb4;" 
d="M786 1503l74 -86l-356 -241l-45 61z" />
    <glyph glyph-name="mu" unicode="&#xb5;" 
d="M872 463l-0.00195312 598.001h99v-1061h-99v193h-4c-23.333 -59.333 -57 -110.5 -101 -153.5s-93.667 -64.5 -149 -64.5c-57.333 0 -108.166 19.5 -152.499 58.5s-79.5 87.833 -105.5 146.5h-4v-655h-94v1536h94v-631c0 -130.667 26.833 -224.834 80.5 -282.501
s111.5 -86.5 173.5 -86.5c40 0 79.833 11.833 119.5 35.5s73.334 66 101.001 127s41.5 140.833 41.5 239.5z" />
    <glyph glyph-name="paragraph" unicode="&#xb6;" 
d="M569 -233v917.001l-22 -2l-23 -2c-72.667 0 -140 16.833 -202 50.5s-111.333 80.5 -148 140.5s-55 128.667 -55 206c0 59.333 10.5 117.666 31.5 174.999s68.167 108.833 141.5 154.5s179.333 68.5 318 68.5h504v-82h-94v-1626h-98v1626h-254v-1626h-99z" />
    <glyph glyph-name="periodcentered" unicode="&#xb7;" 
d="M512 737c0 30 9.66602 54.667 28.999 74s43.666 29 72.999 29c14 0 27.5 -2.5 40.5 -7.5s23.833 -11.833 32.5 -20.5s15.834 -20.167 21.501 -34.5s8.5 -27.833 8.5 -40.5c0 -29.333 -9.66699 -53.666 -29 -72.999s-44 -29 -74 -29c-29.333 0 -53.666 9.66699 -72.999 29
s-29 43.666 -29 72.999z" />
    <glyph glyph-name="periodcentered" unicode="&#x2219;" 
d="M512 737c0 30 9.66602 54.667 28.999 74s43.666 29 72.999 29c14 0 27.5 -2.5 40.5 -7.5s23.833 -11.833 32.5 -20.5s15.834 -20.167 21.501 -34.5s8.5 -27.833 8.5 -40.5c0 -29.333 -9.66699 -53.666 -29 -72.999s-44 -29 -74 -29c-29.333 0 -53.666 9.66699 -72.999 29
s-29 43.666 -29 72.999z" />
    <glyph glyph-name="cedilla" unicode="&#xb8;" 
d="M610 29l74 -0.000976562l-49 -144c51.333 0 95.5 -11.167 132.5 -33.5s55.5 -57.5 55.5 -105.5c0 -28.667 -9 -55.167 -27 -79.5s-40.667 -42.166 -68 -53.499c-27.333 -12.667 -55.666 -19 -84.999 -19c-46 0 -110 18 -192 54l24 65l76 -24c28 -8.66699 52 -13 72 -13
c12.667 0 24.167 1.33301 34.5 4s22.166 8 35.499 16c24 13.333 36 31.333 36 54c0 25.333 -12 43 -36 53c-26 8.66699 -53.667 13 -83 13h-21c-6.66699 0 -15 -0.666992 -25 -2l-27 -2z" />
    <glyph glyph-name="onesuperior" unicode="&#xb9;" 
d="M659 1503v-766h148v-65h-381v65h152v668l-160 -49v74z" />
    <glyph glyph-name="ordmasculine" unicode="&#xba;" 
d="M860 717v-70h-487v70h487zM614 823c-84 0 -149.332 31.001 -195.999 93.001s-70 144.333 -70 247c0 94.667 21.667 175 65 241s110.333 99 201 99c87.333 0 154.333 -31.333 201 -94s70 -144.667 70 -246c0 -31.333 -2.33301 -61.333 -7 -90s-12 -56 -22 -82
c-18.667 -50.667 -48.334 -91.334 -89.001 -122.001s-91.667 -46 -153 -46zM614.001 893.001c46.667 0 84 13.001 112 39.001s47.833 59.667 59.5 101s17.5 84.666 17.5 129.999c0 75.333 -14.333 139.333 -43 192s-77.334 79 -146.001 79c-66.667 0 -114 -26.333 -142 -79
s-42 -116.667 -42 -192c0 -46 5.16699 -89 15.5 -129s29.333 -73.5 57 -100.5s64.834 -40.5 111.501 -40.5z" />
    <glyph glyph-name="guillemotright" unicode="&#xbb;" 
d="M127 1241l528 -512l-528 -512l-61 66l471 446l-471 451zM635 1241l528 -512l-528 -512l-62 66l471 446l-471 451z" />
    <glyph glyph-name="onequarter" unicode="&#xbc;" 
d="M352 1503v-766h148v-65h-381v65h151v668l-159 -49v74zM963 1503h81l-675 -1503h-82zM1061 811v-537h115v-65h-115v-209h-82v209h-324v49l299 553h107zM979 274v435h-4l-230 -435h234z" />
    <glyph glyph-name="onehalf" unicode="&#xbd;" 
d="M352 1503v-766h148v-65h-381v65h151v668l-159 -49v74zM930 1503h86l-680 -1503h-82zM778 66h372.998v-66h-455c0 56.667 4.16699 104.5 12.5 143.5s25.166 75.833 50.499 110.5c24 36 60.333 74.333 109 115l63 53c25.333 20.667 48 42 68 64c17.333 19.333 33 41 47 65
c12.667 25.333 19 49.333 19 72c0 37.333 -10.667 67 -32 89s-51.666 33 -90.999 33c-43.333 0 -78 -15.333 -104 -46c-12 -15.333 -21.5 -32.833 -28.5 -52.5s-10.5 -41.167 -10.5 -64.5h-82c0 34 5.5 64.667 16.5 92s26.833 52 47.5 74c39.333 42 94.333 63 165 63
c41.333 0 77 -7.33301 107 -22s53.167 -37 69.5 -67s24.5 -64.667 24.5 -104c0 -52 -15.5 -95.833 -46.5 -131.5s-85.167 -88.5 -162.5 -158.5c-53.333 -45.333 -92.666 -86.333 -117.999 -123c-13.333 -19.333 -23.666 -40.333 -30.999 -63s-11 -48 -11 -76z" />
    <glyph glyph-name="threequarters" unicode="&#xbe;" 
d="M963 1503h81l-675 -1503h-82zM1061 811v-537h115v-65h-115v-209h-82v209h-324v49l299 553h107zM979 274v435h-4l-230 -435h234zM250 1090l-0.000976562 64.998l8 -2l8 -2c28.667 0 55.334 6.5 80.001 19.5s44.834 32 60.501 57s23.5 51.5 23.5 79.5
c0 38 -14.333 69.333 -43 94s-62 37 -100 37c-33.333 0 -63.5 -10.667 -90.5 -32s-48.833 -49 -65.5 -83l-70 41c16 29.333 36 54.5 60 75.5s50.5 36.833 79.5 47.5s60.5 16 94.5 16c61.333 0 112.833 -19.167 154.5 -57.5s62.5 -87.5 62.5 -147.5
c0 -69.333 -37 -126.666 -111 -171.999c96 -43.333 144 -112.666 144 -207.999c0 -70.667 -23.5 -128.667 -70.5 -174s-105.5 -68 -175.5 -68c-38.667 0 -72.834 5.5 -102.501 16.5s-55.834 27.167 -78.501 48.5s-45.667 50 -69 86l74 41c21.333 -42 45.333 -74 72 -96
c28 -20.667 62.667 -31 104 -31c33.333 0 62 6.83301 86 20.5s43 32.5 57 56.5s21 53 21 87c0 62.667 -18.667 109.167 -56 139.5s-89.666 45.5 -156.999 45.5z" />
    <glyph glyph-name="questiondown" unicode="&#xbf;" 
d="M582 1016l94.002 0.000976562v-201c0 -50 -5.66699 -85.333 -17 -106c-14 -38.667 -65.667 -90.667 -155 -156c-43.333 -34 -74.666 -68.167 -93.999 -102.5s-29 -78.166 -29 -131.499c0 -78.667 22.667 -142.667 68 -192s106 -74 182 -74
c48.667 0 90.5 9.66699 125.5 29s63 47.666 84 84.999s31.5 77.333 31.5 120h103c-6 -66 -23.333 -122.167 -52 -168.5s-68.334 -82.5 -119.001 -108.5s-108.334 -39 -173.001 -39c-72 0 -134.167 14.5 -186.5 43.5s-92.333 70 -120 123s-41.5 115.167 -41.5 186.5
c0 74 13.167 132 39.5 174s73.166 89 140.499 141c40 31.333 67.833 56.166 83.5 74.499s25.5 38.833 29.5 61.5s6 62 6 118v123zM471.002 1364c0 39.333 13.332 72.333 39.999 99s59.667 40 99 40c23.333 0 46 -6 68 -18s39.5 -28.667 52.5 -50s19.5 -45 19.5 -71
c0 -24.667 -6.33301 -47.167 -19 -67.5s-30.167 -36.666 -52.5 -48.999s-45.166 -18.5 -68.499 -18.5c-38.667 0 -71.5 13.167 -98.5 39.5s-40.5 58.166 -40.5 95.499z" />
    <glyph glyph-name="Agrave" unicode="&#xc0;" 
d="M618 1536l492 -1536h-106l-136 451h-499l-136 -451h-106zM618 1274l-229 -742h459zM446 1896l324 -266l-45 -61l-356 241z" />
    <glyph glyph-name="Aacute" unicode="&#xc1;" 
d="M618 1536l492 -1536h-106l-136 451h-499l-136 -451h-106zM618 1274l-229 -742h459zM827 1896l74 -86l-356 -241l-45 61z" />
    <glyph glyph-name="Acircumflex" unicode="&#xc2;" 
d="M618 1536l492 -1536h-106l-136 451h-499l-136 -451h-106zM618 1274l-229 -742h459zM614 1774l-286 -213l-45 49l331 291l336 -291l-49 -49z" />
    <glyph glyph-name="Atilde" unicode="&#xc3;" 
d="M618 1536l492 -1536h-106l-136 451h-499l-136 -451h-106zM618 1274l-229 -742h459zM918 1810l72.999 -32.002c-16.667 -42.667 -43.5 -80 -80.5 -112s-78.5 -48 -124.5 -48c-29.333 0 -56 5.16699 -80 15.5s-54.667 26.833 -92 49.5
c-30 20.667 -56.167 36.834 -78.5 48.501s-47.833 17.5 -76.5 17.5c-55.333 0 -104.666 -45 -147.999 -135l-73 24c58 128.667 134.333 193 229 193c30 0 56.833 -5.66699 80.5 -17s51.5 -27.666 83.5 -48.999l47 -28c20 -10.667 39 -19.667 57 -27
c20 -6.66699 35.667 -10 47 -10c58 0 103.333 36.667 136 110z" />
    <glyph glyph-name="Adieresis" unicode="&#xc4;" 
d="M618 1536l492 -1536h-106l-136 451h-499l-136 -451h-106zM618 1274l-229 -742h459zM311 1729c0 30 11.501 56.498 34.501 79.498s49.833 34.5 80.5 34.5c21.333 0 40.666 -5.33301 57.999 -16c18.667 -10 32.667 -23.667 42 -41c10 -16 15 -35 15 -57
c0 -21.333 -5 -40.666 -15 -57.999s-23.333 -31.166 -40 -41.499s-36.667 -15.5 -60 -15.5c-30.667 0 -57.5 11.167 -80.5 33.5s-34.5 49.5 -34.5 81.5zM688.001 1729c0 20.667 5 39.5 15 56.5s23.667 30.833 41 41.5c19.333 10.667 39 16 59 16
c30 0 56.667 -11.167 80 -33.5s35 -49.166 35 -80.499c0 -32.667 -11.333 -60.334 -34 -83.001c-22.667 -21.333 -49.667 -32 -81 -32c-21.333 0 -40.5 4.83301 -57.5 14.5s-31.167 23.167 -42.5 40.5c-10 17.333 -15 37.333 -15 60z" />
    <glyph glyph-name="Aring" unicode="&#xc5;" 
d="M618 1536l492 -1536h-106l-136 451h-499l-136 -451h-106zM618 1274l-229 -742h459zM446 1688c0 46 16.833 85.335 50.5 118.002s72.834 49 117.501 49c48 0 88 -16 120 -48s48 -71.667 48 -119c0 -44.667 -16 -83.834 -48 -117.501s-72 -50.5 -120 -50.5
c-44.667 0 -83.834 17.167 -117.501 51.5s-50.5 73.166 -50.5 116.499zM520 1688c0 -16 4.16797 -31.167 12.501 -45.5s20.166 -26.5 35.499 -36.5c4 -2 10.333 -4.66699 19 -8s17.667 -5 27 -5c26.667 0 49.167 9.16699 67.5 27.5s27.5 40.833 27.5 67.5
c0 25.333 -9 47.333 -27 66s-40.667 28 -68 28c-24.667 0 -46.5 -9.16699 -65.5 -27.5s-28.5 -40.5 -28.5 -66.5z" />
    <glyph glyph-name="AE" unicode="&#xc6;" 
d="M471 1475h635v-82h-426v-586h299v-82h-299v-643h442v-82h-536v455h-299l-115 -455h-106zM586 537v856h-54l-221 -856h275z" />
    <glyph glyph-name="Ccedilla" unicode="&#xc7;" 
d="M1008 1196h-95.0029c0 22 -3.16699 42.167 -9.5 60.5s-15.833 36.833 -28.5 55.5c-21.333 33.333 -50.5 59.833 -87.5 79.5s-76.833 29.5 -119.5 29.5c-102.667 0 -181.167 -36.667 -235.5 -110s-90.166 -161.5 -107.499 -264.5s-26 -208.833 -26 -317.5
c0 -114 7.5 -218.833 22.5 -314.5s48.833 -179.834 101.5 -252.501s130 -109 232 -109c76.667 0 141.334 25.333 194.001 76c27.333 26 48.333 54.667 63 86s22 66 22 104h94c-10 -106 -46.667 -190 -110 -252c-32 -31.333 -69.167 -55.166 -111.5 -71.499
s-89.833 -24.5 -142.5 -24.5l-29 -86c51.333 0 95.5 -11.167 132.5 -33.5s55.5 -57.5 55.5 -105.5c0 -28.667 -9 -55.167 -27 -79.5s-40.667 -42.166 -68 -53.499c-27.333 -12.667 -55.666 -19 -84.999 -19c-46 0 -110 18 -192 54l24 65l76 -24c28 -8.66699 52 -13 72 -13
c12.667 0 24.167 1.33301 34.5 4s22.166 8 35.499 16c24 13.333 36 31.333 36 54c0 25.333 -12 43 -36 53c-26 8.66699 -53.667 13 -83 13h-21c-6.66699 0 -15 -0.666992 -25 -2l-27 -2l53 163c-149.333 18 -252.166 99.167 -308.499 243.5s-84.5 310.5 -84.5 498.5
c0 44.667 1.33301 89.667 4 135s7 90.666 13 135.999c12 90 34.167 173.5 66.5 250.5s80.333 140.333 144 190s144.834 74.5 243.501 74.5c57.333 0 111.333 -13 162 -39s91.167 -61.833 121.5 -107.5s49.166 -99.167 56.499 -160.5z" />
    <glyph glyph-name="Egrave" unicode="&#xc8;" 
d="M1032 1475v-82h-626v-594h450v-82h-450v-635h638v-82h-733v1475h721zM467 1896l324 -266l-46 -61l-356 241z" />
    <glyph glyph-name="Eacute" unicode="&#xc9;" 
d="M1032 1475v-82h-626v-594h450v-82h-450v-635h638v-82h-733v1475h721zM827 1896l74 -86l-356 -241l-45 61z" />
    <glyph glyph-name="Ecircumflex" unicode="&#xca;" 
d="M1032 1475v-82h-626v-594h450v-82h-450v-635h638v-82h-733v1475h721zM655 1774l-286 -213l-45 49l331 291l336 -291l-49 -49z" />
    <glyph glyph-name="Edieresis" unicode="&#xcb;" 
d="M1032 1475v-82h-626v-594h450v-82h-450v-635h638v-82h-733v1475h721zM344 1729c0 20.667 5 39.501 15 56.501s23.667 30.833 41 41.5c19.333 10.667 39 16 59 16s38.667 -5.16699 56 -15.5s31.333 -24.5 42 -42.5s16 -36.667 16 -56
c0 -20.667 -5.16699 -39.834 -15.5 -57.501s-23.833 -31.667 -40.5 -42s-36 -15.5 -58 -15.5c-21.333 0 -40.5 4.83301 -57.5 14.5s-31.167 23.167 -42.5 40.5c-10 17.333 -15 37.333 -15 60zM717 1729c0 30 11.333 56.498 34 79.498s49.334 34.5 80.001 34.5
c21.333 0 40.666 -5.33301 57.999 -16c18.667 -10 32.667 -23.667 42 -41c10 -16 15 -35 15 -57c0 -21.333 -5 -40.666 -15 -57.999s-23.333 -31.166 -40 -41.499s-36.667 -15.5 -60 -15.5c-32 0 -59 10.833 -81 32.5s-33 49.167 -33 82.5z" />
    <glyph glyph-name="Igrave" unicode="&#xcc;" 
d="M868 1475v-82h-204v-1311h204v-82h-508v82h205v1311h-205v82h508zM446 1896l324 -266l-45 -61l-356 241z" />
    <glyph glyph-name="Iacute" unicode="&#xcd;" 
d="M868 1475v-82h-204v-1311h204v-82h-508v82h205v1311h-205v82h508zM786 1896l74 -86l-356 -241l-45 61z" />
    <glyph glyph-name="Icircumflex" unicode="&#xce;" 
d="M868 1475v-82h-204v-1311h204v-82h-508v82h205v1311h-205v82h508zM614 1774l-286 -213l-45 49l331 291l336 -291l-49 -49z" />
    <glyph glyph-name="Idieresis" unicode="&#xcf;" 
d="M868 1475v-82h-204v-1311h204v-82h-508v82h205v1311h-205v82h508zM311 1729c0 30 11.501 56.498 34.501 79.498s49.833 34.5 80.5 34.5c21.333 0 40.666 -5.33301 57.999 -16c18.667 -10 32.667 -23.667 42 -41c10 -16 15 -35 15 -57c0 -21.333 -5 -40.666 -15 -57.999
s-23.333 -31.166 -40 -41.499s-36.667 -15.5 -60 -15.5c-30.667 0 -57.5 11.167 -80.5 33.5s-34.5 49.5 -34.5 81.5zM688.001 1729c0 20.667 5 39.5 15 56.5s23.667 30.833 41 41.5c19.333 10.667 39 16 59 16c30 0 56.667 -11.167 80 -33.5s35 -49.166 35 -80.499
c0 -32.667 -11.333 -60.334 -34 -83.001c-22.667 -21.333 -49.667 -32 -81 -32c-21.333 0 -40.5 4.83301 -57.5 14.5s-31.167 23.167 -42.5 40.5c-10 17.333 -15 37.333 -15 60z" />
    <glyph glyph-name="Eth" unicode="&#xd0;" 
d="M975 631l-357.004 -0.000976562v82h451v-742h-94v234h-4c-21.333 -69.333 -65.166 -125.666 -131.499 -168.999s-137.166 -65 -212.499 -65c-130 0 -232.833 54.167 -308.5 162.5s-113.5 294.5 -113.5 558.5c0 209.333 18.667 373.333 56 492s88.5 201.5 153.5 248.5
s142.5 70.5 232.5 70.5c76 0 139.333 -15.333 190 -46s89.334 -73 116.001 -127s43.667 -117.667 51 -191h-103v16c0 45.333 -9.66699 88.5 -29 129.5s-47.666 74.167 -84.999 99.5c-17.333 12 -36.833 21.167 -58.5 27.5s-44.834 9.5 -69.501 9.5
c-104 0 -182 -37 -234 -111s-85 -160.667 -99 -260c-6 -48.667 -10.667 -99.834 -14 -153.501s-5 -110.834 -5 -171.501c0 -181.333 20 -338.666 60 -471.999s129.333 -200 268 -200c58 0 112.333 14.5 163 43.5s92.834 77.833 126.501 146.5s50.5 158.334 50.5 269.001v119
zM290.996 1823h90c12 -109.333 99.333 -164 262 -164c162 0 249.333 54.667 262 164h90c-18 -164 -130 -246 -336 -246c-92.667 0 -165.167 11.833 -217.5 35.5s-88 52.667 -107 87s-33.5 75.5 -43.5 123.5z" />
    <glyph glyph-name="Ntilde" unicode="&#xd1;" 
d="M897 -16l-541 1359l-4 -4v-1339h-94v1475h139l500 -1262l4 4v1258h98v-1491h-102zM918 1810l72.999 -32.002c-16.667 -42.667 -43.5 -80 -80.5 -112s-78.5 -48 -124.5 -48c-29.333 0 -56 5.16699 -80 15.5s-54.667 26.833 -92 49.5
c-30 20.667 -56.167 36.834 -78.5 48.501s-47.833 17.5 -76.5 17.5c-55.333 0 -104.666 -45 -147.999 -135l-73 24c58 128.667 134.333 193 229 193c30 0 56.833 -5.66699 80.5 -17s51.5 -27.666 83.5 -48.999l47 -28c20 -10.667 39 -19.667 57 -27
c20 -6.66699 35.667 -10 47 -10c58 0 103.333 36.667 136 110z" />
    <glyph glyph-name="Ograve" unicode="&#xd2;" 
d="M618 -29c-62.667 0 -119.999 11.167 -171.999 33.5s-97.667 61.5 -137 117.5s-71 135 -95 237c-10.667 49.333 -19 106.166 -25 170.499s-9 133.5 -9 207.5c0 135.333 10 258.833 30 370.5s62.167 205.5 126.5 281.5s158.166 114 281.499 114
c102 0 183.333 -26.167 244 -78.5s105 -118.833 133 -199.5c16 -48 28.167 -89.667 36.5 -125s12.5 -71.333 12.5 -108c0 -31.333 0.666992 -60.666 2 -87.999c4.66699 -96 7 -151.667 7 -167c0 -198 -18.667 -353.5 -56 -466.5s-87.833 -191.167 -151.5 -234.5
s-139.5 -65 -227.5 -65zM283.001 737c0 -131.333 8.5 -242.168 25.5 -332.501s40.5 -160.833 70.5 -211.5s65.5 -86.667 106.5 -108s85.167 -32 132.5 -32c106.667 0 188.667 52 246 156s86 280 86 528c0 133.333 -8.16699 245.5 -24.5 336.5s-38.833 161.167 -67.5 210.5
s-63 84.5 -103 105.5s-85.667 31.5 -137 31.5c-73.333 0 -134.333 -22 -183 -66s-86.167 -117.667 -112.5 -221s-39.5 -235.666 -39.5 -396.999zM446.001 1896l324 -266l-45 -61l-356 241z" />
    <glyph glyph-name="Oacute" unicode="&#xd3;" 
d="M618 -29c-62.667 0 -119.999 11.167 -171.999 33.5s-97.667 61.5 -137 117.5s-71 135 -95 237c-10.667 49.333 -19 106.166 -25 170.499s-9 133.5 -9 207.5c0 135.333 10 258.833 30 370.5s62.167 205.5 126.5 281.5s158.166 114 281.499 114
c102 0 183.333 -26.167 244 -78.5s105 -118.833 133 -199.5c16 -48 28.167 -89.667 36.5 -125s12.5 -71.333 12.5 -108c0 -31.333 0.666992 -60.666 2 -87.999c4.66699 -96 7 -151.667 7 -167c0 -198 -18.667 -353.5 -56 -466.5s-87.833 -191.167 -151.5 -234.5
s-139.5 -65 -227.5 -65zM283.001 737c0 -131.333 8.5 -242.168 25.5 -332.501s40.5 -160.833 70.5 -211.5s65.5 -86.667 106.5 -108s85.167 -32 132.5 -32c106.667 0 188.667 52 246 156s86 280 86 528c0 133.333 -8.16699 245.5 -24.5 336.5s-38.833 161.167 -67.5 210.5
s-63 84.5 -103 105.5s-85.667 31.5 -137 31.5c-73.333 0 -134.333 -22 -183 -66s-86.167 -117.667 -112.5 -221s-39.5 -235.666 -39.5 -396.999zM786.001 1896l74 -86l-356 -241l-45 61z" />
    <glyph glyph-name="Ocircumflex" unicode="&#xd4;" 
d="M618 -29c-62.667 0 -119.999 11.167 -171.999 33.5s-97.667 61.5 -137 117.5s-71 135 -95 237c-10.667 49.333 -19 106.166 -25 170.499s-9 133.5 -9 207.5c0 135.333 10 258.833 30 370.5s62.167 205.5 126.5 281.5s158.166 114 281.499 114
c102 0 183.333 -26.167 244 -78.5s105 -118.833 133 -199.5c16 -48 28.167 -89.667 36.5 -125s12.5 -71.333 12.5 -108c0 -31.333 0.666992 -60.666 2 -87.999c4.66699 -96 7 -151.667 7 -167c0 -198 -18.667 -353.5 -56 -466.5s-87.833 -191.167 -151.5 -234.5
s-139.5 -65 -227.5 -65zM283.001 737c0 -131.333 8.5 -242.168 25.5 -332.501s40.5 -160.833 70.5 -211.5s65.5 -86.667 106.5 -108s85.167 -32 132.5 -32c106.667 0 188.667 52 246 156s86 280 86 528c0 133.333 -8.16699 245.5 -24.5 336.5s-38.833 161.167 -67.5 210.5
s-63 84.5 -103 105.5s-85.667 31.5 -137 31.5c-73.333 0 -134.333 -22 -183 -66s-86.167 -117.667 -112.5 -221s-39.5 -235.666 -39.5 -396.999zM614.001 1774l-286 -213l-45 49l331 291l336 -291l-49 -49z" />
    <glyph glyph-name="Otilde" unicode="&#xd5;" 
d="M618 -29c-62.667 0 -119.999 11.167 -171.999 33.5s-97.667 61.5 -137 117.5s-71 135 -95 237c-10.667 49.333 -19 106.166 -25 170.499s-9 133.5 -9 207.5c0 135.333 10 258.833 30 370.5s62.167 205.5 126.5 281.5s158.166 114 281.499 114
c102 0 183.333 -26.167 244 -78.5s105 -118.833 133 -199.5c16 -48 28.167 -89.667 36.5 -125s12.5 -71.333 12.5 -108c0 -31.333 0.666992 -60.666 2 -87.999c4.66699 -96 7 -151.667 7 -167c0 -198 -18.667 -353.5 -56 -466.5s-87.833 -191.167 -151.5 -234.5
s-139.5 -65 -227.5 -65zM283.001 737c0 -131.333 8.5 -242.168 25.5 -332.501s40.5 -160.833 70.5 -211.5s65.5 -86.667 106.5 -108s85.167 -32 132.5 -32c106.667 0 188.667 52 246 156s86 280 86 528c0 133.333 -8.16699 245.5 -24.5 336.5s-38.833 161.167 -67.5 210.5
s-63 84.5 -103 105.5s-85.667 31.5 -137 31.5c-73.333 0 -134.333 -22 -183 -66s-86.167 -117.667 -112.5 -221s-39.5 -235.666 -39.5 -396.999zM918.001 1810l72.999 -32.002c-16.667 -42.667 -43.5 -80 -80.5 -112s-78.5 -48 -124.5 -48c-29.333 0 -56 5.16699 -80 15.5
s-54.667 26.833 -92 49.5c-30 20.667 -56.167 36.834 -78.5 48.501s-47.833 17.5 -76.5 17.5c-55.333 0 -104.666 -45 -147.999 -135l-73 24c58 128.667 134.333 193 229 193c30 0 56.833 -5.66699 80.5 -17s51.5 -27.666 83.5 -48.999l47 -28c20 -10.667 39 -19.667 57 -27
c20 -6.66699 35.667 -10 47 -10c58 0 103.333 36.667 136 110z" />
    <glyph glyph-name="Odieresis" unicode="&#xd6;" 
d="M618 -29c-62.667 0 -119.999 11.167 -171.999 33.5s-97.667 61.5 -137 117.5s-71 135 -95 237c-10.667 49.333 -19 106.166 -25 170.499s-9 133.5 -9 207.5c0 135.333 10 258.833 30 370.5s62.167 205.5 126.5 281.5s158.166 114 281.499 114
c102 0 183.333 -26.167 244 -78.5s105 -118.833 133 -199.5c16 -48 28.167 -89.667 36.5 -125s12.5 -71.333 12.5 -108c0 -31.333 0.666992 -60.666 2 -87.999c4.66699 -96 7 -151.667 7 -167c0 -198 -18.667 -353.5 -56 -466.5s-87.833 -191.167 -151.5 -234.5
s-139.5 -65 -227.5 -65zM283.001 737c0 -131.333 8.5 -242.168 25.5 -332.501s40.5 -160.833 70.5 -211.5s65.5 -86.667 106.5 -108s85.167 -32 132.5 -32c106.667 0 188.667 52 246 156s86 280 86 528c0 133.333 -8.16699 245.5 -24.5 336.5s-38.833 161.167 -67.5 210.5
s-63 84.5 -103 105.5s-85.667 31.5 -137 31.5c-73.333 0 -134.333 -22 -183 -66s-86.167 -117.667 -112.5 -221s-39.5 -235.666 -39.5 -396.999zM311.001 1729c0 30 11.501 56.498 34.501 79.498s49.833 34.5 80.5 34.5c21.333 0 40.666 -5.33301 57.999 -16
c18.667 -10 32.667 -23.667 42 -41c10 -16 15 -35 15 -57c0 -21.333 -5 -40.666 -15 -57.999s-23.333 -31.166 -40 -41.499s-36.667 -15.5 -60 -15.5c-30.667 0 -57.5 11.167 -80.5 33.5s-34.5 49.5 -34.5 81.5zM688.002 1729c0 20.667 5 39.5 15 56.5
s23.667 30.833 41 41.5c19.333 10.667 39 16 59 16c30 0 56.667 -11.167 80 -33.5s35 -49.166 35 -80.499c0 -32.667 -11.333 -60.334 -34 -83.001c-22.667 -21.333 -49.667 -32 -81 -32c-21.333 0 -40.5 4.83301 -57.5 14.5s-31.167 23.167 -42.5 40.5
c-10 17.333 -15 37.333 -15 60z" />
    <glyph glyph-name="multiply" unicode="&#xd7;" 
d="M1159 258l-61 -65l-484 483l-479 -483l-65 65l483 479l-483 484l65 61l479 -479l484 479l61 -61l-479 -484z" />
    <glyph glyph-name="Oslash" unicode="&#xd8;" 
d="M909 1159l-536 -962.002c27.333 -44.667 62.333 -80 105 -106c20 -12 41.667 -21.333 65 -28s47 -10 71 -10c86 0 154 30.167 204 90.5s84.5 142.5 103.5 246.5s28.5 224 28.5 360l-3 150c0 36.667 -3.33301 78.334 -10 125.001s-16 91.334 -28 134.001zM332 286.998
l540.003 970c-26.667 48.667 -62.334 88.167 -107.001 118.5s-95 45.5 -151 45.5c-94.667 0 -166.834 -32 -216.501 -96s-81.834 -141.167 -96.501 -231.5s-22 -184.5 -22 -282.5l2 -44l2 -42c0 -192 16.333 -338 49 -438zM926.003 1348l69.002 126.999l70 -41l-94 -164
c54.667 -127.333 82 -300.666 82 -519.999c0 -65.333 -2 -127 -6 -185s-10.667 -115.667 -20 -173c-17.333 -110 -58.333 -208 -123 -294c-32 -42 -72 -73.667 -120 -95s-104.667 -32 -170 -32c-56.667 0 -109.667 11.5 -159 34.5s-93 56.5 -131 100.5l-86 -155l-70 41
l106 188c-18.667 38.667 -35.334 81.334 -50.001 128.001c-6 22 -11.167 43.667 -15.5 65s-8.33301 44.5 -12 69.5s-6.83398 49.833 -9.50098 74.5s-4 47.667 -4 69l-3 139c0 98.667 3.33301 186.667 10 264c0 36.667 5 77 15 121c7.33301 32.667 19.333 72.667 36 120
c28 79.333 72.167 144.666 132.5 195.999s140.5 77 240.5 77c39.333 0 79 -5.83301 119 -17.5s75.667 -29 107 -52s60 -51.5 86 -85.5z" />
    <glyph glyph-name="Ugrave" unicode="&#xd9;" 
d="M905 1475l94 0.000976562v-1094c0 -90.667 -19.167 -166.5 -57.5 -227.5s-88.166 -107.167 -149.499 -138.5c-30 -14.667 -59.333 -25.667 -88 -33s-58.667 -11 -90 -11c-64.667 0 -127.334 17 -188.001 51s-109.334 80.833 -146.001 140.5s-55 124.167 -55 193.5v1119
h99v-1045c0 -46 3 -87 9 -123s15.667 -68.667 29 -98c25.333 -54.667 59.5 -94.334 102.5 -119.001s92.833 -37 149.5 -37c57.333 0 107.833 12 151.5 36s77.834 62.5 102.501 115.5s37 117.167 37 192.5v1078zM446 1896l324 -266l-45 -61l-356 241z" />
    <glyph glyph-name="Uacute" unicode="&#xda;" 
d="M905 1475l94 0.000976562v-1094c0 -90.667 -19.167 -166.5 -57.5 -227.5s-88.166 -107.167 -149.499 -138.5c-30 -14.667 -59.333 -25.667 -88 -33s-58.667 -11 -90 -11c-64.667 0 -127.334 17 -188.001 51s-109.334 80.833 -146.001 140.5s-55 124.167 -55 193.5v1119
h99v-1045c0 -46 3 -87 9 -123s15.667 -68.667 29 -98c25.333 -54.667 59.5 -94.334 102.5 -119.001s92.833 -37 149.5 -37c57.333 0 107.833 12 151.5 36s77.834 62.5 102.501 115.5s37 117.167 37 192.5v1078zM786 1896l74 -86l-356 -241l-45 61z" />
    <glyph glyph-name="Ucircumflex" unicode="&#xdb;" 
d="M905 1475l94 0.000976562v-1094c0 -90.667 -19.167 -166.5 -57.5 -227.5s-88.166 -107.167 -149.499 -138.5c-30 -14.667 -59.333 -25.667 -88 -33s-58.667 -11 -90 -11c-64.667 0 -127.334 17 -188.001 51s-109.334 80.833 -146.001 140.5s-55 124.167 -55 193.5v1119
h99v-1045c0 -46 3 -87 9 -123s15.667 -68.667 29 -98c25.333 -54.667 59.5 -94.334 102.5 -119.001s92.833 -37 149.5 -37c57.333 0 107.833 12 151.5 36s77.834 62.5 102.501 115.5s37 117.167 37 192.5v1078zM614 1774l-286 -213l-45 49l331 291l336 -291l-49 -49z" />
    <glyph glyph-name="Udieresis" unicode="&#xdc;" 
d="M905 1475l94 0.000976562v-1094c0 -90.667 -19.167 -166.5 -57.5 -227.5s-88.166 -107.167 -149.499 -138.5c-30 -14.667 -59.333 -25.667 -88 -33s-58.667 -11 -90 -11c-64.667 0 -127.334 17 -188.001 51s-109.334 80.833 -146.001 140.5s-55 124.167 -55 193.5v1119
h99v-1045c0 -46 3 -87 9 -123s15.667 -68.667 29 -98c25.333 -54.667 59.5 -94.334 102.5 -119.001s92.833 -37 149.5 -37c57.333 0 107.833 12 151.5 36s77.834 62.5 102.501 115.5s37 117.167 37 192.5v1078zM311 1729c0 30 11.501 56.498 34.501 79.498
s49.833 34.5 80.5 34.5c21.333 0 40.666 -5.33301 57.999 -16c18.667 -10 32.667 -23.667 42 -41c10 -16 15 -35 15 -57c0 -21.333 -5 -40.666 -15 -57.999s-23.333 -31.166 -40 -41.499s-36.667 -15.5 -60 -15.5c-30.667 0 -57.5 11.167 -80.5 33.5s-34.5 49.5 -34.5 81.5z
M688.001 1729c0 20.667 5 39.5 15 56.5s23.667 30.833 41 41.5c19.333 10.667 39 16 59 16c30 0 56.667 -11.167 80 -33.5s35 -49.166 35 -80.499c0 -32.667 -11.333 -60.334 -34 -83.001c-22.667 -21.333 -49.667 -32 -81 -32c-21.333 0 -40.5 4.83301 -57.5 14.5
s-31.167 23.167 -42.5 40.5c-10 17.333 -15 37.333 -15 60z" />
    <glyph glyph-name="Yacute" unicode="&#xdd;" 
d="M868 1475v-82h-204v-1311h204v-82h-508v82h205v1311h-205v82h508zM475 1724c0 36 13.332 68.333 39.999 97s58.334 43 95.001 43c26.667 0 50.167 -6.5 70.5 -19.5s37 -30.5 50 -52.5s19.5 -44.667 19.5 -68c0 -24 -6.16699 -46.833 -18.5 -68.5
s-29.333 -38.834 -51 -51.501s-45.167 -19 -70.5 -19c-36 0 -67.667 13.667 -95 41c-13.333 14.667 -23.333 29.834 -30 45.501s-10 33.167 -10 52.5z" />
    <glyph glyph-name="Thorn" unicode="&#xde;" 
d="M999 1339l-57.0039 -73.0029c-56 50 -109.667 88.333 -161 115s-105.666 40 -162.999 40c-49.333 0 -95.166 -10.833 -137.499 -32.5s-75.666 -52.167 -99.999 -91.5s-36.5 -84 -36.5 -134c0 -40.667 6.83301 -76.167 20.5 -106.5s36.834 -60.833 69.501 -91.5
c30 -28 78 -61.667 144 -101l118 -73c127.333 -74.667 215.833 -139.667 265.5 -195s74.5 -127 74.5 -215c0 -32 -2.33301 -62.167 -7 -90.5s-12 -55.166 -22 -80.499c-19.333 -50.667 -47.166 -93.667 -83.499 -129s-81 -62.5 -134 -81.5s-110.167 -28.5 -171.5 -28.5
c-83.333 0 -159.5 18.333 -228.5 55s-130.5 90.667 -184.5 162l74 62c41.333 -60.667 91.666 -108.667 150.999 -144s122 -53 188 -53c56 0 108.333 13 157 39s87.334 62.667 116.001 110c14 23.333 24.667 47.5 32 72.5s11 52.167 11 81.5c0 52.667 -5.66699 94 -17 124
c-10 30.667 -35.167 63.667 -75.5 99s-105.166 80 -194.499 134l-139 82c-42.667 27.333 -79 52.333 -109 75c-26 19.333 -51.833 43.833 -77.5 73.5s-45.334 61.834 -59.001 96.501s-20.5 73 -20.5 115c0 70.667 16.5 132.334 49.5 185.001s78.667 93 137 121
s123.166 42 194.499 42c128.667 0 254 -54.667 376 -164zM609.996 -16.0029h74l-49 -144c28 0 52.167 -2.33301 72.5 -7s40.5 -13 60.5 -25c36.667 -22.667 55 -58.334 55 -107.001c0 -28.667 -9 -55.167 -27 -79.5s-40.667 -42.166 -68 -53.499
c-27.333 -12.667 -55.666 -19 -84.999 -19c-46 0 -110 18 -192 54l24 65l76 -24c28 -8.66699 52 -13 72 -13c12.667 0 24.167 1.33301 34.5 4s22.166 8 35.499 16c24 13.333 36 31.333 36 54c0 25.333 -12 43 -36 53c-26 8.66699 -53.667 13 -83 13h-21
c-6.66699 0 -15 -0.666992 -25 -2l-27 -2z" />
    <glyph glyph-name="germandbls" unicode="&#xdf;" 
d="M541 745l0.00195312 81.999c43.333 0 83.333 8.16699 120 24.5s70 39.833 100 70.5c58 58 87 131.667 87 221c0 47.333 -9.83301 92.333 -29.5 135s-48.334 77.167 -86.001 103.5s-81.167 39.5 -130.5 39.5c-64 0 -113.5 -21.5 -148.5 -64.5s-52.5 -103.167 -52.5 -180.5
v-1176h-98v1192c0 44.667 12.5 90.834 37.5 138.501s61 88.334 108 122.001s100.833 50.5 161.5 50.5c66.667 0 125 -16.5 175 -49.5s88.667 -78.167 116 -135.5s41 -118.333 41 -183c0 -74.667 -18.167 -140.334 -54.5 -197.001s-87.833 -104.334 -154.5 -143.001
c95.333 -32 164.333 -82 207 -150s64 -154.667 64 -260c0 -132 -30.167 -233.333 -90.5 -304s-135.5 -106 -225.5 -106c-58 0 -112.667 19.333 -164 58l45 69c42.667 -27.333 85 -41 127 -41c40 0 76 13.333 108 40s56.833 64.334 74.5 113.001s26.5 103 26.5 163
c0 125.333 -30 216 -90 272c-32.667 30 -70.334 53 -113.001 69c-48 18 -101.667 27 -161 27z" />
    <glyph glyph-name="agrave" unicode="&#xe0;" 
d="M811 279l-0.00292969 281.998c-88 44 -165.667 66 -233 66c-56 0 -103.167 -14.167 -141.5 -42.5s-66.666 -66.666 -84.999 -114.999s-27.5 -99.833 -27.5 -154.5c0 -42 7.83301 -82.667 23.5 -122s39.5 -71.166 71.5 -95.499s68.333 -36.5 109 -36.5
c60.667 0 112.834 19.167 156.501 57.5s85.834 91.833 126.501 160.5zM953.997 -12.002l-86 -13.002c-12 36.667 -21.833 71.667 -29.5 105s-11.5 61.333 -11.5 84c-30 -42 -58.167 -76.167 -84.5 -102.5s-58.166 -47.5 -95.499 -63.5
c-17.333 -7.33301 -35.833 -13 -55.5 -17s-40.834 -6 -63.501 -6c-62.667 0 -116.334 15.667 -161.001 47s-78.834 73.333 -102.501 126s-35.5 111.334 -35.5 176.001c0 52.667 7.16699 102 21.5 148s35.5 87 63.5 123s62 64 102 84s85.667 30 137 30
c42 0 86.333 -7.16699 133 -21.5s91 -31.833 133 -52.5v29c0 83.333 -6.66699 151.5 -20 204.5s-36.333 92.167 -69 117.5s-76.667 38 -132 38c-44 0 -86.167 -6.16699 -126.5 -18.5s-85.5 -29.5 -135.5 -51.5l-21 86c112 44 207.667 66 287 66
c49.333 0 92.833 -8.16699 130.5 -24.5s69.834 -39.833 96.501 -70.5s47.334 -68.5 62.001 -113.5s22 -95.833 22 -152.5v-20l-6 -202l-6 -240c0 -38.667 4.33301 -82.667 13 -132s22 -103.666 40 -162.999zM445.997 1503l324 -266l-45 -61l-356 241z" />
    <glyph glyph-name="aacute" unicode="&#xe1;" 
d="M811 279l-0.00292969 281.998c-88 44 -165.667 66 -233 66c-56 0 -103.167 -14.167 -141.5 -42.5s-66.666 -66.666 -84.999 -114.999s-27.5 -99.833 -27.5 -154.5c0 -42 7.83301 -82.667 23.5 -122s39.5 -71.166 71.5 -95.499s68.333 -36.5 109 -36.5
c60.667 0 112.834 19.167 156.501 57.5s85.834 91.833 126.501 160.5zM953.997 -12.002l-86 -13.002c-12 36.667 -21.833 71.667 -29.5 105s-11.5 61.333 -11.5 84c-30 -42 -58.167 -76.167 -84.5 -102.5s-58.166 -47.5 -95.499 -63.5
c-17.333 -7.33301 -35.833 -13 -55.5 -17s-40.834 -6 -63.501 -6c-62.667 0 -116.334 15.667 -161.001 47s-78.834 73.333 -102.501 126s-35.5 111.334 -35.5 176.001c0 52.667 7.16699 102 21.5 148s35.5 87 63.5 123s62 64 102 84s85.667 30 137 30
c42 0 86.333 -7.16699 133 -21.5s91 -31.833 133 -52.5v29c0 83.333 -6.66699 151.5 -20 204.5s-36.333 92.167 -69 117.5s-76.667 38 -132 38c-44 0 -86.167 -6.16699 -126.5 -18.5s-85.5 -29.5 -135.5 -51.5l-21 86c112 44 207.667 66 287 66
c49.333 0 92.833 -8.16699 130.5 -24.5s69.834 -39.833 96.501 -70.5s47.334 -68.5 62.001 -113.5s22 -95.833 22 -152.5v-20l-6 -202l-6 -240c0 -38.667 4.33301 -82.667 13 -132s22 -103.666 40 -162.999zM806.997 1503l74 -86l-357 -241l-45 61z" />
    <glyph glyph-name="acircumflex" unicode="&#xe2;" 
d="M811 279l-0.00292969 281.998c-88 44 -165.667 66 -233 66c-56 0 -103.167 -14.167 -141.5 -42.5s-66.666 -66.666 -84.999 -114.999s-27.5 -99.833 -27.5 -154.5c0 -42 7.83301 -82.667 23.5 -122s39.5 -71.166 71.5 -95.499s68.333 -36.5 109 -36.5
c60.667 0 112.834 19.167 156.501 57.5s85.834 91.833 126.501 160.5zM953.997 -12.002l-86 -13.002c-12 36.667 -21.833 71.667 -29.5 105s-11.5 61.333 -11.5 84c-30 -42 -58.167 -76.167 -84.5 -102.5s-58.166 -47.5 -95.499 -63.5
c-17.333 -7.33301 -35.833 -13 -55.5 -17s-40.834 -6 -63.501 -6c-62.667 0 -116.334 15.667 -161.001 47s-78.834 73.333 -102.501 126s-35.5 111.334 -35.5 176.001c0 52.667 7.16699 102 21.5 148s35.5 87 63.5 123s62 64 102 84s85.667 30 137 30
c42 0 86.333 -7.16699 133 -21.5s91 -31.833 133 -52.5v29c0 83.333 -6.66699 151.5 -20 204.5s-36.333 92.167 -69 117.5s-76.667 38 -132 38c-44 0 -86.167 -6.16699 -126.5 -18.5s-85.5 -29.5 -135.5 -51.5l-21 86c112 44 207.667 66 287 66
c49.333 0 92.833 -8.16699 130.5 -24.5s69.834 -39.833 96.501 -70.5s47.334 -68.5 62.001 -113.5s22 -95.833 22 -152.5v-20l-6 -202l-6 -240c0 -38.667 4.33301 -82.667 13 -132s22 -103.666 40 -162.999zM613.997 1384l-286 -217l-45 54l331 290l336 -290l-49 -54z" />
    <glyph glyph-name="atilde" unicode="&#xe3;" 
d="M811 279l-0.00292969 281.998c-88 44 -165.667 66 -233 66c-56 0 -103.167 -14.167 -141.5 -42.5s-66.666 -66.666 -84.999 -114.999s-27.5 -99.833 -27.5 -154.5c0 -42 7.83301 -82.667 23.5 -122s39.5 -71.166 71.5 -95.499s68.333 -36.5 109 -36.5
c60.667 0 112.834 19.167 156.501 57.5s85.834 91.833 126.501 160.5zM953.997 -12.002l-86 -13.002c-12 36.667 -21.833 71.667 -29.5 105s-11.5 61.333 -11.5 84c-30 -42 -58.167 -76.167 -84.5 -102.5s-58.166 -47.5 -95.499 -63.5
c-17.333 -7.33301 -35.833 -13 -55.5 -17s-40.834 -6 -63.501 -6c-62.667 0 -116.334 15.667 -161.001 47s-78.834 73.333 -102.501 126s-35.5 111.334 -35.5 176.001c0 52.667 7.16699 102 21.5 148s35.5 87 63.5 123s62 64 102 84s85.667 30 137 30
c42 0 86.333 -7.16699 133 -21.5s91 -31.833 133 -52.5v29c0 83.333 -6.66699 151.5 -20 204.5s-36.333 92.167 -69 117.5s-76.667 38 -132 38c-44 0 -86.167 -6.16699 -126.5 -18.5s-85.5 -29.5 -135.5 -51.5l-21 86c112 44 207.667 66 287 66
c49.333 0 92.833 -8.16699 130.5 -24.5s69.834 -39.833 96.501 -70.5s47.334 -68.5 62.001 -113.5s22 -95.833 22 -152.5v-20l-6 -202l-6 -240c0 -38.667 4.33301 -82.667 13 -132s22 -103.666 40 -162.999zM917.997 1417l73 -28.002c-16 -46 -42.5 -84.167 -79.5 -114.5
s-78.833 -45.5 -125.5 -45.5c-32 0 -60 5 -84 15c-13.333 5.33301 -26.666 11.833 -39.999 19.5s-29.333 17.834 -48 30.501c-30 20.667 -56.167 36.834 -78.5 48.501s-47.833 17.5 -76.5 17.5c-54 0 -103.333 -46.333 -148 -139l-73 28
c61.333 128.667 137.666 193 228.999 193c29.333 0 52.333 -4.66699 69 -14c17.333 -8 49 -25.333 95 -52l49 -30l54 -28c18.667 -7.33301 34.667 -11 48 -11c58 0 103.333 36.667 136 110z" />
    <glyph glyph-name="adieresis" unicode="&#xe4;" 
d="M811 279l-0.00292969 281.998c-88 44 -165.667 66 -233 66c-56 0 -103.167 -14.167 -141.5 -42.5s-66.666 -66.666 -84.999 -114.999s-27.5 -99.833 -27.5 -154.5c0 -42 7.83301 -82.667 23.5 -122s39.5 -71.166 71.5 -95.499s68.333 -36.5 109 -36.5
c60.667 0 112.834 19.167 156.501 57.5s85.834 91.833 126.501 160.5zM953.997 -12.002l-86 -13.002c-12 36.667 -21.833 71.667 -29.5 105s-11.5 61.333 -11.5 84c-30 -42 -58.167 -76.167 -84.5 -102.5s-58.166 -47.5 -95.499 -63.5
c-17.333 -7.33301 -35.833 -13 -55.5 -17s-40.834 -6 -63.501 -6c-62.667 0 -116.334 15.667 -161.001 47s-78.834 73.333 -102.501 126s-35.5 111.334 -35.5 176.001c0 52.667 7.16699 102 21.5 148s35.5 87 63.5 123s62 64 102 84s85.667 30 137 30
c42 0 86.333 -7.16699 133 -21.5s91 -31.833 133 -52.5v29c0 83.333 -6.66699 151.5 -20 204.5s-36.333 92.167 -69 117.5s-76.667 38 -132 38c-44 0 -86.167 -6.16699 -126.5 -18.5s-85.5 -29.5 -135.5 -51.5l-21 86c112 44 207.667 66 287 66
c49.333 0 92.833 -8.16699 130.5 -24.5s69.834 -39.833 96.501 -70.5s47.334 -68.5 62.001 -113.5s22 -95.833 22 -152.5v-20l-6 -202l-6 -240c0 -38.667 4.33301 -82.667 13 -132s22 -103.666 40 -162.999zM290.997 1335c0 32.667 11.002 60 33.002 82s49.333 33 82 33
c33.333 0 60.666 -10.667 81.999 -32s32 -49 32 -83c0 -30.667 -10.833 -57.334 -32.5 -80.001s-48.834 -34 -81.501 -34c-31.333 0 -58.333 11.333 -81 34s-34 49.334 -34 80.001zM667.999 1335c0 21.333 4.83203 40.5 14.499 57.5s23.167 31.167 40.5 42.5
c17.333 10 37 15 59 15c32 0 59.167 -10.833 81.5 -32.5s33.5 -49.167 33.5 -82.5c0 -30 -11.333 -56.5 -34 -79.5s-49.667 -34.5 -81 -34.5s-58.666 11 -81.999 33c-21.333 22.667 -32 49.667 -32 81z" />
    <glyph glyph-name="aring" unicode="&#xe5;" 
d="M811 279l-0.00292969 281.998c-88 44 -165.667 66 -233 66c-56 0 -103.167 -14.167 -141.5 -42.5s-66.666 -66.666 -84.999 -114.999s-27.5 -99.833 -27.5 -154.5c0 -42 7.83301 -82.667 23.5 -122s39.5 -71.166 71.5 -95.499s68.333 -36.5 109 -36.5
c60.667 0 112.834 19.167 156.501 57.5s85.834 91.833 126.501 160.5zM953.997 -12.002l-86 -13.002c-12 36.667 -21.833 71.667 -29.5 105s-11.5 61.333 -11.5 84c-30 -42 -58.167 -76.167 -84.5 -102.5s-58.166 -47.5 -95.499 -63.5
c-17.333 -7.33301 -35.833 -13 -55.5 -17s-40.834 -6 -63.501 -6c-62.667 0 -116.334 15.667 -161.001 47s-78.834 73.333 -102.501 126s-35.5 111.334 -35.5 176.001c0 52.667 7.16699 102 21.5 148s35.5 87 63.5 123s62 64 102 84s85.667 30 137 30
c42 0 86.333 -7.16699 133 -21.5s91 -31.833 133 -52.5v29c0 83.333 -6.66699 151.5 -20 204.5s-36.333 92.167 -69 117.5s-76.667 38 -132 38c-44 0 -86.167 -6.16699 -126.5 -18.5s-85.5 -29.5 -135.5 -51.5l-21 86c112 44 207.667 66 287 66
c49.333 0 92.833 -8.16699 130.5 -24.5s69.834 -39.833 96.501 -70.5s47.334 -68.5 62.001 -113.5s22 -95.833 22 -152.5v-20l-6 -202l-6 -240c0 -38.667 4.33301 -82.667 13 -132s22 -103.666 40 -162.999zM437.997 1352c0 30 7.16504 58.168 21.498 84.501
s35 46.833 62 61.5s55.167 22 84.5 22s56.833 -7.33301 82.5 -22s46.334 -35.5 62.001 -62.5s23.5 -54.833 23.5 -83.5c0 -44.667 -17.167 -83.834 -51.5 -117.501s-73.166 -50.5 -116.499 -50.5c-46 0 -85.5 17 -118.5 51s-49.5 73 -49.5 117zM511.995 1352
c0 -24.667 9.16699 -46.667 27.5 -66s40.5 -29 66.5 -29c24 0 45.667 9.66699 65 29s29 41.333 29 66c0 26 -9.16699 48.167 -27.5 66.5s-40.5 27.5 -66.5 27.5c-25.333 0 -47.333 -9 -66 -27s-28 -40.333 -28 -67z" />
    <glyph glyph-name="ae" unicode="&#xe6;" 
d="M664 614h364v17c0 30 -1.66699 58.5 -5 85.5s-9.33301 56.833 -18 89.5c-14.667 60.667 -39.5 112.167 -74.5 154.5s-81.5 63.5 -139.5 63.5c-30 0 -54 -6 -72 -18s-32 -33 -42 -63c-3.33301 -12.667 -6.33301 -29.5 -9 -50.5s-4 -42.833 -4 -65.5v-213zM565 311v262.001
c-50 30 -101.667 45 -155 45c-73.333 0 -127.833 -30.833 -163.5 -92.5s-53.5 -131.834 -53.5 -210.501c0 -68.667 18.5 -128.167 55.5 -178.5s87.833 -75.5 152.5 -75.5c70.667 0 115.667 19.167 135 57.5s29 95.833 29 172.5v20zM664 532.001l0.00195312 -261.999
c0 -74 10 -127.333 30 -160s55 -49 105 -49c46 0 91.833 10 137.5 30s99.5 48.333 161.5 85l37 -82c-69.333 -37.333 -130.666 -66.666 -183.999 -87.999c-26 -10 -51.167 -17.667 -75.5 -23s-48.5 -8 -72.5 -8c-93.333 0 -159 33 -197 99c-60 -66 -135 -99 -225 -99
c-60.667 0 -112.334 15.833 -155.001 47.5s-75 73.834 -97 126.501c-10 26 -17.667 53 -23 81s-8 57.667 -8 89c0 66.667 11.5 129 34.5 187s58.333 104.833 106 140.5s106.167 53.5 175.5 53.5c50.667 0 101 -12 151 -36v155c0 69.333 -10.167 120.833 -30.5 154.5
s-53.833 50.5 -100.5 50.5c-38 0 -74.667 -8.33301 -110 -25s-79 -42.334 -131 -77.001l-25 86c46.667 27.333 93.667 51.666 141 72.999c23.333 10 44.666 17.333 63.999 22s39.666 7 60.999 7c36.667 0 70 -7.33301 100 -22s54 -36 72 -64
c50.667 54.667 117.667 82 201 82c101.333 0 180.333 -50.667 237 -152c25.333 -44.667 45.333 -99.334 60 -164.001c6.66699 -31.333 12 -63.833 16 -97.5s6 -66.5 6 -98.5v-62h-462z" />
    <glyph glyph-name="ccedilla" unicode="&#xe7;" 
d="M971 229l65.002 -69c-37.333 -40.667 -73.5 -74 -108.5 -100s-73.5 -46.667 -115.5 -62s-86 -23 -132 -23c-5.33301 0 -9.33301 1.66699 -12 5l-33 -95c51.333 0 95.5 -11.167 132.5 -33.5s55.5 -57.5 55.5 -105.5c0 -28.667 -9 -55.167 -27 -79.5
s-40.667 -42.166 -68 -53.499c-27.333 -12.667 -55.666 -19 -84.999 -19c-46 0 -110 18 -192 54l24 65l76 -24c28 -8.66699 52 -13 72 -13c12.667 0 24.167 1.33301 34.5 4s22.166 8 35.499 16c24 13.333 36 31.333 36 54c0 25.333 -12 43 -36 53
c-26 8.66699 -53.667 13 -83 13h-21c-6.66699 0 -15 -0.666992 -25 -2l-27 -2l57 172c-43.333 8 -87 24 -131 48s-83.5 57 -118.5 99s-63.667 97 -86 165s-33.5 146.667 -33.5 236c0 104 13 193.333 39 268s61 134.5 105 179.5s91.667 77.333 143 97
s104.666 29.5 159.999 29.5c148 0 272 -72.333 372 -217l-86 -58c-28.667 56.667 -67.5 103 -116.5 139s-105.5 54 -169.5 54c-54.667 0 -108 -13.333 -160 -40s-96.333 -75.667 -133 -147s-55 -167.333 -55 -288c0 -90 10.5 -166.167 31.5 -228.5s48.333 -112.333 82 -150
s71.5 -65.334 113.5 -83.001s83.667 -26.5 125 -26.5c99.333 0 197.666 56 294.999 168z" />
    <glyph glyph-name="egrave" unicode="&#xe8;" 
d="M979 168l41.002 -89.998c-46.667 -21.333 -90.334 -39.666 -131.001 -54.999c-17.333 -6 -37.333 -12.333 -60 -19c-17.333 -4.66699 -38.333 -10 -63 -16c-45.333 -8.66699 -89 -13 -131 -13c-100.667 0 -183.5 26.333 -248.5 79s-112.5 122.334 -142.5 209.001
c-14 43.333 -24.667 87.5 -32 132.5s-11 92.167 -11 141.5c0 69.333 8 137.666 24 204.999s41.667 128.5 77 183.5s81 98.833 137 131.5s122.667 49 200 49c50 0 98.167 -9.83301 144.5 -29.5s88.166 -50.834 125.499 -93.501s67.833 -102.334 91.5 -179.001
s35.5 -168.667 35.5 -276h-741c0 -84.667 9.33301 -157.334 28 -218.001s44.667 -109.667 78 -147c62 -68 141.333 -102 238 -102c110 0 223.333 35.667 340 107zM295.002 610.002h647v17c0 64.667 -12.333 127.167 -37 187.5s-61.334 110.333 -110.001 150
s-104.667 59.5 -168 59.5c-65.333 0 -123.166 -20 -173.499 -60s-90 -91.5 -119 -154.5s-43.5 -126.833 -43.5 -191.5zM446.002 1503l324 -266l-45 -61l-356 241z" />
    <glyph glyph-name="eacute" unicode="&#xe9;" 
d="M979 168l41.002 -89.998c-46.667 -21.333 -90.334 -39.666 -131.001 -54.999c-17.333 -6 -37.333 -12.333 -60 -19c-17.333 -4.66699 -38.333 -10 -63 -16c-45.333 -8.66699 -89 -13 -131 -13c-100.667 0 -183.5 26.333 -248.5 79s-112.5 122.334 -142.5 209.001
c-14 43.333 -24.667 87.5 -32 132.5s-11 92.167 -11 141.5c0 69.333 8 137.666 24 204.999s41.667 128.5 77 183.5s81 98.833 137 131.5s122.667 49 200 49c50 0 98.167 -9.83301 144.5 -29.5s88.166 -50.834 125.499 -93.501s67.833 -102.334 91.5 -179.001
s35.5 -168.667 35.5 -276h-741c0 -84.667 9.33301 -157.334 28 -218.001s44.667 -109.667 78 -147c62 -68 141.333 -102 238 -102c110 0 223.333 35.667 340 107zM295.002 610.002h647v17c0 64.667 -12.333 127.167 -37 187.5s-61.334 110.333 -110.001 150
s-104.667 59.5 -168 59.5c-65.333 0 -123.166 -20 -173.499 -60s-90 -91.5 -119 -154.5s-43.5 -126.833 -43.5 -191.5zM827.002 1503l74 -86l-356 -241l-45 61z" />
    <glyph glyph-name="ecircumflex" unicode="&#xea;" 
d="M979 168l41.002 -89.998c-46.667 -21.333 -90.334 -39.666 -131.001 -54.999c-17.333 -6 -37.333 -12.333 -60 -19c-17.333 -4.66699 -38.333 -10 -63 -16c-45.333 -8.66699 -89 -13 -131 -13c-100.667 0 -183.5 26.333 -248.5 79s-112.5 122.334 -142.5 209.001
c-14 43.333 -24.667 87.5 -32 132.5s-11 92.167 -11 141.5c0 69.333 8 137.666 24 204.999s41.667 128.5 77 183.5s81 98.833 137 131.5s122.667 49 200 49c50 0 98.167 -9.83301 144.5 -29.5s88.166 -50.834 125.499 -93.501s67.833 -102.334 91.5 -179.001
s35.5 -168.667 35.5 -276h-741c0 -84.667 9.33301 -157.334 28 -218.001s44.667 -109.667 78 -147c62 -68 141.333 -102 238 -102c110 0 223.333 35.667 340 107zM295.002 610.002h647v17c0 64.667 -12.333 127.167 -37 187.5s-61.334 110.333 -110.001 150
s-104.667 59.5 -168 59.5c-65.333 0 -123.166 -20 -173.499 -60s-90 -91.5 -119 -154.5s-43.5 -126.833 -43.5 -191.5zM614.002 1384l-286 -217l-45 54l331 290l336 -290l-49 -54z" />
    <glyph glyph-name="edieresis" unicode="&#xeb;" 
d="M979 168l41.002 -89.998c-46.667 -21.333 -90.334 -39.666 -131.001 -54.999c-17.333 -6 -37.333 -12.333 -60 -19c-17.333 -4.66699 -38.333 -10 -63 -16c-45.333 -8.66699 -89 -13 -131 -13c-100.667 0 -183.5 26.333 -248.5 79s-112.5 122.334 -142.5 209.001
c-14 43.333 -24.667 87.5 -32 132.5s-11 92.167 -11 141.5c0 69.333 8 137.666 24 204.999s41.667 128.5 77 183.5s81 98.833 137 131.5s122.667 49 200 49c50 0 98.167 -9.83301 144.5 -29.5s88.166 -50.834 125.499 -93.501s67.833 -102.334 91.5 -179.001
s35.5 -168.667 35.5 -276h-741c0 -84.667 9.33301 -157.334 28 -218.001s44.667 -109.667 78 -147c62 -68 141.333 -102 238 -102c110 0 223.333 35.667 340 107zM295.002 610.002h647v17c0 64.667 -12.333 127.167 -37 187.5s-61.334 110.333 -110.001 150
s-104.667 59.5 -168 59.5c-65.333 0 -123.166 -20 -173.499 -60s-90 -91.5 -119 -154.5s-43.5 -126.833 -43.5 -191.5zM311.002 1335c0 32 11.1689 59.168 33.502 81.501s49.5 33.5 81.5 33.5c21.333 0 40.666 -5 57.999 -15s31.166 -23.333 41.499 -40
s15.5 -36.667 15.5 -60c0 -30.667 -10.833 -57.334 -32.5 -80.001s-49.167 -34 -82.5 -34c-30.667 0 -57.667 11.333 -81 34c-22.667 24 -34 50.667 -34 80zM688.004 1335c0 21.333 4.83301 40.499 14.5 57.499s23.167 31.167 40.5 42.5c17.333 10 37.333 15 60 15
c30.667 0 57.5 -10.833 80.5 -32.5s34.5 -49.167 34.5 -82.5c0 -31.333 -11.333 -58.166 -34 -80.499s-49.667 -33.5 -81 -33.5c-32 0 -59.667 11 -83 33c-21.333 22.667 -32 49.667 -32 81z" />
    <glyph glyph-name="igrave" unicode="&#xec;" 
d="M594 0v1004h-315v81h409v-1085h-94zM446 1503l324 -266l-45 -61l-356 241z" />
    <glyph glyph-name="iacute" unicode="&#xed;" 
d="M594 0v1004h-315v81h409v-1085h-94zM745 1503l74 -86l-356 -241l-45 61z" />
    <glyph glyph-name="icircumflex" unicode="&#xee;" 
d="M594 0v1004h-315v81h409v-1085h-94zM532 1384l-286 -217l-45 54l331 290l336 -290l-49 -54z" />
    <glyph glyph-name="idieresis" unicode="&#xef;" 
d="M594 0v1004h-315v81h409v-1085h-94zM311 1335c0 32 11.1689 59.168 33.502 81.501s49.5 33.5 81.5 33.5c21.333 0 40.666 -5 57.999 -15s31.166 -23.333 41.499 -40s15.5 -36.667 15.5 -60c0 -30.667 -10.833 -57.334 -32.5 -80.001s-49.167 -34 -82.5 -34
c-30.667 0 -57.667 11.333 -81 34c-22.667 24 -34 50.667 -34 80zM688.002 1335c0 21.333 4.83301 40.499 14.5 57.499s23.167 31.167 40.5 42.5c17.333 10 37.333 15 60 15c30.667 0 57.5 -10.833 80.5 -32.5s34.5 -49.167 34.5 -82.5
c0 -31.333 -11.333 -58.166 -34 -80.499s-49.667 -33.5 -81 -33.5c-32 0 -59.667 11 -83 33c-21.333 22.667 -32 49.667 -32 81z" />
    <glyph glyph-name="eth" unicode="&#xf0;" 
d="M274 -201l69.999 58.001c32 -38 71.5 -68 118.5 -90s96.167 -33 147.5 -33c42 0 84.333 12 127 36s78 63.167 106 117.5s42 124.5 42 210.5v131c-24.667 -26.667 -53.834 -49.5 -87.501 -68.5s-69.5 -34.5 -107.5 -46.5c-39.333 -10.667 -75.333 -16 -108 -16
c-82.667 0 -152 23.833 -208 71.5s-98.167 108.334 -126.5 182.001s-42.5 150.5 -42.5 230.5c0 89.333 13 173.666 39 252.999s69 144.333 129 195s136.333 76 229 76c56.667 0 106.834 -10.333 150.501 -31s91.834 -51.334 144.501 -92.001l29 123h98
c-32.667 -126.667 -49 -290.667 -49 -492l2 -38l2 -39v-451c0 -52.667 -4.66699 -99.167 -14 -139.5s-24.333 -76.833 -45 -109.5c-39.333 -64.667 -89 -111.667 -149 -141s-120.333 -44 -181 -44c-55.333 0 -111.333 13.5 -168 40.5s-106 62.5 -148 106.5zM880.999 344.001
l-0.00292969 523.999c-31.333 44.667 -72.166 81.834 -122.499 111.501s-103.833 44.5 -160.5 44.5c-51.333 0 -96.166 -12.667 -134.499 -38s-69 -58.833 -92 -100.5s-40.167 -88.667 -51.5 -141s-17 -101.166 -17 -146.499c0 -79.333 10 -146.333 30 -201
s44.833 -97.334 74.5 -128.001s60.834 -53.667 93.501 -69c16 -6.66699 31.167 -11.667 45.5 -15s28.833 -5 43.5 -5c54 0 108.5 15.333 163.5 46s97.5 70 127.5 118zM261.996 1458h90c14 -109.333 101.333 -164 262 -164s248.334 54.667 263.001 164h90
c-18 -164 -130 -246 -336 -246c-94 0 -167 11.833 -219 35.5s-87.833 53 -107.5 88s-33.834 75.833 -42.501 122.5z" />
    <glyph glyph-name="ntilde" unicode="&#xf1;" 
d="M344 446l-0.000976562 -446h-94v545c0 217.333 -15 401.666 -45 552.999h90l41 -312h4c14 52.667 40.333 103.834 79 153.501s86 89.834 142 120.501s110.667 46 164 46c61.333 0 110.5 -15.333 147.5 -46s63.333 -71.5 79 -122.5s23.5 -105.5 23.5 -163.5v-774h-94v729
c0 58 -2.66699 106.833 -8 146.5s-20.333 74.334 -45 104.001s-63 44.5 -115 44.5c-56.667 0 -113.167 -19.833 -169.5 -59.5s-103.666 -102.834 -141.999 -189.501s-57.5 -196.334 -57.5 -329.001zM896.999 1417l74.001 -28.0029c-16 -44.667 -42.667 -82.5 -80 -113.5
s-79 -46.5 -125 -46.5c-32 0 -60.167 5.16699 -84.5 15.5s-52.5 26.333 -84.5 48s-59.167 38.334 -81.5 50.001s-48.166 17.5 -77.499 17.5c-55.333 0 -104.333 -46.333 -147 -139l-74 28c61.333 128.667 137.666 193 228.999 193c15.333 0 30.666 -2 45.999 -6
c4.66699 -1.33301 10.5 -3.16602 17.5 -5.49902s13.167 -4.66602 18.5 -6.99902s10.833 -5 16.5 -8s13.167 -7.83301 22.5 -14.5l43 -25l52 -31l52 -27c18.667 -7.33301 34.667 -11 48 -11c58 0 103 36.667 135 110z" />
    <glyph glyph-name="ograve" unicode="&#xf2;" 
d="M614 -25c-48.667 0 -96.5 9.33398 -143.5 28.001s-91.333 50.5 -133 95.5s-74.834 105.5 -99.501 181.5s-37 164.333 -37 265c0 133.333 19.833 241.5 59.5 324.5s90.667 143.167 153 180.5s129.166 56 200.499 56c68 0 133.333 -17 196 -51s115.334 -93 158.001 -177
s64 -195 64 -333c0 -106.667 -12 -196.334 -36 -269.001s-57.333 -131.667 -100 -177c-39.333 -43.333 -83.666 -74.833 -132.999 -94.5s-99 -29.5 -149 -29.5zM614 61.001c82.667 0 147.67 23.832 195.003 71.499s80 107.834 98 180.501s27 150 27 232
c0 80 -8.83301 155.833 -26.5 227.5s-50.334 131.5 -98.001 179.5s-112.834 72 -195.501 72c-118 0 -200 -47 -246 -141s-69 -206.667 -69 -338c0 -42.667 2 -82.5 6 -119.5s10.667 -74.167 20 -111.5c16.667 -71.333 48.667 -131.333 96 -180s111.666 -73 192.999 -73z
M446.003 1503l324 -266l-45 -61l-356 241z" />
    <glyph glyph-name="oacute" unicode="&#xf3;" 
d="M614 -25c-48.667 0 -96.5 9.33398 -143.5 28.001s-91.333 50.5 -133 95.5s-74.834 105.5 -99.501 181.5s-37 164.333 -37 265c0 133.333 19.833 241.5 59.5 324.5s90.667 143.167 153 180.5s129.166 56 200.499 56c68 0 133.333 -17 196 -51s115.334 -93 158.001 -177
s64 -195 64 -333c0 -106.667 -12 -196.334 -36 -269.001s-57.333 -131.667 -100 -177c-39.333 -43.333 -83.666 -74.833 -132.999 -94.5s-99 -29.5 -149 -29.5zM614 61.001c82.667 0 147.67 23.832 195.003 71.499s80 107.834 98 180.501s27 150 27 232
c0 80 -8.83301 155.833 -26.5 227.5s-50.334 131.5 -98.001 179.5s-112.834 72 -195.501 72c-118 0 -200 -47 -246 -141s-69 -206.667 -69 -338c0 -42.667 2 -82.5 6 -119.5s10.667 -74.167 20 -111.5c16.667 -71.333 48.667 -131.333 96 -180s111.666 -73 192.999 -73z
M827.003 1503l74 -86l-356 -241l-45 61z" />
    <glyph glyph-name="ocircumflex" unicode="&#xf4;" 
d="M614 -25c-48.667 0 -96.5 9.33398 -143.5 28.001s-91.333 50.5 -133 95.5s-74.834 105.5 -99.501 181.5s-37 164.333 -37 265c0 133.333 19.833 241.5 59.5 324.5s90.667 143.167 153 180.5s129.166 56 200.499 56c68 0 133.333 -17 196 -51s115.334 -93 158.001 -177
s64 -195 64 -333c0 -106.667 -12 -196.334 -36 -269.001s-57.333 -131.667 -100 -177c-39.333 -43.333 -83.666 -74.833 -132.999 -94.5s-99 -29.5 -149 -29.5zM614 61.001c82.667 0 147.67 23.832 195.003 71.499s80 107.834 98 180.501s27 150 27 232
c0 80 -8.83301 155.833 -26.5 227.5s-50.334 131.5 -98.001 179.5s-112.834 72 -195.501 72c-118 0 -200 -47 -246 -141s-69 -206.667 -69 -338c0 -42.667 2 -82.5 6 -119.5s10.667 -74.167 20 -111.5c16.667 -71.333 48.667 -131.333 96 -180s111.666 -73 192.999 -73z
M614.003 1384l-286 -217l-45 54l331 290l336 -290l-49 -54z" />
    <glyph glyph-name="otilde" unicode="&#xf5;" 
d="M614 -25c-48.667 0 -96.5 9.33398 -143.5 28.001s-91.333 50.5 -133 95.5s-74.834 105.5 -99.501 181.5s-37 164.333 -37 265c0 133.333 19.833 241.5 59.5 324.5s90.667 143.167 153 180.5s129.166 56 200.499 56c68 0 133.333 -17 196 -51s115.334 -93 158.001 -177
s64 -195 64 -333c0 -106.667 -12 -196.334 -36 -269.001s-57.333 -131.667 -100 -177c-39.333 -43.333 -83.666 -74.833 -132.999 -94.5s-99 -29.5 -149 -29.5zM614 61.001c82.667 0 147.67 23.832 195.003 71.499s80 107.834 98 180.501s27 150 27 232
c0 80 -8.83301 155.833 -26.5 227.5s-50.334 131.5 -98.001 179.5s-112.834 72 -195.501 72c-118 0 -200 -47 -246 -141s-69 -206.667 -69 -338c0 -42.667 2 -82.5 6 -119.5s10.667 -74.167 20 -111.5c16.667 -71.333 48.667 -131.333 96 -180s111.666 -73 192.999 -73z
M918.003 1417l73 -28.002c-16 -46 -42.5 -84.167 -79.5 -114.5s-78.833 -45.5 -125.5 -45.5c-32 0 -60 5 -84 15c-13.333 5.33301 -26.666 11.833 -39.999 19.5s-29.333 17.834 -48 30.501c-30 20.667 -56.167 36.834 -78.5 48.501s-47.833 17.5 -76.5 17.5
c-54 0 -103.333 -46.333 -148 -139l-73 28c61.333 128.667 137.666 193 228.999 193c29.333 0 52.333 -4.66699 69 -14c17.333 -8 49 -25.333 95 -52l49 -30l54 -28c18.667 -7.33301 34.667 -11 48 -11c58 0 103.333 36.667 136 110z" />
    <glyph glyph-name="odieresis" unicode="&#xf6;" 
d="M614 -25c-48.667 0 -96.5 9.33398 -143.5 28.001s-91.333 50.5 -133 95.5s-74.834 105.5 -99.501 181.5s-37 164.333 -37 265c0 133.333 19.833 241.5 59.5 324.5s90.667 143.167 153 180.5s129.166 56 200.499 56c68 0 133.333 -17 196 -51s115.334 -93 158.001 -177
s64 -195 64 -333c0 -106.667 -12 -196.334 -36 -269.001s-57.333 -131.667 -100 -177c-39.333 -43.333 -83.666 -74.833 -132.999 -94.5s-99 -29.5 -149 -29.5zM614 61.001c82.667 0 147.67 23.832 195.003 71.499s80 107.834 98 180.501s27 150 27 232
c0 80 -8.83301 155.833 -26.5 227.5s-50.334 131.5 -98.001 179.5s-112.834 72 -195.501 72c-118 0 -200 -47 -246 -141s-69 -206.667 -69 -338c0 -42.667 2 -82.5 6 -119.5s10.667 -74.167 20 -111.5c16.667 -71.333 48.667 -131.333 96 -180s111.666 -73 192.999 -73z
M311.003 1335c0 32 11.1689 59.168 33.502 81.501s49.5 33.5 81.5 33.5c21.333 0 40.666 -5 57.999 -15s31.166 -23.333 41.499 -40s15.5 -36.667 15.5 -60c0 -30.667 -10.833 -57.334 -32.5 -80.001s-49.167 -34 -82.5 -34c-30.667 0 -57.667 11.333 -81 34
c-22.667 24 -34 50.667 -34 80zM688.005 1335c0 21.333 4.83301 40.499 14.5 57.499s23.167 31.167 40.5 42.5c17.333 10 37.333 15 60 15c30.667 0 57.5 -10.833 80.5 -32.5s34.5 -49.167 34.5 -82.5c0 -31.333 -11.333 -58.166 -34 -80.499s-49.667 -33.5 -81 -33.5
c-32 0 -59.667 11 -83 33c-21.333 22.667 -32 49.667 -32 81z" />
    <glyph glyph-name="divide" unicode="&#xf7;" 
d="M1159 782v-90h-1089v90h1089zM705 422c0 -25.333 -8.66699 -46.666 -26 -63.999s-39 -26 -65 -26c-24 0 -44.667 8.66699 -62 26c-16 17.333 -24 38.666 -24 63.999c0 24 8 44.333 24 61s36.667 25 62 25c26 0 47.667 -8.16699 65 -24.5s26 -36.833 26 -61.5zM705 1057
c0 -25.333 -8.66699 -46.666 -26 -63.999s-39 -26 -65 -26c-24 0 -44.667 8.66699 -62 26c-16 17.333 -24 38.666 -24 63.999c0 24 8 44.333 24 61s36.667 25 62 25c26 0 47.667 -8.16699 65 -24.5s26 -36.833 26 -61.5z" />
    <glyph glyph-name="oslash" unicode="&#xf8;" 
d="M852 1024l73.999 123.001l61 -45l-78 -131c82 -98 123 -240 123 -426c0 -132.667 -19.667 -241.5 -59 -326.5s-90.333 -146.833 -153 -185.5s-130 -58 -202 -58c-90.667 0 -173.667 31.667 -249 95l-74 -127l-66 45l86 139c-28.667 38 -51.5 79 -68.5 123
s-28.833 89.833 -35.5 137.5s-10 100.167 -10 157.5c0 133.333 19.833 241.666 59.5 324.999s90.834 143.5 153.501 180.5s130.667 55.5 204 55.5c88.667 0 166.667 -27.333 234 -82zM364.999 209.001l446 744.999c-24 23.333 -53.167 40.833 -87.5 52.5
s-69.5 17.5 -105.5 17.5c-82 0 -146.5 -23.833 -193.5 -71.5s-79.667 -107.667 -98 -180s-27.5 -148.166 -27.5 -227.499c0 -140 22 -252 66 -336zM859.999 893l-445.999 -750c24 -26.667 53.667 -47 89 -61s73.666 -21 114.999 -21c80.667 0 144.667 23.833 192 71.5
s80 108.167 98 181.5c8 34 14.333 71 19 111s7 80 7 120c0 147.333 -24.667 263.333 -74 348z" />
    <glyph glyph-name="ugrave" unicode="&#xf9;" 
d="M889 647l0.000976562 437.999h94v-536c0 -220 15 -403 45 -549h-90l-41 307h-4c-10 -42 -27.5 -82.167 -52.5 -120.5s-55.5 -73.666 -91.5 -105.999s-75.333 -58 -118 -77s-83.667 -28.5 -123 -28.5c-90 0 -154.167 33.167 -192.5 99.5s-57.5 147.833 -57.5 244.5v766h94
v-720c0 -102 14 -178.167 42 -228.5s70 -75.5 126 -75.5c22 0 43 2.66699 63 8s41.333 14.333 64 27c43.333 24 83.166 60 119.499 108s65.833 109.833 88.5 185.5s34 161.5 34 257.5zM426.001 1503l324 -266l-45 -61l-357 241z" />
    <glyph glyph-name="uacute" unicode="&#xfa;" 
d="M889 647l0.000976562 437.999h94v-536c0 -220 15 -403 45 -549h-90l-41 307h-4c-10 -42 -27.5 -82.167 -52.5 -120.5s-55.5 -73.666 -91.5 -105.999s-75.333 -58 -118 -77s-83.667 -28.5 -123 -28.5c-90 0 -154.167 33.167 -192.5 99.5s-57.5 147.833 -57.5 244.5v766h94
v-720c0 -102 14 -178.167 42 -228.5s70 -75.5 126 -75.5c22 0 43 2.66699 63 8s41.333 14.333 64 27c43.333 24 83.166 60 119.499 108s65.833 109.833 88.5 185.5s34 161.5 34 257.5zM815.001 1503l78 -86l-356 -241l-45 61z" />
    <glyph glyph-name="ucircumflex" unicode="&#xfb;" 
d="M889 647l0.000976562 437.999h94v-536c0 -220 15 -403 45 -549h-90l-41 307h-4c-10 -42 -27.5 -82.167 -52.5 -120.5s-55.5 -73.666 -91.5 -105.999s-75.333 -58 -118 -77s-83.667 -28.5 -123 -28.5c-90 0 -154.167 33.167 -192.5 99.5s-57.5 147.833 -57.5 244.5v766h94
v-720c0 -102 14 -178.167 42 -228.5s70 -75.5 126 -75.5c22 0 43 2.66699 63 8s41.333 14.333 64 27c43.333 24 83.166 60 119.499 108s65.833 109.833 88.5 185.5s34 161.5 34 257.5zM614.001 1384l-286 -217l-45 54l331 290l336 -290l-49 -54z" />
    <glyph glyph-name="udieresis" unicode="&#xfc;" 
d="M889 647l0.000976562 437.999h94v-536c0 -220 15 -403 45 -549h-90l-41 307h-4c-10 -42 -27.5 -82.167 -52.5 -120.5s-55.5 -73.666 -91.5 -105.999s-75.333 -58 -118 -77s-83.667 -28.5 -123 -28.5c-90 0 -154.167 33.167 -192.5 99.5s-57.5 147.833 -57.5 244.5v766h94
v-720c0 -102 14 -178.167 42 -228.5s70 -75.5 126 -75.5c22 0 43 2.66699 63 8s41.333 14.333 64 27c43.333 24 83.166 60 119.499 108s65.833 109.833 88.5 185.5s34 161.5 34 257.5zM311.001 1335c0 32 11.1689 59.168 33.502 81.501s49.5 33.5 81.5 33.5
c21.333 0 40.666 -5 57.999 -15s31.166 -23.333 41.499 -40s15.5 -36.667 15.5 -60c0 -30.667 -10.833 -57.334 -32.5 -80.001s-49.167 -34 -82.5 -34c-30.667 0 -57.667 11.333 -81 34c-22.667 24 -34 50.667 -34 80zM688.003 1335c0 21.333 4.83301 40.499 14.5 57.499
s23.167 31.167 40.5 42.5c17.333 10 37.333 15 60 15c30.667 0 57.5 -10.833 80.5 -32.5s34.5 -49.167 34.5 -82.5c0 -31.333 -11.333 -58.166 -34 -80.499s-49.667 -33.5 -81 -33.5c-32 0 -59.667 11 -83 33c-21.333 22.667 -32 49.667 -32 81z" />
    <glyph glyph-name="yacute" unicode="&#xfd;" 
d="M594 0v1004h-315v81h409v-1085h-94z" />
    <glyph glyph-name="thorn" unicode="&#xfe;" 
d="M922 991l-41.0029 -77.9971c-102 74 -199 111 -291 111c-57.333 0 -107.833 -19 -151.5 -57s-65.5 -84.667 -65.5 -140c0 -54.667 22 -98 66 -130s102.333 -62.333 175 -91c56.667 -22 105.5 -43.833 146.5 -65.5s76.5 -44.5 106.5 -68.5c58 -45.333 87 -114 87 -206
c0 -56.667 -15.167 -107.334 -45.5 -152.001s-70.666 -79 -120.999 -103s-103.833 -36 -160.5 -36c-62.667 0 -133 17.333 -211 52c-39.333 17.333 -75 36.166 -107 56.499s-61.333 43.166 -88 68.499l53 77c44.667 -44.667 100.834 -83.834 168.501 -117.501
s130.5 -50.5 188.5 -50.5c42.667 0 80.834 7.5 114.501 22.5s60.5 37.167 80.5 66.5s30 65.333 30 108c0 72 -20.833 124.833 -62.5 158.5s-105.5 66.834 -191.5 99.501c-70.667 27.333 -126.667 52.333 -168 75s-77.5 54.167 -108.5 94.5s-46.5 90.5 -46.5 150.5
c0 50 14.833 95.5 44.5 136.5s69 73.5 118 97.5s99.833 36 152.5 36c116 0 225.333 -38.333 328 -115zM617.997 -15.9971h74l-49 -144c28 0 52.167 -2.33301 72.5 -7s40.5 -13 60.5 -25c36.667 -22.667 55 -58.334 55 -107.001c0 -28.667 -9 -55.167 -27 -79.5
s-40.667 -42.166 -68 -53.499c-27.333 -12.667 -55.666 -19 -84.999 -19c-46 0 -110 18 -192 54l24 65l77 -24c28 -8.66699 51.667 -13 71 -13c12.667 0 24.167 1.33301 34.5 4s22.166 8 35.499 16c24 13.333 36 31.333 36 54c0 44 -39.667 66 -119 66h-20.5
c-6.33301 0 -14.5 -0.666992 -24.5 -2l-28 -2z" />
    <glyph glyph-name="ydieresis" unicode="&#xff;" 
d="M938 1085l111 -0.000976562l-406 -1032c-30 -78 -57.5 -142.667 -82.5 -194s-59.667 -98.666 -104 -141.999s-95.5 -65 -153.5 -65c-58.667 0 -109.5 19.167 -152.5 57.5s-75.5 88.833 -97.5 151.5l82 41c44 -112 100 -168 168 -168c47.333 0 85.333 19.333 114 58
c26 35.333 53.667 84.333 83 147l82 188l-353 958h107l291 -831zM332 1335c0 32.667 11.002 60 33.002 82s49 33 81 33c21.333 0 40.666 -5 57.999 -15s31.166 -23.333 41.499 -40s15.5 -36.667 15.5 -60c0 -30.667 -10.833 -57.334 -32.5 -80.001s-49.167 -34 -82.5 -34
c-30 0 -56.5 11.333 -79.5 34s-34.5 49.334 -34.5 80.001zM709.002 1335c0 21.333 4.83203 40.5 14.499 57.5s23.167 31.167 40.5 42.5c17.333 10 37 15 59 15c32 0 59.167 -10.833 81.5 -32.5s33.5 -49.167 33.5 -82.5c0 -30 -11.333 -56.5 -34 -79.5
s-49.667 -34.5 -81 -34.5s-58.666 11 -81.999 33c-21.333 22.667 -32 49.667 -32 81z" />
    <glyph glyph-name="Gbreve" unicode="&#x11e;" 
d="M975 631l-357.004 -0.000976562v82h451v-742h-94v234h-4c-21.333 -69.333 -65.166 -125.666 -131.499 -168.999s-137.166 -65 -212.499 -65c-130 0 -232.833 54.167 -308.5 162.5s-113.5 294.5 -113.5 558.5c0 209.333 18.667 373.333 56 492s88.5 201.5 153.5 248.5
s142.5 70.5 232.5 70.5c76 0 139.333 -15.333 190 -46s89.334 -73 116.001 -127s43.667 -117.667 51 -191h-103v16c0 45.333 -9.66699 88.5 -29 129.5s-47.666 74.167 -84.999 99.5c-17.333 12 -36.833 21.167 -58.5 27.5s-44.834 9.5 -69.501 9.5
c-104 0 -182 -37 -234 -111s-85 -160.667 -99 -260c-6 -48.667 -10.667 -99.834 -14 -153.501s-5 -110.834 -5 -171.501c0 -181.333 20 -338.666 60 -471.999s129.333 -200 268 -200c58 0 112.333 14.5 163 43.5s92.834 77.833 126.501 146.5s50.5 158.334 50.5 269.001v119
zM290.996 1823h90c12 -109.333 99.333 -164 262 -164c162 0 249.333 54.667 262 164h90c-18 -164 -130 -246 -336 -246c-92.667 0 -165.167 11.833 -217.5 35.5s-88 52.667 -107 87s-33.5 75.5 -43.5 123.5z" />
    <glyph glyph-name="gbreve" unicode="&#x11f;" 
d="M274 -201l69.999 58.001c32 -38 71.5 -68 118.5 -90s96.167 -33 147.5 -33c42 0 84.333 12 127 36s78 63.167 106 117.5s42 124.5 42 210.5v131c-24.667 -26.667 -53.834 -49.5 -87.501 -68.5s-69.5 -34.5 -107.5 -46.5c-39.333 -10.667 -75.333 -16 -108 -16
c-82.667 0 -152 23.833 -208 71.5s-98.167 108.334 -126.5 182.001s-42.5 150.5 -42.5 230.5c0 89.333 13 173.666 39 252.999s69 144.333 129 195s136.333 76 229 76c56.667 0 106.834 -10.333 150.501 -31s91.834 -51.334 144.501 -92.001l29 123h98
c-32.667 -126.667 -49 -290.667 -49 -492l2 -38l2 -39v-451c0 -52.667 -4.66699 -99.167 -14 -139.5s-24.333 -76.833 -45 -109.5c-39.333 -64.667 -89 -111.667 -149 -141s-120.333 -44 -181 -44c-55.333 0 -111.333 13.5 -168 40.5s-106 62.5 -148 106.5zM880.999 344.001
l-0.00292969 523.999c-31.333 44.667 -72.166 81.834 -122.499 111.501s-103.833 44.5 -160.5 44.5c-51.333 0 -96.166 -12.667 -134.499 -38s-69 -58.833 -92 -100.5s-40.167 -88.667 -51.5 -141s-17 -101.166 -17 -146.499c0 -79.333 10 -146.333 30 -201
s44.833 -97.334 74.5 -128.001s60.834 -53.667 93.501 -69c16 -6.66699 31.167 -11.667 45.5 -15s28.833 -5 43.5 -5c54 0 108.5 15.333 163.5 46s97.5 70 127.5 118zM261.996 1458h90c14 -109.333 101.333 -164 262 -164s248.334 54.667 263.001 164h90
c-18 -164 -130 -246 -336 -246c-94 0 -167 11.833 -219 35.5s-87.833 53 -107.5 88s-33.834 75.833 -42.501 122.5z" />
    <glyph glyph-name="Idotaccent" unicode="&#x130;" 
d="M868 1475v-82h-204v-1311h204v-82h-508v82h205v1311h-205v82h508zM475 1724c0 36 13.332 68.333 39.999 97s58.334 43 95.001 43c26.667 0 50.167 -6.5 70.5 -19.5s37 -30.5 50 -52.5s19.5 -44.667 19.5 -68c0 -24 -6.16699 -46.833 -18.5 -68.5
s-29.333 -38.834 -51 -51.501s-45.167 -19 -70.5 -19c-36 0 -67.667 13.667 -95 41c-13.333 14.667 -23.333 29.834 -30 45.501s-10 33.167 -10 52.5z" />
    <glyph glyph-name="dotlessi" unicode="&#x131;" 
d="M594 0v1004h-315v81h409v-1085h-94z" />
    <glyph glyph-name="OE" unicode="&#x152;" 
d="M1196 1475v-82.001h-426v-586h295v-82h-295v-643h442v-82h-540c-52.667 -19.333 -106 -29 -160 -29c-98 0 -177.167 23.833 -237.5 71.5s-105 110.834 -134 189.501s-47.5 159 -55.5 241c-3.33301 37.333 -6 79.666 -8 126.999s-3 97.333 -3 150
c0 194.667 19.167 347.334 57.5 458.001s90.833 187.5 157.5 230.5s145 64.5 235 64.5c48.667 0 98 -9.33301 148 -28h524zM672 89.999l-0.000976562 1294c-53.333 24.667 -105.333 37 -156 37c-74 0 -134.667 -20.333 -182 -61s-82 -94 -104 -160
s-36.667 -135.333 -44 -208c-2.66699 -31.333 -5 -68.5 -7 -111.5s-3 -85.167 -3 -126.5l-2 -10l-2 -11c0 -32 0.666992 -61 2 -87c4.66699 -90 7 -137.667 7 -143c0 -33.333 4 -69 12 -107c6 -28 15.667 -63 29 -105c20.667 -68 55.334 -124.667 104.001 -170
c24 -22.667 51.667 -39.667 83 -51s67 -17 107 -17c48.667 0 100.667 12.333 156 37z" />
    <glyph glyph-name="oe" unicode="&#x153;" 
d="M999 1339l-57.0039 -73.0029c-56 50 -109.667 88.333 -161 115s-105.666 40 -162.999 40c-49.333 0 -95.166 -10.833 -137.499 -32.5s-75.666 -52.167 -99.999 -91.5s-36.5 -84 -36.5 -134c0 -40.667 6.83301 -76.167 20.5 -106.5s36.834 -60.833 69.501 -91.5
c30 -28 78 -61.667 144 -101l118 -73c127.333 -74.667 215.833 -139.667 265.5 -195s74.5 -127 74.5 -215c0 -32 -2.33301 -62.167 -7 -90.5s-12 -55.166 -22 -80.499c-19.333 -50.667 -47.166 -93.667 -83.499 -129s-81 -62.5 -134 -81.5s-110.167 -28.5 -171.5 -28.5
c-83.333 0 -159.5 18.333 -228.5 55s-130.5 90.667 -184.5 162l74 62c41.333 -60.667 91.666 -108.667 150.999 -144s122 -53 188 -53c56 0 108.333 13 157 39s87.334 62.667 116.001 110c14 23.333 24.667 47.5 32 72.5s11 52.167 11 81.5c0 52.667 -5.66699 94 -17 124
c-10 30.667 -35.167 63.667 -75.5 99s-105.166 80 -194.499 134l-139 82c-42.667 27.333 -79 52.333 -109 75c-26 19.333 -51.833 43.833 -77.5 73.5s-45.334 61.834 -59.001 96.501s-20.5 73 -20.5 115c0 70.667 16.5 132.334 49.5 185.001s78.667 93 137 121
s123.166 42 194.499 42c128.667 0 254 -54.667 376 -164zM609.996 -16.0029h74l-49 -144c28 0 52.167 -2.33301 72.5 -7s40.5 -13 60.5 -25c36.667 -22.667 55 -58.334 55 -107.001c0 -28.667 -9 -55.167 -27 -79.5s-40.667 -42.166 -68 -53.499
c-27.333 -12.667 -55.666 -19 -84.999 -19c-46 0 -110 18 -192 54l24 65l76 -24c28 -8.66699 52 -13 72 -13c12.667 0 24.167 1.33301 34.5 4s22.166 8 35.499 16c24 13.333 36 31.333 36 54c0 25.333 -12 43 -36 53c-26 8.66699 -53.667 13 -83 13h-21
c-6.66699 0 -15 -0.666992 -25 -2l-27 -2z" />
    <glyph glyph-name="c278" unicode="&#x154;" horiz-adv-x="1974" 
 />
    <glyph glyph-name="c279" unicode="&#x155;" horiz-adv-x="1974" 
 />
    <glyph glyph-name="c280" unicode="&#x156;" horiz-adv-x="1974" 
 />
    <glyph glyph-name="c281" unicode="&#x157;" horiz-adv-x="1974" 
 />
    <glyph glyph-name="c282" unicode="&#x158;" horiz-adv-x="1974" 
 />
    <glyph glyph-name="c283" unicode="&#x159;" horiz-adv-x="1974" 
 />
    <glyph glyph-name="c284" unicode="&#x15a;" horiz-adv-x="1974" 
 />
    <glyph glyph-name="c285" unicode="&#x15b;" horiz-adv-x="1974" 
 />
    <glyph glyph-name="c286" unicode="&#x15c;" horiz-adv-x="1974" 
 />
    <glyph glyph-name="c287" unicode="&#x15d;" horiz-adv-x="1974" 
 />
    <glyph glyph-name="Scedilla" unicode="&#x15e;" 
d="M999 1339l-57.0039 -73.0029c-56 50 -109.667 88.333 -161 115s-105.666 40 -162.999 40c-49.333 0 -95.166 -10.833 -137.499 -32.5s-75.666 -52.167 -99.999 -91.5s-36.5 -84 -36.5 -134c0 -40.667 6.83301 -76.167 20.5 -106.5s36.834 -60.833 69.501 -91.5
c30 -28 78 -61.667 144 -101l118 -73c127.333 -74.667 215.833 -139.667 265.5 -195s74.5 -127 74.5 -215c0 -32 -2.33301 -62.167 -7 -90.5s-12 -55.166 -22 -80.499c-19.333 -50.667 -47.166 -93.667 -83.499 -129s-81 -62.5 -134 -81.5s-110.167 -28.5 -171.5 -28.5
c-83.333 0 -159.5 18.333 -228.5 55s-130.5 90.667 -184.5 162l74 62c41.333 -60.667 91.666 -108.667 150.999 -144s122 -53 188 -53c56 0 108.333 13 157 39s87.334 62.667 116.001 110c14 23.333 24.667 47.5 32 72.5s11 52.167 11 81.5c0 52.667 -5.66699 94 -17 124
c-10 30.667 -35.167 63.667 -75.5 99s-105.166 80 -194.499 134l-139 82c-42.667 27.333 -79 52.333 -109 75c-26 19.333 -51.833 43.833 -77.5 73.5s-45.334 61.834 -59.001 96.501s-20.5 73 -20.5 115c0 70.667 16.5 132.334 49.5 185.001s78.667 93 137 121
s123.166 42 194.499 42c128.667 0 254 -54.667 376 -164zM609.996 -16.0029h74l-49 -144c28 0 52.167 -2.33301 72.5 -7s40.5 -13 60.5 -25c36.667 -22.667 55 -58.334 55 -107.001c0 -28.667 -9 -55.167 -27 -79.5s-40.667 -42.166 -68 -53.499
c-27.333 -12.667 -55.666 -19 -84.999 -19c-46 0 -110 18 -192 54l24 65l76 -24c28 -8.66699 52 -13 72 -13c12.667 0 24.167 1.33301 34.5 4s22.166 8 35.499 16c24 13.333 36 31.333 36 54c0 25.333 -12 43 -36 53c-26 8.66699 -53.667 13 -83 13h-21
c-6.66699 0 -15 -0.666992 -25 -2l-27 -2z" />
    <glyph glyph-name="scedilla" unicode="&#x15f;" 
d="M922 991l-41.0029 -77.9971c-102 74 -199 111 -291 111c-57.333 0 -107.833 -19 -151.5 -57s-65.5 -84.667 -65.5 -140c0 -54.667 22 -98 66 -130s102.333 -62.333 175 -91c56.667 -22 105.5 -43.833 146.5 -65.5s76.5 -44.5 106.5 -68.5c58 -45.333 87 -114 87 -206
c0 -56.667 -15.167 -107.334 -45.5 -152.001s-70.666 -79 -120.999 -103s-103.833 -36 -160.5 -36c-62.667 0 -133 17.333 -211 52c-39.333 17.333 -75 36.166 -107 56.499s-61.333 43.166 -88 68.499l53 77c44.667 -44.667 100.834 -83.834 168.501 -117.501
s130.5 -50.5 188.5 -50.5c42.667 0 80.834 7.5 114.501 22.5s60.5 37.167 80.5 66.5s30 65.333 30 108c0 72 -20.833 124.833 -62.5 158.5s-105.5 66.834 -191.5 99.501c-70.667 27.333 -126.667 52.333 -168 75s-77.5 54.167 -108.5 94.5s-46.5 90.5 -46.5 150.5
c0 50 14.833 95.5 44.5 136.5s69 73.5 118 97.5s99.833 36 152.5 36c116 0 225.333 -38.333 328 -115zM617.997 -15.9971h74l-49 -144c28 0 52.167 -2.33301 72.5 -7s40.5 -13 60.5 -25c36.667 -22.667 55 -58.334 55 -107.001c0 -28.667 -9 -55.167 -27 -79.5
s-40.667 -42.166 -68 -53.499c-27.333 -12.667 -55.666 -19 -84.999 -19c-46 0 -110 18 -192 54l24 65l77 -24c28 -8.66699 51.667 -13 71 -13c12.667 0 24.167 1.33301 34.5 4s22.166 8 35.499 16c24 13.333 36 31.333 36 54c0 44 -39.667 66 -119 66h-20.5
c-6.33301 0 -14.5 -0.666992 -24.5 -2l-28 -2z" />
    <glyph glyph-name="Scaron" unicode="&#x160;" 
d="M999 1339l-57.0039 -73.0029c-56 50 -109.667 88.333 -161 115s-105.666 40 -162.999 40c-49.333 0 -95.166 -10.833 -137.499 -32.5s-75.666 -52.167 -99.999 -91.5s-36.5 -84 -36.5 -134c0 -40.667 6.83301 -76.167 20.5 -106.5s36.834 -60.833 69.501 -91.5
c30 -28 78 -61.667 144 -101l118 -73c127.333 -74.667 215.833 -139.667 265.5 -195s74.5 -127 74.5 -215c0 -32 -2.33301 -62.167 -7 -90.5s-12 -55.166 -22 -80.499c-19.333 -50.667 -47.166 -93.667 -83.499 -129s-81 -62.5 -134 -81.5s-110.167 -28.5 -171.5 -28.5
c-83.333 0 -159.5 18.333 -228.5 55s-130.5 90.667 -184.5 162l74 62c41.333 -60.667 91.666 -108.667 150.999 -144s122 -53 188 -53c56 0 108.333 13 157 39s87.334 62.667 116.001 110c14 23.333 24.667 47.5 32 72.5s11 52.167 11 81.5c0 52.667 -5.66699 94 -17 124
c-10 30.667 -35.167 63.667 -75.5 99s-105.166 80 -194.499 134l-139 82c-42.667 27.333 -79 52.333 -109 75c-26 19.333 -51.833 43.833 -77.5 73.5s-45.334 61.834 -59.001 96.501s-20.5 73 -20.5 115c0 70.667 16.5 132.334 49.5 185.001s78.667 93 137 121
s123.166 42 194.499 42c128.667 0 254 -54.667 376 -164zM613.996 1683l287 213l49 -53l-336 -287l-331 287l45 53z" />
    <glyph glyph-name="scaron" unicode="&#x161;" 
d="M868 1475v-82h-204v-1311h204v-82h-508v82h205v1311h-205v82h508zM475 1724c0 36 13.332 68.333 39.999 97s58.334 43 95.001 43c26.667 0 50.167 -6.5 70.5 -19.5s37 -30.5 50 -52.5s19.5 -44.667 19.5 -68c0 -24 -6.16699 -46.833 -18.5 -68.5
s-29.333 -38.834 -51 -51.501s-45.167 -19 -70.5 -19c-36 0 -67.667 13.667 -95 41c-13.333 14.667 -23.333 29.834 -30 45.501s-10 33.167 -10 52.5z" />
    <glyph glyph-name="Ydieresis" unicode="&#x178;" 
d="M274 -201l69.999 58.001c32 -38 71.5 -68 118.5 -90s96.167 -33 147.5 -33c42 0 84.333 12 127 36s78 63.167 106 117.5s42 124.5 42 210.5v131c-24.667 -26.667 -53.834 -49.5 -87.501 -68.5s-69.5 -34.5 -107.5 -46.5c-39.333 -10.667 -75.333 -16 -108 -16
c-82.667 0 -152 23.833 -208 71.5s-98.167 108.334 -126.5 182.001s-42.5 150.5 -42.5 230.5c0 89.333 13 173.666 39 252.999s69 144.333 129 195s136.333 76 229 76c56.667 0 106.834 -10.333 150.501 -31s91.834 -51.334 144.501 -92.001l29 123h98
c-32.667 -126.667 -49 -290.667 -49 -492l2 -38l2 -39v-451c0 -52.667 -4.66699 -99.167 -14 -139.5s-24.333 -76.833 -45 -109.5c-39.333 -64.667 -89 -111.667 -149 -141s-120.333 -44 -181 -44c-55.333 0 -111.333 13.5 -168 40.5s-106 62.5 -148 106.5zM880.999 344.001
l-0.00292969 523.999c-31.333 44.667 -72.166 81.834 -122.499 111.501s-103.833 44.5 -160.5 44.5c-51.333 0 -96.166 -12.667 -134.499 -38s-69 -58.833 -92 -100.5s-40.167 -88.667 -51.5 -141s-17 -101.166 -17 -146.499c0 -79.333 10 -146.333 30 -201
s44.833 -97.334 74.5 -128.001s60.834 -53.667 93.501 -69c16 -6.66699 31.167 -11.667 45.5 -15s28.833 -5 43.5 -5c54 0 108.5 15.333 163.5 46s97.5 70 127.5 118zM261.996 1458h90c14 -109.333 101.333 -164 262 -164s248.334 54.667 263.001 164h90
c-18 -164 -130 -246 -336 -246c-94 0 -167 11.833 -219 35.5s-87.833 53 -107.5 88s-33.834 75.833 -42.501 122.5z" />
    <glyph glyph-name="florin" unicode="&#x192;" 
 />
    <glyph glyph-name="endash" unicode="&#x2013;" 
d="M975 696h-721v82h721v-82z" />
    <glyph glyph-name="emdash" unicode="&#x2014;" 
d="M1229 696h-1229v82h1229v-82z" />
    <glyph glyph-name="c288" unicode="&#x2015;" horiz-adv-x="1974" 
 />
    <glyph glyph-name="c289" unicode="&#x2016;" horiz-adv-x="1974" 
 />
    <glyph glyph-name="c290" unicode="&#x2017;" horiz-adv-x="1974" 
 />
    <glyph glyph-name="quoteleft" unicode="&#x2018;" 
d="M774 1503l0.000976562 -86.001c-36 -8 -68.333 -22.333 -97 -43s-49.667 -46 -63 -76l17 2l20 3c40.667 0 71.667 -11.667 93 -35c22.667 -22.667 34 -53.334 34 -92.001c0 -37.333 -13.333 -68.666 -40 -93.999s-58.334 -38 -95.001 -38
c-42.667 0 -77.167 16.5 -103.5 49.5s-39.5 72.5 -39.5 118.5s12.833 88.833 38.5 128.5s59.667 73.334 102 101.001s86.833 48.167 133.5 61.5z" />
    <glyph glyph-name="quoteright" unicode="&#x2019;" 
d="M504 1044l0.000976562 86.002c32.667 9.33301 64 24 94 44s52 45 66 75l-23 -2l-18 -2c-38 0 -68 11.167 -90 33.5s-33 53.5 -33 93.5c0 37.333 13.167 68.5 39.5 93.5s58.166 37.5 95.499 37.5c44 0 78.833 -16.333 104.5 -49s38.5 -72.334 38.5 -119.001
c0 -66.667 -27.833 -126.334 -83.5 -179.001s-119.167 -90 -190.5 -112z" />
    <glyph glyph-name="quotesinglbase" unicode="&#x201a;" 
d="M504 -225l0.000976562 85.999c81.333 26.667 134.666 67.667 159.999 123l-41 -9c-24.667 0 -46 5.33301 -64 16s-32.333 25.834 -43 45.501s-16 42.834 -16 69.501c0 38 13 69.5 39 94.5s58 37.5 96 37.5c44 0 78.833 -16.333 104.5 -49s38.5 -72.334 38.5 -119.001
c0 -68 -27.333 -128.667 -82 -182s-118.667 -91 -192 -113z" />
    <glyph glyph-name="c291" unicode="&#x201b;" horiz-adv-x="1974" 
 />
    <glyph glyph-name="quotedblleft" unicode="&#x201c;" 
d="M545 1503l0.00292969 -86.001c-36.667 -8 -68.834 -22.167 -96.501 -42.5s-48.834 -45.833 -63.501 -76.5l17 2l20 3c40.667 0 71.667 -11.667 93 -35c22.667 -22.667 34 -53.334 34 -92.001c0 -37.333 -13.333 -68.666 -40 -93.999s-58.334 -38 -95.001 -38
c-42 0 -76.5 17 -103.5 51s-40.5 73 -40.5 117c0 46 13 88.833 39 128.5s60.167 73.334 102.5 101.001s86.833 48.167 133.5 61.5zM999.003 1503v-85.998c-34 -8.66699 -65.833 -23.334 -95.5 -44.001s-50.834 -45.667 -63.501 -75l19 2l22 3
c36.667 0 66.334 -11.5 89.001 -34.5s34 -53.833 34 -92.5c0 -37.333 -13.333 -68.666 -40 -93.999s-58.667 -38 -96 -38c-42.667 0 -77.167 16.5 -103.5 49.5s-39.5 72.5 -39.5 118.5c0 47.333 13 90.333 39 129s60.333 72 103 100c20 13.333 41 25.166 63 35.499
s45 19.166 69 26.499z" />
    <glyph glyph-name="quotedblright" unicode="&#x201d;" 
d="M274 1044l0.000976562 86c35.333 10 67.166 25 95.499 45s49.833 44.667 64.5 74l-21 -2l-20 -2c-38 0 -68 11.167 -90 33.5s-33 53.5 -33 93.5c0 37.333 13.167 68.5 39.5 93.5s58.5 37.5 96.5 37.5c44 0 78.833 -16.333 104.5 -49s38.5 -72.334 38.5 -119.001
c0 -67.333 -27.833 -127.166 -83.5 -179.499s-119.5 -89.5 -191.5 -111.5zM729.001 1044v85.999c37.333 10 70.333 25 99 45s49 44.667 61 74l-18 -2l-19 -2c-39.333 0 -70.333 11.333 -93 34s-34 53.667 -34 93c0 37.333 13.167 68.5 39.5 93.5s58.166 37.5 95.499 37.5
c42.667 0 77.334 -16.5 104.001 -49.5s40 -72.5 40 -118.5c0 -67.333 -27.5 -127.166 -82.5 -179.499s-119.167 -89.5 -192.5 -111.5z" />
    <glyph glyph-name="quotedblbase" unicode="&#x201e;" 
d="M713 1008l229 0.00195312v-82h-242l-106 -828c-11.333 -92 -26.5 -162.333 -45.5 -211s-52.5 -86.334 -100.5 -113.001s-115.333 -40 -202 -40h-41v82h41c72.667 0 125.667 10 159 30s55.666 48.667 66.999 86s22 97 32 179l94 815h-229v82h245l17 147
c18 142 51.833 238.333 101.5 289s120.834 76 213.501 76h74v-82h-94c-54 0 -95.333 -13.833 -124 -41.5s-48.667 -63.834 -60 -108.501c-5.33301 -22 -9.5 -45.5 -12.5 -70.5s-4.5 -49.833 -4.5 -74.5z" />
    <glyph glyph-name="c292" unicode="&#x201f;" horiz-adv-x="1974" 
 />
    <glyph glyph-name="dagger" unicode="&#x2020;" 
d="M676 770l-21 -770h-82l-20 770l16 205l-270 -17v111l270 -16l-16 422h127l-16 -422l270 16v-111l-270 17z" />
    <glyph glyph-name="daggerdbl" unicode="&#x2021;" 
d="M569 1008l-270 -13v111l270 -16l-16 385h131l-16 -385l270 16v-111l-270 13v-541l270 16v-110l-270 12l16 -385h-131l16 385l-270 -12v110l270 -16v541z" />
    <glyph glyph-name="bullet" unicode="&#x2022;" horiz-adv-x="1974" 
 />
    <glyph glyph-name="c293" unicode="&#x2023;" horiz-adv-x="1974" 
 />
    <glyph glyph-name="c294" unicode="&#x2024;" horiz-adv-x="1974" 
 />
    <glyph glyph-name="c295" unicode="&#x2025;" horiz-adv-x="1974" 
 />
    <glyph glyph-name="ellipsis" unicode="&#x2026;" 
d="M78 98c0 34.667 12.167 65.167 36.5 91.5s54.5 39.5 90.5 39.5c33.333 0 63.5 -12.833 90.5 -38.5s40.5 -56.5 40.5 -92.5c0 -34 -13.333 -63.667 -40 -89s-57 -38 -91 -38c-34.667 0 -64.5 12.667 -89.5 38s-37.5 55 -37.5 89zM487 98c0 34 12.5 64.333 37.5 91
s54.833 40 89.5 40s64.5 -13.167 89.5 -39.5s37.5 -56.833 37.5 -91.5s-12.5 -64.5 -37.5 -89.5s-54.833 -37.5 -89.5 -37.5c-34 0 -63.667 12.667 -89 38s-38 55 -38 89zM893 98c0 34.667 12.167 65.167 36.5 91.5s54.5 39.5 90.5 39.5c34 0 64.333 -13 91 -39
s40 -56.667 40 -92c0 -34 -13.333 -63.667 -40 -89s-57 -38 -91 -38c-34.667 0 -64.5 12.667 -89.5 38s-37.5 55 -37.5 89z" />
    <glyph glyph-name="c296" unicode="&#x2027;" horiz-adv-x="1974" 
 />
    <glyph glyph-name="c297" unicode="&#x2028;" horiz-adv-x="1974" 
 />
    <glyph glyph-name="c298" unicode="&#x2029;" horiz-adv-x="1974" 
 />
    <glyph glyph-name="c299" unicode="&#x202a;" horiz-adv-x="1974" 
 />
    <glyph glyph-name="c300" unicode="&#x202b;" horiz-adv-x="1974" 
 />
    <glyph glyph-name="c301" unicode="&#x202c;" horiz-adv-x="1974" 
 />
    <glyph glyph-name="c302" unicode="&#x202d;" horiz-adv-x="1974" 
 />
    <glyph glyph-name="c303" unicode="&#x202e;" horiz-adv-x="1974" 
 />
    <glyph glyph-name="c304" unicode="&#x202f;" horiz-adv-x="1974" 
 />
    <glyph glyph-name="perthousand" unicode="&#x2030;" 
d="M803 197c0 22 1 42.832 3 62.499s5.66699 40.167 11 61.5c8.66699 40.667 23.334 79.834 44.001 117.501s47.5 68.167 80.5 91.5s71.5 35 115.5 35c57.333 0 99.666 -18.5 126.999 -55.5s41 -85.167 41 -144.5c0 -94 -21.333 -182.5 -64 -265.5s-106 -124.5 -190 -124.5
c-60 0 -103 20.5 -129 61.5s-39 94.5 -39 160.5zM893 179.999c0 -23.333 2 -45.668 6 -67.001s12.5 -38.666 25.5 -51.999s31.167 -20 54.5 -20c54 0 93.5 37.667 118.5 113s37.5 147 37.5 215c0 90 -27.333 135 -82 135s-95 -36.5 -121 -109.5s-39 -144.5 -39 -214.5z
M766 1503h86l-754 -1503h-86zM78 1135c0 22 1.00098 42.8311 3.00098 62.498s5.66699 40.167 11 61.5c8.66699 40.667 23.334 79.834 44.001 117.501s47.5 68.167 80.5 91.5s71.5 35 115.5 35c57.333 0 99.666 -18.5 126.999 -55.5s41 -85.167 41 -144.5
c0 -30 -2 -59 -6 -87s-10.667 -57.333 -20 -88c-16.667 -57.333 -44.5 -106.666 -83.5 -147.999s-87.167 -62 -144.5 -62c-60.667 0 -103.834 19.833 -129.501 59.5s-38.5 92.167 -38.5 157.5zM168.001 1118c0 -23.333 2 -45.668 6 -67.001s12.5 -38.666 25.5 -51.999
s31.167 -20 54.5 -20c54 0 93.5 37.667 118.5 113s37.5 147 37.5 215c0 90 -27.333 135 -82 135s-95 -36.5 -121 -109.5s-39 -144.5 -39 -214.5zM332.001 196.993c0 53.333 9 108.333 27 165s46.333 104.667 85 144s86 59 142 59c57.333 0 100.333 -18.833 129 -56.5
s43 -85.5 43 -143.5c0 -54.667 -9 -112.167 -27 -172.5s-45.833 -111.666 -83.5 -153.999s-85.5 -63.5 -143.5 -63.5c-60 0 -103.667 20.667 -131 62s-41 94.666 -41 159.999zM422.001 179.993c0 -23.333 2 -45.668 6 -67.001s12.5 -38.666 25.5 -51.999
s31.167 -20 54.5 -20c54.667 0 95 37.5 121 112.5s39 146.833 39 215.5c0 36.667 -6.66699 68 -20 94c-12 27.333 -34 41 -66 41c-54.667 0 -95 -36.5 -121 -109.5s-39 -144.5 -39 -214.5z" />
    <glyph glyph-name="c305" unicode="&#x2031;" horiz-adv-x="1974" 
 />
    <glyph glyph-name="c306" unicode="&#x2032;" horiz-adv-x="1974" 
 />
    <glyph glyph-name="c307" unicode="&#x2033;" horiz-adv-x="1974" 
 />
    <glyph glyph-name="c308" unicode="&#x2034;" horiz-adv-x="1974" 
 />
    <glyph glyph-name="c309" unicode="&#x2035;" horiz-adv-x="1974" 
 />
    <glyph glyph-name="c310" unicode="&#x2036;" horiz-adv-x="1974" 
 />
    <glyph glyph-name="c311" unicode="&#x2037;" horiz-adv-x="1974" 
 />
    <glyph glyph-name="c312" unicode="&#x2038;" horiz-adv-x="1974" 
 />
    <glyph glyph-name="guilsinglleft" unicode="&#x2039;" 
d="M807 1241l57 -61l-467 -451l467 -446l-57 -66l-533 512z" />
    <glyph glyph-name="guilsinglright" unicode="&#x203a;" 
d="M594 0v1004h-315v81h409v-1085h-94z" />
    <glyph glyph-name="trademark" unicode="&#x2122;" 
d="M1171 1503v-577h-81v495h-5l-196 -495h-53l-189 495h-4v-495h-82v577h139l164 -405l172 405h135zM492 1503v-82h-193v-495h-82v495h-197v82h472z" />
    <glyph glyph-name=".null" horiz-adv-x="0" 
 />
    <glyph glyph-name="nonmarkingreturn" 
 />
    <glyph glyph-name="c275" 
d="M922 991l-41.0029 -77.9971c-102 74 -199 111 -291 111c-57.333 0 -107.833 -19 -151.5 -57s-65.5 -84.667 -65.5 -140c0 -54.667 22 -98 66 -130s102.333 -62.333 175 -91c56.667 -22 105.5 -43.833 146.5 -65.5s76.5 -44.5 106.5 -68.5c58 -45.333 87 -114 87 -206
c0 -56.667 -15.167 -107.334 -45.5 -152.001s-70.666 -79 -120.999 -103s-103.833 -36 -160.5 -36c-62.667 0 -133 17.333 -211 52c-39.333 17.333 -75 36.166 -107 56.499s-61.333 43.166 -88 68.499l53 77c44.667 -44.667 100.834 -83.834 168.501 -117.501
s130.5 -50.5 188.5 -50.5c42.667 0 80.834 7.5 114.501 22.5s60.5 37.167 80.5 66.5s30 65.333 30 108c0 72 -20.833 124.833 -62.5 158.5s-105.5 66.834 -191.5 99.501c-70.667 27.333 -126.667 52.333 -168 75s-77.5 54.167 -108.5 94.5s-46.5 90.5 -46.5 150.5
c0 50 14.833 95.5 44.5 136.5s69 73.5 118 97.5s99.833 36 152.5 36c116 0 225.333 -38.333 328 -115zM617.997 -15.9971h74l-49 -144c28 0 52.167 -2.33301 72.5 -7s40.5 -13 60.5 -25c36.667 -22.667 55 -58.334 55 -107.001c0 -28.667 -9 -55.167 -27 -79.5
s-40.667 -42.166 -68 -53.499c-27.333 -12.667 -55.666 -19 -84.999 -19c-46 0 -110 18 -192 54l24 65l77 -24c28 -8.66699 51.667 -13 71 -13c12.667 0 24.167 1.33301 34.5 4s22.166 8 35.499 16c24 13.333 36 31.333 36 54c0 44 -39.667 66 -119 66h-20.5
c-6.33301 0 -14.5 -0.666992 -24.5 -2l-28 -2z" />
    <glyph glyph-name="c276" 
d="M975 631l-357.004 -0.000976562v82h451v-742h-94v234h-4c-21.333 -69.333 -65.166 -125.666 -131.499 -168.999s-137.166 -65 -212.499 -65c-130 0 -232.833 54.167 -308.5 162.5s-113.5 294.5 -113.5 558.5c0 209.333 18.667 373.333 56 492s88.5 201.5 153.5 248.5
s142.5 70.5 232.5 70.5c76 0 139.333 -15.333 190 -46s89.334 -73 116.001 -127s43.667 -117.667 51 -191h-103v16c0 45.333 -9.66699 88.5 -29 129.5s-47.666 74.167 -84.999 99.5c-17.333 12 -36.833 21.167 -58.5 27.5s-44.834 9.5 -69.501 9.5
c-104 0 -182 -37 -234 -111s-85 -160.667 -99 -260c-6 -48.667 -10.667 -99.834 -14 -153.501s-5 -110.834 -5 -171.501c0 -181.333 20 -338.666 60 -471.999s129.333 -200 268 -200c58 0 112.333 14.5 163 43.5s92.834 77.833 126.501 146.5s50.5 158.334 50.5 269.001v119
zM290.996 1823h90c12 -109.333 99.333 -164 262 -164c162 0 249.333 54.667 262 164h90c-18 -164 -130 -246 -336 -246c-92.667 0 -165.167 11.833 -217.5 35.5s-88 52.667 -107 87s-33.5 75.5 -43.5 123.5z" />
  </font>
</defs>
</svg>
