<?xml version="1.0" standalone="no"?>
<!DOCTYPE svg PUBLIC "-//W3C//DTD SVG 1.1//EN" "http://www.w3.org/Graphics/SVG/1.1/DTD/svg11.dtd" >
<svg>
<metadata>
Created by FontForge 20090914 at Fri Jun  3 09:28:11 2016
 By www-data
Generated by Fontographer 3.5
</metadata>
<defs>
<font id="Kabel" horiz-adv-x="1085" >
  <font-face 
    font-family="Kabel"
    font-weight="400"
    font-stretch="normal"
    units-per-em="2048"
    panose-1="2 11 5 0 0 0 0 0 0 0"
    ascent="1638"
    descent="-410"
    x-height="1075"
    cap-height="1456"
    bbox="25 -408.003 2109 1958"
    underline-thickness="50"
    underline-position="-75"
    unicode-range="U+0020-U+00FF"
  />
<missing-glyph horiz-adv-x="1536" 
d="M256 0v1280h1024v-1280h-1024zM1247 33v1214h-958v-1214h958z" />
    <glyph glyph-name=".notdef" horiz-adv-x="1536" 
d="M256 0v1280h1024v-1280h-1024zM1247 33v1214h-958v-1214h958z" />
    <glyph glyph-name="space" unicode=" " horiz-adv-x="713" 
 />
    <glyph glyph-name="exclam" unicode="!" horiz-adv-x="436" 
d="M109 1436l217 37l-27 -1059l-162 -37zM100 109l117 143l117 -143l-117 -144z" />
    <glyph glyph-name="dollar" unicode="$" horiz-adv-x="1532" 
d="M1104 1470l98 -36l-774 -1475l-98 39zM426 737c-90 0 -166.333 31.334 -229 94.001c-63.333 63.333 -95 140.666 -95 231.999v72c0 90 31.5 166.333 94.5 229s139.5 94 229.5 94s166.333 -31.333 229 -94c63.333 -62.667 95 -139 95 -229v-72
c0 -90 -31.667 -166.333 -95 -229c-64 -64.667 -140.333 -97 -229 -97zM426 1311c-49.333 0 -91.667 -17.167 -127 -51.5s-53 -75.833 -53 -124.5v-72c0 -50.667 17.667 -93 53 -127c34 -35.333 76.333 -53 127 -53s93.667 17.667 129 53c34 34 51 76.333 51 127v72
c0 48.667 -17 90.167 -51 124.5s-77 51.5 -129 51.5zM1143 2.00098c-90 0 -166.667 31.333 -230 94c-62.667 62.667 -94 140 -94 232v71c0 90.667 31.333 167.334 94 230.001c63.333 62.667 140 94 230 94s166.333 -31.333 229 -94s94 -139.334 94 -230.001v-71
c0 -90 -31.333 -166.667 -94 -230c-64 -64 -140.333 -96 -229 -96zM1143 575.001c-49.333 0 -91.667 -17 -127 -51s-53 -75.667 -53 -125v-71c0 -50.667 17.667 -93 53 -127c34 -36 76.333 -54 127 -54s93.667 18 129 54c34 34 51 76.333 51 127v71c0 49.333 -17 91 -51 125
s-77 51 -129 51z" />
    <glyph glyph-name="percent" unicode="%" horiz-adv-x="1532" 
d="M1104 1470l98 -36l-774 -1475l-98 39zM1104 678c82 0 153.667 -28 215 -84c72 -65.333 108 -155.333 108 -270c0 -112 -36 -202.333 -108 -271c-62.667 -58.667 -134.334 -88 -215.001 -88c-82 0 -153.667 28.667 -215 86c-72.667 67.333 -109 158.333 -109 273
c0 112 36.333 201.333 109 268c62.667 57.333 134.334 86 215.001 86zM1104 537c-48 0 -88.332 -16.667 -120.999 -50c-38 -38 -57 -93 -57 -165c0 -71.333 18.333 -126 55 -164c32.667 -32.667 73.667 -49 123 -49s90.333 16.333 123 49c39.333 38 59 92.667 59 164
c0 72 -19 127 -57 165c-32.667 33.333 -74.334 50 -125.001 50zM750.001 1100c0 -112 -36.333 -202.333 -109 -271c-62.667 -58.667 -134.334 -88 -215.001 -88c-82 0 -153.667 28.667 -215 86c-72.667 67.333 -109 158.333 -109 273c0 112 36.333 201.333 109 268
c62.667 57.333 134.334 86 215.001 86c82 0 153.667 -28 215 -84c72.667 -65.333 109 -155.333 109 -270zM608.001 1098c0 72 -18.999 127.333 -56.999 166c-32.667 32.667 -74.334 49 -125.001 49c-48 0 -88.333 -16.333 -121 -49c-38 -38.667 -57 -94 -57 -166
c0 -71.333 18.333 -126 55 -164c32.667 -32.667 73.667 -49 123 -49s90.333 16.333 123 49c39.333 38 59 92.667 59 164z" />
    <glyph glyph-name="ampersand" unicode="&#x26;" horiz-adv-x="1212" 
d="M25 326c0 88.667 18.998 163.001 56.998 223.001c24.667 39.333 75 92 151 158l140 122l-105 138c-44.667 57.333 -67 120.666 -67 189.999c0 84.667 29.333 156.334 88 215.001s130.334 88 215.001 88s156.334 -28.667 215.001 -86c57.333 -58.667 86 -131 86 -217
c0 -40.667 -6.33301 -77.334 -19 -110.001c-12 -34.667 -34.333 -67.667 -67 -99l-152 -135l234 -293l211 281l98 -125l-211 -293l211 -270l-94 -117l-207 268l-47 -65c-66.667 -88.667 -127.334 -149.667 -182.001 -183c-56 -32.667 -112.667 -49 -170 -49
c-113.333 0 -205.666 34.333 -276.999 103c-72 66.667 -108 152 -108 256zM200.998 326.001c0 -48 20.333 -89.667 61 -125c41.333 -36 90 -54 146 -54c42 0 81.333 13 118 39c37.333 26 77 66.333 119 121l60 80l-246 330l-76 -68c-65.333 -64 -104.333 -104.333 -117 -121
c-43.333 -60 -65 -127.333 -65 -202zM343.998 1157c0 -23.333 3.33398 -41.667 10.001 -55c5.33301 -14 15 -30.333 29 -49l100 -125l142 125c26 30 39 64.667 39 104c0 44 -16.667 81.667 -50 113c-32.667 31.333 -69.334 47 -110.001 47c-44 0 -81.667 -15 -113 -45
s-47 -68.333 -47 -115z" />
    <glyph glyph-name="quotesingle" unicode="'" horiz-adv-x="651" 
d="M330 1509l-130.999 -144.999l75 -70c10 -10.667 16.333 -21.5 19 -32.5s4 -20.5 4 -28.5c0 -20.667 -7.66699 -40.334 -23 -59.001l-86 -146l72 -57l133 170c22 28.667 37.667 52.334 47 71.001c10 18 15 38.667 15 62c0 31.333 -5 59.333 -15 84
c-10.667 23.333 -24.334 45.666 -41.001 66.999z" />
    <glyph glyph-name="parenleft" unicode="(" horiz-adv-x="547" 
d="M309 -141c-77.333 177.333 -132.665 343 -165.998 497c-27.333 128.667 -41 257 -41 385c0 134 13 261.667 39 383c32.667 150.667 88.667 314.667 168 492l135 -53c-70.667 -164 -118.334 -321 -143.001 -471c-14.667 -93.333 -22 -210.333 -22 -351
c0 -147.333 6.66699 -264 20 -350c23.333 -146 71.666 -305.667 144.999 -479z" />
    <glyph glyph-name="parenright" unicode=")" horiz-adv-x="551" 
d="M242 1616l-135.999 -53c71.333 -164 119.333 -321 144 -471c14.667 -93.333 22 -210.333 22 -351c0 -147.333 -6.66699 -264 -20 -350c-23.333 -146 -72 -305.667 -146 -479l136 -53c77.333 177.333 132.666 343 165.999 497c27.333 128.667 41 257 41 385
c0 134 -13 261.667 -39 383c-33.333 150.667 -89.333 314.667 -168 492z" />
    <glyph glyph-name="asterisk" unicode="*" horiz-adv-x="831" 
d="M360 1434v-172l-147 84l-53 -93l151 -84l-149 -86l53 -92l145 90v-172h109v172l147 -90l54 92l-156 88l156 84l-54 93l-147 -86v172h-109z" />
    <glyph glyph-name="comma" unicode="," horiz-adv-x="584" 
d="M283 217l198 16l-235 -573l-144 -16z" />
    <glyph glyph-name="hyphen" unicode="-" horiz-adv-x="709" 
d="M139 610h467l-37 -143h-467z" />
    <glyph glyph-name="period" unicode="." horiz-adv-x="492" 
d="M102 96l144 -190l143 190l-143 193z" />
    <glyph glyph-name="zero" unicode="0" horiz-adv-x="1237" 
d="M102 717c0 232 49.332 416.333 147.999 553c94 130.667 217.667 196 371 196c150 0 273.167 -66.833 369.5 -200.5s144.5 -316.5 144.5 -548.5c0 -233.333 -48 -417 -144 -551c-95.333 -135.333 -218.666 -203 -369.999 -203c-152 0 -275 65.667 -369 197
c-100 138 -150 323.667 -150 557zM282.999 717c0 -172 27.333 -311.333 82 -418c60 -116 145.333 -174 256 -174c110 0 195.333 57.333 256 172c54 105.333 81 245.333 81 420c0 172 -27 311.333 -81 418c-60.667 116 -146 174 -256 174c-110.667 0 -196 -57.333 -256 -172
c-54.667 -105.333 -82 -245.333 -82 -420z" />
    <glyph glyph-name="one" unicode="1" horiz-adv-x="727" 
d="M158 1004l-76 116l543 359v-1461l-181 -36v1212z" />
    <glyph glyph-name="two" unicode="2" horiz-adv-x="1225" 
d="M602 1470c142 0 258.668 -47.668 350.001 -143.001c92 -95.333 138 -208 138 -338c0 -64 -12.333 -126 -37 -186c-26 -60 -61.667 -113.333 -107 -160l-438 -479h614l-49 -164h-967l701 768c30 30 51.667 60 65 90c19.333 40 29 83 29 129
c0 84.667 -28.667 155.667 -86 213s-128.333 86 -213 86c-82 0 -152.333 -28 -211 -84s-88 -127 -88 -213c0 -82 24.667 -149.667 74 -203c49.333 -52.667 112.666 -84.667 189.999 -96l-114 -164c-98.667 30 -178.667 88 -240 174c-62.667 84.667 -94 180.334 -94 287.001
c0 130 45.667 243.333 137 340c90 95.333 205.333 143 346 143z" />
    <glyph glyph-name="three" unicode="3" horiz-adv-x="1167" 
d="M412 856l178.002 -0.000976562c78 0 139.333 20.667 184 62c44 39.333 66 94.333 66 165c0 71.333 -24 127.333 -72 168c-49.333 40 -119 60 -209 60c-75.333 0 -135.333 -18 -180 -54c-28.667 -22.667 -57.334 -60 -86.001 -112l-148 80
c23.333 48.667 53.5 91.5 90.5 128.5s73.833 63.167 110.5 78.5c56 28.667 127 43 213 43c46.667 0 91 -3.66699 133 -11c42.667 -6.66699 79.667 -17.334 111 -32.001c58.667 -27.333 107.667 -69.666 147 -126.999c46.667 -67.333 70 -141.333 70 -222
c0 -74.667 -19.167 -140.667 -57.5 -198s-86.833 -94.333 -145.5 -111c62.667 -9.33301 118.667 -46 168 -110c54.667 -71.333 82 -154 82 -248c0 -128.667 -38.333 -235.334 -115 -320.001c-84.667 -94 -200 -141 -346 -141c-74.667 0 -126.334 2 -155.001 6
c-57.333 8 -102 25.667 -134 53c-46 26 -84.667 55.333 -116 88c-37.333 38.667 -70.333 87.334 -99 146.001l148 88c26 -71.333 71.667 -126.666 137 -165.999c56 -34 113.333 -51 172 -51c94 0 169.667 22.333 227 67c67.333 52 101 128.667 101 230
c0 77.333 -27.333 143.333 -82 198c-56 53.333 -127.667 80 -215 80h-178v162z" />
    <glyph glyph-name="four" unicode="4" horiz-adv-x="1284" 
d="M104 375l863 1108v-951h213l-37 -157h-176v-357l-179 -36v393h-684zM430 532h356v457z" />
    <glyph glyph-name="five" unicode="5" horiz-adv-x="1186" 
d="M240 1434l-0.000976562 -717c43.333 24.667 93.666 44.834 150.999 60.501s116 23.5 176 23.5c92 0 169.333 -30 232 -90s94 -139.333 94 -238c0 -92.667 -30.667 -169.667 -92 -231c-62.667 -63.333 -140.667 -95 -234 -95c-68 0 -128.667 12.333 -182 37
c-53.333 23.333 -101.666 57.666 -144.999 102.999l-136 -133c68.667 -64.667 142 -112.667 220 -144c76 -32.667 157 -49 243 -49c140.667 0 261.5 49.833 362.5 149.5s151.5 220.5 151.5 362.5c0 140.667 -50.5 261.5 -151.5 362.5s-221.833 151.5 -362.5 151.5
c-23.333 0 -47.666 -2.66699 -72.999 -8c-27.333 -5.33301 -54 -14.333 -80 -27v322h534l37 160h-745z" />
    <glyph glyph-name="six" unicode="6" horiz-adv-x="1249" 
d="M299 483c0 -91.333 32 -169 96 -233c64.667 -64 142.667 -96 234 -96s169 32 233 96s96 141.667 96 233c0 92 -32 170 -96 234s-141.667 96 -233 96s-169.333 -32 -234 -96c-64 -64 -96 -142 -96 -234zM113 483c0 122 27.333 245.668 82 371.001
c17.333 39.333 52 103.666 104 192.999c38 61.333 88.667 130 152 206c62.667 76.667 123.334 143 182.001 199l192 -39c-82 -75.333 -154.333 -151 -217 -227c-64 -76.667 -122 -158 -174 -244c22 16.667 52 29.667 90 39c15.333 4 49.666 9.33301 102.999 16
c156.667 0 283.667 -49.667 381 -149c92.667 -95.333 139 -217 139 -365c0 -143.333 -50.667 -265.333 -152 -366c-100.667 -101.333 -222.667 -152 -366 -152s-265 50.667 -365 152c-100.667 99.333 -151 221.333 -151 366z" />
    <glyph glyph-name="seven" unicode="7" horiz-adv-x="1151" 
d="M150 1434h899l-447 -1416l-229 -36l438 1278h-709z" />
    <glyph glyph-name="eight" unicode="8" horiz-adv-x="1217" 
d="M168 1085c0 -76 27.332 -146.999 81.999 -212.999c43.333 -52.667 87 -84.667 131 -96c-56 -5.33301 -111.333 -36 -166 -92c-72.667 -72.667 -109 -164 -109 -274c0 -124.667 43.167 -230.667 129.5 -318s191.5 -131 315.5 -131h119
c122.667 0 228.334 43.667 317.001 131c87.333 86 131 189.667 131 311c0 112 -36.667 205 -110 279c-56 57.333 -112 88.666 -168 93.999c43.333 12.667 87 44.667 131 96c54.667 66 82 137 82 213c0 110.667 -38.333 202.167 -115 274.5s-166 108.5 -268 108.5h-119
c-104 0 -193.333 -35.333 -268 -106c-76.667 -72.667 -115 -165 -115 -277zM361.999 1085c0 64.667 22.667 119.333 68 164c44 44 98 66 162 66h37c62.667 0 116.667 -22.667 162 -68c44.667 -44.667 67 -98.667 67 -162c0 -64 -21.667 -117.667 -65 -161
c-45.333 -45.333 -100 -68 -164 -68h-37c-64 0 -118 22.667 -162 68c-45.333 43.333 -68 97 -68 161zM306.999 410c0 78.667 28 146.001 84 202.001c54.667 54.667 121.667 82 201 82h37c77.333 0 144 -28 200 -84s84 -122.667 84 -200
c0 -80.667 -26.5 -148.334 -79.5 -203.001s-121.167 -82 -204.5 -82h-37c-79.333 0 -146.333 28 -201 84c-56 54.667 -84 121.667 -84 201z" />
    <glyph glyph-name="nine" unicode="9" horiz-adv-x="1237" 
d="M289 944c0 -91.333 32 -169.166 96 -233.499s141.667 -96.5 233 -96.5c92 0 170 32.167 234 96.5s96 142.166 96 233.499s-32 169.166 -96 233.499s-142 96.5 -234 96.5c-91.333 0 -169 -32.167 -233 -96.5s-96 -142.166 -96 -233.499zM100 944
c0 143.333 50.5 265.5 151.5 366.5s223.167 151.5 366.5 151.5c144 0 266.333 -49.667 367 -149c100 -101.333 150 -224.333 150 -369c0 -121.333 -27.333 -245 -82 -371c-18 -39.333 -53 -103.333 -105 -192c-38 -61.333 -88.5 -130.333 -151.5 -207
s-123.833 -143 -182.5 -199l-190 54c98 94 169.667 166.333 215 217c65.333 73.333 123.333 153 174 239c-22 -16 -52 -29 -90 -39c-15.333 -4 -49.333 -9.33301 -102 -16c-157.333 0 -283 49.333 -377 148c-96 96.667 -144 218.667 -144 366z" />
    <glyph glyph-name="colon" unicode=":" horiz-adv-x="489" 
d="M102 983l144 -190l143 190l-143 193zM102 98l144 -190l143 190l-143 193z" />
    <glyph glyph-name="semicolon" unicode=";" horiz-adv-x="631" 
d="M283 217l198 16l-235 -573l-144 -16zM385 793l143 190l-143 193l-143 -193z" />
    <glyph glyph-name="question" unicode="?" horiz-adv-x="977" 
d="M338 57l141 -190l146 190l-146 193zM391 393l175.997 37v94c0 44 9 83 27 117s51.167 65.333 99.5 94s90.833 73 127.5 133c35.333 60 53 126.333 53 199c0 110.667 -38.167 204.167 -114.5 280.5s-169.833 114.5 -280.5 114.5c-95.333 0 -178.666 -29.333 -249.999 -88
c-61.333 -50.667 -103.666 -113.334 -126.999 -188.001l172 -72c12.667 52 38 92.333 76 121c38.667 28.667 81.667 43 129 43c60 0 110.667 -19.667 152 -59c39.333 -41.333 59 -92 59 -152c0 -44 -10.333 -82.333 -31 -115
c-13.333 -21.333 -31.666 -39.666 -54.999 -54.999c-60 -39.333 -105.667 -78.333 -137 -117c-50.667 -62.667 -76 -135 -76 -217v-170z" />
    <glyph glyph-name="A" unicode="A" horiz-adv-x="1638" 
d="M819 1464l717 -1446l-170 -36l-242 487h-606l-244 -487l-172 36zM819 1077l-225 -465h463z" />
    <glyph glyph-name="B" unicode="B" horiz-adv-x="1104" 
d="M102 1434l471 -0.000976562c62 0 117.333 -11.667 166 -35c48 -24.667 89 -59 123 -103l40.5 -67c13 -22 20.833 -42.167 23.5 -60.5s4.66699 -37.833 6 -58.5c1.33301 -22 2 -41 2 -57c0 -28.667 -5.33301 -56.667 -16 -84c-12.667 -28.667 -32.667 -61 -60 -97
c-13.333 -16 -30.333 -32.333 -51 -49c-26 -21.333 -47.333 -34.333 -64 -39c32 -2.66699 67.667 -20.334 107 -53.001c34 -27.333 62.667 -58.666 86 -93.999c40.667 -61.333 61 -131 61 -209c0 -125.333 -42.333 -229.666 -127 -312.999
c-77.333 -76.667 -164 -115 -260 -115h-508v1434zM281 685.999v-521.999h262c76 0 140 25.167 192 75.5s78 113.166 78 188.499c0 78 -25.333 140.667 -76 188c-52 46.667 -116 70 -192 70h-264zM281 836h235.001c57.333 0 109.333 18.333 156 55
c54.667 43.333 82 97.333 82 162c0 80.667 -22.667 138.667 -68 174c-36.667 28.667 -89.334 43 -158.001 43h-247v-434z" />
    <glyph glyph-name="C" unicode="C" horiz-adv-x="1280" 
d="M281 717c0 156.667 56 291 168 403c110 110.667 243.667 166 401 166c46.667 0 95 -5.33301 145 -16c49.333 -12.667 85.666 -27 108.999 -43l-37 203c-13.333 6.66699 -44.666 14 -93.999 22c-50.667 8 -91.667 12 -123 12c-206 0 -382.167 -73 -528.5 -219
s-219.5 -322 -219.5 -528s73.333 -382.333 220 -529c146 -146 322 -219 528 -219c60 0 113.333 5.66699 160 17c46 9.33301 91 23 135 41l33 219c-50.667 -34 -102.667 -58.667 -156 -74c-54.667 -16.667 -112 -25 -172 -25c-157.333 0 -291 56 -401 168
c-112 110.667 -168 244.667 -168 402z" />
    <glyph glyph-name="D" unicode="D" horiz-adv-x="1233" 
d="M102 0l0.000976562 1434h279c208.667 0 386 -68.333 532 -205c144.667 -138 217 -309.333 217 -514c0 -203.333 -72.333 -373.333 -217 -510s-321.334 -205 -530.001 -205h-281zM383.001 164c156.667 0 291 53.333 403 160c110.667 104.667 166 235 166 391
c0 154 -55.333 282.333 -166 385c-110 102 -245 153 -405 153h-96v-1089h98z" />
    <glyph glyph-name="E" unicode="E" horiz-adv-x="1114" 
d="M102 1434h748l39 -164h-608v-430h538v-160h-538v-500h731l-39 -180h-871v1434z" />
    <glyph glyph-name="F" unicode="F" horiz-adv-x="1026" 
d="M102 1434h781l39 -164h-641v-430h495v-160h-493v-662l-181 -36v1452z" />
    <glyph glyph-name="G" unicode="G" horiz-adv-x="1376" 
d="M281 717c0 156.667 56.001 291 168.001 403c110 110.667 243.667 166 401 166c50.667 0 102.5 -7.5 155.5 -22.5s98.167 -36.167 135.5 -63.5l94 154c-54.667 31.333 -109.334 55.666 -164.001 72.999c-75.333 24.667 -149 37 -221 37c-206 0 -382.167 -73 -528.5 -219
s-219.5 -322 -219.5 -528c0 -207.333 71.667 -383 215 -527c142 -144.667 319.667 -217 533 -217c144.667 0 286 43.667 424 131v613h-426l-49 -182h299v-326c-36 -19.333 -75.667 -33.666 -119 -42.999c-45.333 -10.667 -88.333 -16 -129 -16c-156 0 -289.667 55 -401 165
c-112 110.667 -168 244.667 -168 402z" />
    <glyph glyph-name="H" unicode="H" horiz-adv-x="1280" 
d="M102 1417l179 37v-625h716v588l181 37v-1436l-183 -34v682h-714v-648l-179 -34v1433z" />
    <glyph glyph-name="I" unicode="I" horiz-adv-x="487" 
d="M334 1456v-1436l-180 -36v1435z" />
    <glyph glyph-name="J" unicode="J" horiz-adv-x="1024" 
d="M743 1448v-913c0 -131.333 -5.33301 -218.333 -16 -261c-18 -70.667 -59.667 -117 -125 -139c-23.333 -6.66699 -42.333 -10 -57 -10c-56 0 -110 28 -162 84l-104 -135c36.667 -42.667 77.167 -73.5 121.5 -92.5s91.166 -28.5 140.499 -28.5c30 0 60 4 90 12
c28.667 6.66699 55.334 17 80.001 31c64 26 112.333 67.667 145 125c44 76.667 66 190 66 340v1022z" />
    <glyph glyph-name="K" unicode="K" horiz-adv-x="1167" 
d="M102 1421l181 25v-711l618 723l164 -78l-576 -663l576 -690l-184 -66l-598 737v-680l-181 -34v1437z" />
    <glyph glyph-name="L" unicode="L" horiz-adv-x="1024" 
d="M102 1415v-1415h781l39 164h-641v1288z" />
    <glyph glyph-name="M" unicode="M" horiz-adv-x="1819" 
d="M403 1452l-301 -1434l174 -36l201 960l428 -942l434 956l203 -974l174 36l-305 1452l-506 -1120z" />
    <glyph glyph-name="N" unicode="N" horiz-adv-x="1352" 
d="M1249 1454l-180 -37v-1009l-967 1046v-1470l181 34v992l966 -1026v1470z" />
    <glyph glyph-name="O" unicode="O" horiz-adv-x="1700" 
d="M850 1464c206 0 382 -73 528 -219s219 -322 219 -528s-73 -382.333 -219 -529c-146 -146 -322 -219 -528 -219s-382 73 -528 219c-146.667 146.667 -220 323 -220 529s73.167 382 219.5 528s322.5 219 528.5 219zM850 1286c-157.333 0 -291 -55.333 -401 -166
c-112 -112 -168 -246.333 -168 -403c0 -157.333 56 -291.333 168 -402c110 -112 243.667 -168 401 -168c156.667 0 291 56 403 168c110.667 110.667 166 244.667 166 402c0 156.667 -55.333 291 -166 403c-112 110.667 -246.333 166 -403 166z" />
    <glyph glyph-name="P" unicode="P" horiz-adv-x="1098" 
d="M102 1434l-0.000976562 -1450l181 32v519h229c122.667 0 228.334 43.667 317.001 131c89.333 87.333 134 193 134 317s-44 230.667 -132 320c-88.667 87.333 -195 131 -319 131h-410zM280.999 713l-0.000976562 541.999h233c74 0 137.5 -26.5 190.5 -79.5
s79.5 -117.167 79.5 -192.5s-25.667 -138.666 -77 -189.999c-53.333 -53.333 -117.666 -80 -192.999 -80h-233z" />
    <glyph glyph-name="Q" unicode="Q" horiz-adv-x="1710" 
d="M102 717c0 204.667 73.999 382.001 221.999 532.001c146 149.333 323.333 224 532 224c207.333 0 384 -74.667 530 -224c146.667 -148.667 220 -326 220 -532c0 -97.333 -19.333 -193 -58 -287c-32.667 -82 -75.667 -151 -129 -207l183 -196l-142 -107l-172 184
c-56 -40.667 -118.667 -73.334 -188 -98.001c-71.333 -26 -152.666 -39 -243.999 -39c-212.667 0 -391.667 73.667 -537 221c-144.667 148 -217 324.333 -217 529zM286.999 717.001c0 -157.333 55.168 -292.001 165.501 -404.001s244.833 -168 403.5 -168
c54.667 0 110.667 9.66699 168 29c56 18 101.667 39.333 137 64l-184 196l147 103l168 -179c34 38.667 62.667 84.667 86 138c31.333 70.667 47 144.334 47 221.001c0 156.667 -55 291 -165 403c-112 110.667 -246.667 166 -404 166
c-156.667 0 -290.334 -55.333 -401.001 -166c-112 -112 -168 -246.333 -168 -403z" />
    <glyph glyph-name="R" unicode="R" horiz-adv-x="1120" 
d="M102 1434l-0.00195312 -1418l181 -32v718l548 -718l187 32l-438 564c84.667 0 162.334 40 233.001 120c76.667 86 115 189.333 115 310c0 122.667 -43 224.334 -129 305.001c-87.333 79.333 -194.666 119 -321.999 119h-375zM282.998 1278h196c75.333 0 139 -26 191 -78
s78 -115.333 78 -190c0 -74 -26 -137.667 -78 -191s-115.667 -80 -191 -80h-196v539z" />
    <glyph glyph-name="S" unicode="S" horiz-adv-x="1073" 
d="M100 1073c0 -100.667 38.335 -185.333 115.002 -254c57.333 -52 144.666 -98.333 261.999 -139c134 -52 220.667 -106 260 -162c23.333 -32.667 35 -81 35 -145c0 -67.333 -22.333 -119.333 -67 -156c-46.667 -38 -111.667 -57 -195 -57c-60 0 -113.333 14.333 -160 43
c-28.667 17.333 -68.334 52 -119.001 104l-129 -139c45.333 -50.667 102 -94.334 170 -131.001c82 -45.333 161.333 -68 238 -68c135.333 0 246 38.333 332 115s129 173 129 289c0 103.333 -23.333 188 -70 254c-65.333 92.667 -183.333 169 -354 229
c-76.667 30 -124.667 50.667 -144 62c-77.333 44.667 -116 96.334 -116 155.001c0 64 21.5 113.167 64.5 147.5s95.833 51.5 158.5 51.5c105.333 0 201 -48 287 -144l129 138c-63.333 64 -115.333 107.667 -156 131c-70.667 40.667 -157.334 61 -260.001 61
c-113.333 0 -209.666 -36 -288.999 -108c-80.667 -74 -121 -166.333 -121 -277z" />
    <glyph glyph-name="T" unicode="T" horiz-adv-x="1100" 
d="M102 1266l39 168h856v-166h-358v-1252l-178 -34v1284h-359z" />
    <glyph glyph-name="U" unicode="U" horiz-adv-x="1284" 
d="M104 1417l-2.00098 -958c0 -148.667 52.667 -266.334 158 -353.001c100 -80 228.333 -120 385 -120c152.667 0 278.334 40 377.001 120c105.333 86.667 158 204.334 158 353.001v995l-183 -37v-958c0 -84.667 -34 -155 -102 -211s-151.333 -84 -250 -84
c-102 0 -187.333 28 -256 84c-69.333 54.667 -104 125 -104 211v995z" />
    <glyph glyph-name="V" unicode="V" horiz-adv-x="1638" 
d="M102 1415l717 -1433l717 1433l-170 37l-545 -1112l-547 1112z" />
    <glyph glyph-name="W" unicode="W" horiz-adv-x="2212" 
d="M102 1415l717 -1433l287 573l287 -573l716 1433l-172 37l-542 -1112l-197 399l338 676l-172 37l-254 -518l-262 518l-172 -37l338 -676l-193 -399l-547 1112z" />
    <glyph glyph-name="X" unicode="X" horiz-adv-x="1425" 
d="M713 948l-340 512l-180 -53l411 -619l-502 -761l189 -54l422 654l422 -654l188 54l-502 761l410 619l-197 53z" />
    <glyph glyph-name="Y" unicode="Y" horiz-adv-x="1323" 
d="M102 1405l172 59l449 -747l332 747l166 -59l-631 -1432l-170 54l219 487z" />
    <glyph glyph-name="Z" unicode="Z" horiz-adv-x="1372" 
d="M1221 1434h-1074l-45 -181h811l-811 -1253h1119l49 178h-848z" />
    <glyph glyph-name="underscore" unicode="_" horiz-adv-x="1673" 
d="M137 213l-35 -90h1434l35 90h-1434z" />
    <glyph glyph-name="grave" unicode="`" horiz-adv-x="651" 
d="M315 971l131 144.998l-75 70c-10 10.667 -16.333 21.5 -19 32.5s-4 20.5 -4 28.5c0 20.667 7.66699 40.667 23 60l86 145l-72 57l-133 -170c-22 -28.667 -37.667 -51.667 -47 -69c-10 -19.333 -15 -40.666 -15 -63.999c0 -31.333 6.33301 -61.333 19 -90
c8 -19.333 20.333 -39.666 37 -60.999z" />
    <glyph glyph-name="a" unicode="a" horiz-adv-x="1026" 
d="M242 360c0 -72 24.168 -130.166 72.501 -174.499s110.166 -66.5 185.499 -66.5c76 0 142.667 22.333 200 67c56 45.333 84 103.333 84 174c0 71.333 -28 130.333 -84 177c-57.333 46 -124 69 -200 69c-75.333 0 -137 -22.333 -185 -67
c-48.667 -46.667 -73 -106.334 -73 -179.001zM78.001 360.001c0 106.667 38.332 198.999 114.999 276.999c74.667 76.667 166 115 274 115c76.667 0 144.334 -14.333 203.001 -43s96.667 -69.667 114 -123v162c0 70.667 -17.667 123 -53 157
c-36.667 32.667 -97.334 49 -182.001 49c-83.333 0 -137.333 -2 -162 -6c-58.667 -9.33301 -125 -34.666 -199 -75.999l41 181c78 20 133.333 33 166 39c32.667 4 82 6 148 6c118.667 0 205.334 -15.667 260.001 -47c96.667 -56 145 -166.667 145 -332v-707l-164 -26v137
c-28.667 -53.333 -71.667 -91.666 -129 -114.999s-120 -35 -188 -35c-106.667 0 -198.167 37.667 -274.5 113s-114.5 166.666 -114.5 273.999z" />
    <glyph glyph-name="b" unicode="b" horiz-adv-x="1352" 
d="M111 541v1036l155 29v-701c40 53.333 88 96.333 144 129c77.333 46.667 166 70 266 70c156.667 0 289.667 -54.667 399 -164s164 -242.333 164 -399c0 -156 -54.667 -288.667 -164 -398c-110.667 -110.667 -243.667 -166 -399 -166c-156 0 -289.333 54.667 -400 164
c-110 109.333 -165 242.666 -165 399.999zM272 539.001c0 -112 39.666 -207 118.999 -285c78 -79.333 173 -119 285 -119c113.333 0 209.5 39 288.5 117s118.5 173.667 118.5 287s-39.333 209.333 -118 288c-79.333 79.333 -175.666 119 -288.999 119
c-110.667 0 -205.667 -39.667 -285 -119c-79.333 -78.667 -119 -174.667 -119 -288z" />
    <glyph glyph-name="c" unicode="c" horiz-adv-x="1059" 
d="M76 537c0 -153.333 55.333 -285.333 166 -396s243 -166 397 -166c75.333 0 144.333 12.333 207 37c42 16.667 87.667 42 137 76l-98 139c-28.667 -22.667 -61.667 -41.667 -99 -57c-48.667 -20.667 -97.667 -31 -147 -31c-116 0 -211.667 39.667 -287 119
c-76 78 -114 171 -114 279c0 112 37.833 207.167 113.5 285.5s171.5 117.5 287.5 117.5c50.667 0 99.667 -9.66699 147 -29c36 -13.333 69 -33 99 -59l98 137c-45.333 32.667 -91 58 -137 76c-64 24.667 -133 37 -207 37c-154 0 -286.333 -55.333 -397 -166
s-166 -243.667 -166 -399z" />
    <glyph glyph-name="d" unicode="d" horiz-adv-x="1321" 
d="M102 535c0 164.667 58.001 301.001 174.001 409.001c109.333 102.667 240 154 392 154c82 0 159.667 -19.333 233 -58c74 -38 128.667 -87.667 164 -149v582l154 26v-1499l-152 -29v205c-38 -56 -94 -103.667 -168 -143c-74 -41.333 -151 -62 -231 -62
c-150.667 0 -280.334 50.667 -389.001 152c-118 109.333 -177 246.666 -177 411.999zM268.001 535.001c0 -109.333 39 -203 117 -281c76.667 -79.333 171 -119 283 -119c110.667 0 204.667 39 282 117c78 78 117 172.333 117 283c0 110 -39 203.333 -117 280
c-77.333 76.667 -171.333 115 -282 115s-205 -38.333 -283 -115s-117 -170 -117 -280z" />
    <glyph glyph-name="e" unicode="e" horiz-adv-x="1245" 
d="M666 1104c108.667 0 208.332 -27.999 298.999 -83.999c74.667 -46.667 133.334 -105.334 176.001 -176.001l-809 -529c36.667 -51.333 79.667 -92 129 -122c61.333 -37.333 129.666 -56 204.999 -56c78.667 0 147.334 9.66699 206.001 29
c57.333 19.333 113.333 54 168 104l62 -157c-62.667 -45.333 -127 -79 -193 -101c-66.667 -23.333 -147.667 -35 -243 -35c-161.333 0 -295.333 55.333 -402 166c-108 109.333 -162 242.666 -162 399.999c0 152.667 54 284.334 162 395.001s242 166 402 166z
M419.998 862.001c-58.667 -46 -101.667 -99.332 -129 -159.999c-22 -47.333 -33 -97 -33 -149c0 -20.667 2 -40.334 6 -59.001c4 -20.667 6.66699 -35.667 8 -45l637 413c-50 57.333 -125.667 86 -227 86c-46.667 0 -91 -6 -133 -18c-42.667 -14 -85.667 -36.667 -129 -68z
" />
    <glyph glyph-name="f" unicode="f" horiz-adv-x="963" 
d="M199 1075l108 0.000976562v49c0 93.333 33.5 172.666 100.5 237.999s148.167 98 243.5 98h158l29 -143h-185c-50 0 -93 -18.333 -129 -55c-36.667 -38.667 -55 -84 -55 -136v-51h340v-162h-340v-903l-162 -24v927h-153z" />
    <glyph glyph-name="g" unicode="g" horiz-adv-x="1102" 
d="M555 1114c9.33301 0 24.334 -0.669922 45.001 -2.00293s37 -2 49 -2c76.667 0 149.667 5.33301 219 16c68.667 11.333 114 23.666 136 36.999l-29 -151l-105 -39c24.667 -19.333 46.667 -48.666 66 -87.999c26 -54.667 39 -117 39 -187c0 -77.333 -20 -149 -60 -215
c-31.333 -51.333 -62 -84 -92 -98c50.667 -19.333 93.667 -53.333 129 -102c48 -67.333 72 -152 72 -254c0 -112 -39.667 -210.333 -119 -295c-88.667 -94.667 -205.334 -142 -350.001 -142c-95.333 0 -187.333 24.667 -276 74c-75.333 42.667 -142.333 98 -201 166l131 92
c40.667 -52 85.667 -92.333 135 -121c61.333 -35.333 131.666 -53 210.999 -53c86 0 159 25.333 219 76c58.667 50.667 88 118.334 88 203.001c0 86 -26.667 154 -80 204c-54.667 49.333 -130.334 74 -227.001 74c-54.667 0 -101.167 -4 -139.5 -12
s-75.166 -22.333 -110.499 -43l19 133c-45.333 24.667 -83 55.334 -113 92.001c-52 62.667 -78 136.334 -78 221.001c0 126 41 227 123 303c80.667 75.333 180.334 113 299.001 113zM555.001 966.997c-82 0 -149 -31.668 -201 -95.001c-44.667 -54 -67 -112 -67 -174
c0 -64 21.667 -122.667 65 -176c52 -62.667 119.667 -94 203 -94c84.667 0 152.334 29.333 203.001 88c43.333 50.667 65 111.334 65 182.001c0 70 -21.667 130.333 -65 181c-50.667 58.667 -118.334 88 -203.001 88z" />
    <glyph glyph-name="h" unicode="h" horiz-adv-x="1114" 
d="M78 -14v1460l160 24v-544c47.333 64 99 110.333 155 139c66 34 139 51 219 51c104 0 197 -28 279 -84c96.667 -66.667 145 -156.667 145 -270v-750l-159 -26v755c0 78 -31 134.667 -93 170c-51.333 30 -126.333 45 -225 45c-78 0 -148.333 -28 -211 -84
c-73.333 -65.333 -110 -152 -110 -260v-600z" />
    <glyph glyph-name="i" unicode="i" horiz-adv-x="391" 
d="M115 1057v-1075l161 32v1076zM197 1200l108 141l-108 146l-107 -146z" />
    <glyph glyph-name="j" unicode="j" horiz-adv-x="838" 
d="M453 1065v-1114c0 -40 -17.333 -70.667 -52 -92c-34 -23.333 -88.333 -39 -163 -47l53 -136c72 0 137.333 18 196 54c83.333 50 125 123.667 125 221v1139zM532 1243l109 141l-109 146l-106 -146z" />
    <glyph glyph-name="k" unicode="k" horiz-adv-x="1065" 
d="M76 1456l162 19v-918l475 543l170 -58l-465 -497l518 -516l-170 -49l-528 550v-510l-162 -26v1462z" />
    <glyph glyph-name="l" unicode="l" horiz-adv-x="391" 
d="M115 -18l161 34v1459l-161 -33v-1460z" />
    <glyph glyph-name="m" unicode="m" horiz-adv-x="1614" 
d="M78 1063l160.001 24.001v-161c52.667 70.667 97 117.667 133 141c52 34 107.333 51 166 51c83.333 0 150.666 -13.667 201.999 -41c41.333 -22 80.333 -58 117 -108c53.333 50 92.333 82 117 96c61.333 35.333 137.666 53 228.999 53c97.333 0 176 -28 236 -84
c66.667 -62.667 100 -152.667 100 -270v-750l-162 -28v757c0 79.333 -21 136 -63 170c-35.333 28.667 -90 43 -164 43c-64 0 -120 -19 -168 -57c-61.333 -49.333 -92 -120.333 -92 -213v-672l-160 -28v757c0 79.333 -17.667 134.666 -53 165.999s-91.333 47 -168 47
c-61.333 0 -118.666 -28 -171.999 -84c-65.333 -68 -98 -154.667 -98 -260v-598l-160 -28v1077z" />
    <glyph glyph-name="n" unicode="n" horiz-adv-x="1114" 
d="M78 -16l-0.000976562 1079l160 24v-163c48.667 65.333 100.334 112.333 155.001 141c66 34 139 51 219 51c123.333 0 222.333 -28 297 -84c84.667 -62.667 127 -152.667 127 -270v-750l-159 -28v757c0 60 -19.333 108.667 -58 146c-46 44.667 -114.333 67 -205 67
c-106 0 -193.333 -28 -262 -84c-76 -62.667 -114 -149.334 -114 -260.001v-598z" />
    <glyph glyph-name="o" unicode="o" horiz-adv-x="1276" 
d="M637 1098c155.333 0 287.666 -54.667 396.999 -164s164 -241.666 164 -396.999c0 -156 -54.667 -288.667 -164 -398s-241.666 -164 -396.999 -164c-154 0 -285.667 54.667 -395 164s-164 242 -164 398c0 155.333 54.667 287.666 164 396.999s241 164 395 164zM637 936
c-109.333 0 -203 -39 -281 -117c-77.333 -78 -116 -172 -116 -282c0 -109.333 38.667 -203 116 -281c78 -78 171.667 -117 281 -117s202.833 39 280.5 117s116.5 171.667 116.5 281c0 110 -38.833 204 -116.5 282s-171.167 117 -280.5 117z" />
    <glyph glyph-name="p" unicode="p" horiz-adv-x="1247" 
d="M78 1063l153 27.001v-228c42.667 70 98.5 125.833 167.5 167.5s142.167 62.5 219.5 62.5c148 0 275.667 -50 383 -150c113.333 -105.333 170 -239 170 -401c0 -162.667 -56.667 -297.334 -170 -404.001c-106 -99.333 -233.667 -149 -383 -149
c-78.667 0 -151.667 20.333 -219 61c-66.667 40 -122.667 96 -168 168v-594l-153 -29v1469zM229 541.001c0 -108 37.666 -200.333 112.999 -277c75.333 -76 167.333 -114 276 -114c108 0 200.333 38 277 114c76.667 76.667 115 169 115 277c0 106 -38.333 197.333 -115 274
s-169 115 -277 115c-107.333 0 -198.666 -37.667 -273.999 -113c-76.667 -76.667 -115 -168.667 -115 -276z" />
    <glyph glyph-name="q" unicode="q" horiz-adv-x="1247" 
d="M1171 -379l-0.000976562 1469l-153 -27v-201c-44 70 -100 126 -168 168c-70 41.333 -143.667 62 -221 62c-147.333 0 -274.333 -50 -381 -150c-113.333 -105.333 -170 -239 -170 -401c0 -164 56 -298.667 168 -404c106.667 -99.333 234.334 -149 383.001 -149
c79.333 0 153 20.333 221 61c66.667 40 122.667 96 168 168v-623zM1018 541c0 -108 -37.667 -200.333 -113 -277c-74.667 -76 -166.667 -114 -276 -114c-108 0 -200.333 38 -277 114c-76 76.667 -114 169 -114 277c0 106 38 197.333 114 274c76.667 76.667 169 115 277 115
s200 -37.667 276 -113c75.333 -76.667 113 -168.667 113 -276z" />
    <glyph glyph-name="r" unicode="r" horiz-adv-x="692" 
d="M78 1063l160 23.999v-196c34 58.667 70.667 104.334 110 137.001c72.667 60 160.667 90 264 90l-53 -160c-76.667 0 -147 -29.333 -211 -88c-73.333 -68 -110 -154.667 -110 -260v-596l-160 -28v1077z" />
    <glyph glyph-name="s" unicode="s" horiz-adv-x="887" 
d="M446 1098c-40.667 0 -81.334 -4.33398 -122.001 -13.001c-41.333 -8 -73.666 -18.667 -96.999 -32c-32.667 -11.333 -64 -38.666 -94 -81.999c-36.667 -52 -55 -107.333 -55 -166c0 -82 22.333 -145.667 67 -191c56 -56 155 -99.667 297 -131
c75.333 -16 128.666 -36.333 159.999 -61c30 -26 45 -62.333 45 -109c0 -60 -21.667 -105 -65 -135c-37.333 -24.667 -82.666 -37 -135.999 -37c-110 0 -197.333 38.333 -262 115l-108 -133c39.333 -31.333 74 -56 104 -74c20.667 -12 44 -23.667 70 -35
c40.667 -12 75.334 -20.667 104.001 -26c28.667 -7.33301 58.667 -11 90 -11c120.667 0 213 32.333 277 97c58.667 58.667 88 138.334 88 239.001c0 71.333 -21.333 130 -64 176c-58.667 64.667 -159.667 111.334 -303 140.001c-61.333 12 -109 31 -143 57
c-39.333 30 -59 69.667 -59 119c0 50.667 19 88.167 57 112.5s87.667 36.5 149 36.5c89.333 0 174 -34.667 254 -104l72 119c-31.333 26 -60 46.167 -86 60.5s-51.333 26.166 -76 35.499c-26 9.33301 -52 17.666 -78 24.999c-26.667 5.33301 -55.334 8 -86.001 8z" />
    <glyph glyph-name="t" unicode="t" horiz-adv-x="838" 
d="M231 1356l162.001 25.999v-307h338v-162h-338v-579c0 -53.333 17.667 -98.333 53 -135c36 -37.333 80 -56 132 -56h182l-29 -143c-16 -4 -40.833 -7.33301 -74.5 -10s-59.834 -4 -78.501 -4c-112 0 -197.333 34 -256 102c-60.667 66.667 -91 149.334 -91 248.001v577
h-145l27 162h118v281z" />
    <glyph glyph-name="u" unicode="u" horiz-adv-x="1114" 
d="M76 1063l162 27v-746c0 -75.333 35.333 -132 106 -170c57.333 -30 127.666 -45 210.999 -45c75.333 0 145 27.333 209 82c73.333 62.667 110 140.334 110 233.001v619l162 27v-1065l-162 -25v170c-17.333 -31.333 -39.666 -60 -66.999 -86
c-80.667 -76.667 -183 -115 -307 -115c-104 0 -197 28.667 -279 86c-96.667 67.333 -145 157.666 -145 270.999v737z" />
    <glyph glyph-name="v" unicode="v" horiz-adv-x="1151" 
d="M76 1075l160 27l337 -733l340 733l160 -27l-500 -1089z" />
    <glyph glyph-name="w" unicode="w" horiz-adv-x="1841" 
d="M76 1075l168 27l313 -770l365 770l362 -770l315 770l166 -27l-460 -1089l-383 782l-385 -782z" />
    <glyph glyph-name="x" unicode="x" 
d="M127 1055l334 -482l-373 -553l168 -40l297 458l295 -458l170 40l-373 553l336 482l-170 41l-258 -398l-258 398z" />
    <glyph glyph-name="y" unicode="y" horiz-adv-x="1159" 
d="M76 1055l155 45l396 -713l309 713l147 -45l-643 -1454l-149 43l250 575z" />
    <glyph glyph-name="z" unicode="z" horiz-adv-x="936" 
d="M125 1075l-31 -162h494l-512 -913h755l62 160h-537l504 915h-735z" />
    <glyph glyph-name="nonbreakingspace" unicode="&#xa0;" horiz-adv-x="1016" 
 />
    <glyph glyph-name="exclamdown" unicode="&#xa1;" horiz-adv-x="1194" 
 />
    <glyph glyph-name="cent" unicode="&#xa2;" horiz-adv-x="938" 
 />
    <glyph glyph-name="sterling" unicode="&#xa3;" horiz-adv-x="768" 
 />
    <glyph glyph-name="currency" unicode="&#xa4;" horiz-adv-x="1264" 
 />
    <glyph glyph-name="yen" unicode="&#xa5;" horiz-adv-x="1188" 
 />
    <glyph glyph-name="brokenbar" unicode="&#xa6;" horiz-adv-x="1606" 
 />
    <glyph glyph-name="section" unicode="&#xa7;" horiz-adv-x="920" 
 />
    <glyph glyph-name="dieresis" unicode="&#xa8;" 
 />
    <glyph glyph-name="copyright" unicode="&#xa9;" 
 />
    <glyph glyph-name="ordfeminine" unicode="&#xaa;" horiz-adv-x="1014" 
 />
    <glyph glyph-name="guillemotleft" unicode="&#xab;" horiz-adv-x="1194" 
 />
    <glyph glyph-name="logicalnot" unicode="&#xac;" horiz-adv-x="1511" 
 />
    <glyph glyph-name="minus" unicode="&#xad;" horiz-adv-x="1049" 
 />
    <glyph glyph-name="registered" unicode="&#xae;" horiz-adv-x="1274" 
 />
    <glyph glyph-name="macron" unicode="&#xaf;" horiz-adv-x="997" 
 />
    <glyph glyph-name="degree" unicode="&#xb0;" horiz-adv-x="1106" 
d="M147 1434h781l39 -164h-641v-430h538v-160h-538v-500h641l-39 -180h-781v1434zM365 1624l118 166l-118 168l-119 -168zM758 1624l119 166l-119 168l-119 -168z" />
    <glyph glyph-name="plusminus" unicode="&#xb1;" horiz-adv-x="1212" 
d="M86 537c0 152.667 53.999 284.333 161.999 395c106.667 109.333 239.667 164 399 164c108 0 207 -28 297 -84c75.333 -46.667 134 -105.334 176 -176.001l-805 -525c34.667 -50 77.667 -91 129 -123c62 -36.667 129.667 -55 203 -55c78 0 146.333 9.66699 205 29
c57.333 18.667 113.333 53.334 168 104.001l61 -157c-61.333 -45.333 -124.666 -79 -189.999 -101c-66.667 -23.333 -148 -35 -244 -35c-154 0 -285.667 55.333 -395 166c-110.667 109.333 -166 242 -166 398zM400.999 855.999c-58.667 -48 -99.332 -97.667 -121.999 -149
c-24.667 -53.333 -37 -106.666 -37 -159.999c0 -20.667 2 -40.834 6 -60.501s6.66699 -34.5 8 -44.5l635 414c-50.667 57.333 -126.334 86 -227.001 86c-92 0 -179.667 -28.667 -263 -86zM498.001 1219l88 124l-88 125l-90 -125zM793.001 1219l88 124l-88 125l-91 -125z" />
    <glyph glyph-name="twosuperior" unicode="&#xb2;" horiz-adv-x="1536" 
d="M719 418l215 297h180l-215 -297l215 -295h-180zM575 715h179l-215 -297l215 -295h-181l-215 295z" />
    <glyph glyph-name="threesuperior" unicode="&#xb3;" horiz-adv-x="1528" 
d="M403 715h181l211 -297l-211 -295h-181l213 295zM938 715l215 -297l-215 -295h-178l213 295l-213 297h178z" />
    <glyph glyph-name="acute" unicode="&#xb4;" horiz-adv-x="907" 
d="M283 207l198 16l-235 -573l-144 -17zM604 207l199 16l-236 -573l-143 -17z" />
    <glyph glyph-name="mu" unicode="&#xb5;" horiz-adv-x="907" 
d="M623 1272l-199 -17l235 574l144 16zM102 1255l236 574l143 16l-180 -573z" />
    <glyph glyph-name="onequarter" unicode="&#xbc;" horiz-adv-x="2179" 
d="M1249 1452l-180 -37v-1009l-967 1046v-1470l181 34v992l966 -1026v1470zM1358 680h717v-141h-717v141zM1358 1110c0 100 34.667 184.667 104 254c70 69.333 154.667 104 254 104c100 0 184.667 -34.667 254 -104c70 -69.333 105 -154 105 -254
c0 -99.333 -35 -184 -105 -254c-69.333 -69.333 -154 -104 -254 -104c-99.333 0 -184 34.667 -254 104c-69.333 70 -104 154.667 -104 254zM1501 1110c0 -60 21.333 -110.667 64 -152c40.667 -42 91 -63 151 -63s111.333 21 154 63c40.667 41.333 61 92 61 152
s-20.333 111.333 -61 154c-42.667 40.667 -94 61 -154 61s-110.333 -20.333 -151 -61c-42.667 -42.667 -64 -94 -64 -154z" />
    <glyph glyph-name="Agrave" unicode="&#xc0;" horiz-adv-x="1638" 
d="M819 1464l717 -1446l-170 -36l-242 487h-606l-244 -487l-172 36zM819 1077l-233 -465h471z" />
    <glyph glyph-name="Agrave" unicode="&#x410;" horiz-adv-x="1638" 
d="M819 1464l717 -1446l-170 -36l-242 487h-606l-244 -487l-172 36zM819 1077l-233 -465h471z" />
    <glyph glyph-name="Aacute" unicode="&#xc1;" horiz-adv-x="1098" 
d="M102 1434l781.001 0.000976562l39 -164h-641v-420h264c125.333 0 231.666 -40.333 318.999 -121s131 -182.334 131 -305.001s-43 -223.667 -129 -303c-87.333 -80.667 -194.333 -121 -321 -121h-443v1434zM281.001 178.001h264c76 0 140 22.5 192 67.5s78 104.5 78 178.5
s-25.5 133.833 -76.5 179.5s-115.5 68.5 -193.5 68.5h-264v-494z" />
    <glyph glyph-name="Aacute" unicode="&#x411;" horiz-adv-x="1098" 
d="M102 1434l781.001 0.000976562l39 -164h-641v-420h264c125.333 0 231.666 -40.333 318.999 -121s131 -182.334 131 -305.001s-43 -223.667 -129 -303c-87.333 -80.667 -194.333 -121 -321 -121h-443v1434zM281.001 178.001h264c76 0 140 22.5 192 67.5s78 104.5 78 178.5
s-25.5 133.833 -76.5 179.5s-115.5 68.5 -193.5 68.5h-264v-494z" />
    <glyph glyph-name="Acircumflex" unicode="&#xc2;" horiz-adv-x="1104" 
d="M102 1434l471 -0.000976562c62 0 117.333 -11.667 166 -35c48 -24.667 89 -59 123 -103l40.5 -67c13 -22 20.833 -42.167 23.5 -60.5s4.66699 -37.833 6 -58.5c1.33301 -22 2 -41 2 -57c0 -28.667 -5.33301 -56.667 -16 -84c-12.667 -28.667 -32.667 -61 -60 -97
c-13.333 -16 -30.333 -32.333 -51 -49c-26 -21.333 -47.333 -34.333 -64 -39c32 -2.66699 67.667 -20.334 107 -53.001c34 -27.333 62.667 -58.666 86 -93.999c40.667 -61.333 61 -131 61 -209c0 -125.333 -42.333 -229.666 -127 -312.999
c-77.333 -76.667 -164 -115 -260 -115h-508v1434zM281 685.999v-521.999h262c76 0 140 25.167 192 75.5s78 113.166 78 188.499c0 78 -25.333 140.667 -76 188c-52 46.667 -116 70 -192 70h-264zM281 836h235.001c57.333 0 109.333 18.333 156 55
c54.667 43.333 82 97.333 82 162c0 80.667 -22.667 138.667 -68 174c-36.667 28.667 -89.334 43 -158.001 43h-247v-434z" />
    <glyph glyph-name="Acircumflex" unicode="&#x412;" horiz-adv-x="1104" 
d="M102 1434l471 -0.000976562c62 0 117.333 -11.667 166 -35c48 -24.667 89 -59 123 -103l40.5 -67c13 -22 20.833 -42.167 23.5 -60.5s4.66699 -37.833 6 -58.5c1.33301 -22 2 -41 2 -57c0 -28.667 -5.33301 -56.667 -16 -84c-12.667 -28.667 -32.667 -61 -60 -97
c-13.333 -16 -30.333 -32.333 -51 -49c-26 -21.333 -47.333 -34.333 -64 -39c32 -2.66699 67.667 -20.334 107 -53.001c34 -27.333 62.667 -58.666 86 -93.999c40.667 -61.333 61 -131 61 -209c0 -125.333 -42.333 -229.666 -127 -312.999
c-77.333 -76.667 -164 -115 -260 -115h-508v1434zM281 685.999v-521.999h262c76 0 140 25.167 192 75.5s78 113.166 78 188.499c0 78 -25.333 140.667 -76 188c-52 46.667 -116 70 -192 70h-264zM281 836h235.001c57.333 0 109.333 18.333 156 55
c54.667 43.333 82 97.333 82 162c0 80.667 -22.667 138.667 -68 174c-36.667 28.667 -89.334 43 -158.001 43h-247v-434z" />
    <glyph glyph-name="Atilde" unicode="&#xc3;" horiz-adv-x="1024" 
d="M102 1434h781l39 -164h-641v-1256l-179 -34v1454z" />
    <glyph glyph-name="Atilde" unicode="&#x413;" horiz-adv-x="1024" 
d="M102 1434h781l39 -164h-641v-1256l-179 -34v1454z" />
    <glyph glyph-name="Adieresis" unicode="&#xc4;" horiz-adv-x="1495" 
d="M317 1434h899.999v-1256h176v-465l-179 -35v322h-931v-289l-181 -47v512c68.667 0 119.334 22.667 152.001 68c42 57.333 63 154.333 63 291v899zM497.999 1251v-735c0 -126.667 -15 -216.667 -45 -270c-15.333 -26 -42 -49.333 -80 -70h663v1075h-538z" />
    <glyph glyph-name="Adieresis" unicode="&#x414;" horiz-adv-x="1495" 
d="M317 1434h899.999v-1256h176v-465l-179 -35v322h-931v-289l-181 -47v512c68.667 0 119.334 22.667 152.001 68c42 57.333 63 154.333 63 291v899zM497.999 1251v-735c0 -126.667 -15 -216.667 -45 -270c-15.333 -26 -42 -49.333 -80 -70h663v1075h-538z" />
    <glyph glyph-name="Aring" unicode="&#xc5;" horiz-adv-x="1075" 
d="M102 1434h748l39 -164h-608v-430h538v-160h-538v-500h692l-39 -180h-832v1434z" />
    <glyph glyph-name="Aring" unicode="&#x415;" horiz-adv-x="1075" 
d="M102 1434h748l39 -164h-608v-430h538v-160h-538v-500h692l-39 -180h-832v1434z" />
    <glyph glyph-name="AE" unicode="&#xc6;" horiz-adv-x="1886" 
d="M123 1376l555 -665l-576 -688l172 -43l578 714v-714l180 34v680l572 -714l180 43l-576 688l553 665l-166 66l-563 -711v711l-180 -25v-686l-578 711z" />
    <glyph glyph-name="AE" unicode="&#x416;" horiz-adv-x="1886" 
d="M123 1376l555 -665l-576 -688l172 -43l578 714v-714l180 34v680l572 -714l180 43l-576 688l553 665l-166 66l-563 -711v711l-180 -25v-686l-578 711z" />
    <glyph glyph-name="Ccedilla" unicode="&#xc7;" horiz-adv-x="1167" 
d="M412 856l178 -0.000976562c78 0 139.333 20.667 184 62c44 39.333 66 94.333 66 165c0 71.333 -22.667 127.333 -68 168c-46.667 40 -113.667 60 -201 60c-74.667 0 -136.667 -18 -186 -54c-34 -24 -64.667 -61.333 -92 -112l-148 80c23.333 48.667 53.5 91.5 90.5 128.5
s73.833 63.167 110.5 78.5c56 28.667 127 43 213 43c113.333 0 199.333 -13.667 258 -41c58.667 -28.667 107.334 -74 146.001 -136c38 -61.333 57 -133 57 -215c0 -74.667 -19.167 -140.667 -57.5 -198s-86.833 -94.333 -145.5 -111c62.667 -9.33301 118.667 -46 168 -110
c54.667 -71.333 82 -154 82 -248c0 -128.667 -38.333 -235.334 -115 -320.001c-84.667 -94 -200 -141 -346 -141c-74.667 0 -126.334 2 -155.001 6c-57.333 8 -102 25.667 -134 53c-46 26 -84.667 55.333 -116 88c-37.333 38.667 -70.333 87.334 -99 146.001l148 88
c26 -71.333 71.667 -126.666 137 -165.999c56 -34 113.333 -51 172 -51c94 0 169.667 22.333 227 67c67.333 52 101 128.667 101 230c0 77.333 -27.333 143.333 -82 198c-56 53.333 -127.667 80 -215 80h-178v162z" />
    <glyph glyph-name="Ccedilla" unicode="&#x417;" horiz-adv-x="1167" 
d="M412 856l178 -0.000976562c78 0 139.333 20.667 184 62c44 39.333 66 94.333 66 165c0 71.333 -22.667 127.333 -68 168c-46.667 40 -113.667 60 -201 60c-74.667 0 -136.667 -18 -186 -54c-34 -24 -64.667 -61.333 -92 -112l-148 80c23.333 48.667 53.5 91.5 90.5 128.5
s73.833 63.167 110.5 78.5c56 28.667 127 43 213 43c113.333 0 199.333 -13.667 258 -41c58.667 -28.667 107.334 -74 146.001 -136c38 -61.333 57 -133 57 -215c0 -74.667 -19.167 -140.667 -57.5 -198s-86.833 -94.333 -145.5 -111c62.667 -9.33301 118.667 -46 168 -110
c54.667 -71.333 82 -154 82 -248c0 -128.667 -38.333 -235.334 -115 -320.001c-84.667 -94 -200 -141 -346 -141c-74.667 0 -126.334 2 -155.001 6c-57.333 8 -102 25.667 -134 53c-46 26 -84.667 55.333 -116 88c-37.333 38.667 -70.333 87.334 -99 146.001l148 88
c26 -71.333 71.667 -126.666 137 -165.999c56 -34 113.333 -51 172 -51c94 0 169.667 22.333 227 67c67.333 52 101 128.667 101 230c0 77.333 -27.333 143.333 -82 198c-56 53.333 -127.667 80 -215 80h-178v162z" />
    <glyph glyph-name="Egrave" unicode="&#xc8;" horiz-adv-x="1352" 
d="M102 1415l181 37v-1026l966 1026v-1436l-180 -34v1046l-967 -1046v1433z" />
    <glyph glyph-name="Egrave" unicode="&#x418;" horiz-adv-x="1352" 
d="M102 1415l181 37v-1026l966 1026v-1436l-180 -34v1046l-967 -1046v1433z" />
    <glyph glyph-name="Eacute" unicode="&#xc9;" horiz-adv-x="1352" 
d="M102 1415l181 37v-1026l966 1026v-1436l-180 -34v1046l-967 -1046v1433zM426 1597l106 142l109 -86c10.667 -10 21.5 -16.333 32.5 -19s20.5 -4 28.5 -4c20.667 0 40.667 7.66699 60 23l145 86l58 -72l-170 -133c-23.333 -18 -44.666 -30.333 -63.999 -37
c-20.667 -6.66699 -44.667 -10 -72 -10c-32.667 0 -61.334 4.66699 -86.001 14c-12 4 -31 15 -57 33z" />
    <glyph glyph-name="Eacute" unicode="&#x419;" horiz-adv-x="1352" 
d="M102 1415l181 37v-1026l966 1026v-1436l-180 -34v1046l-967 -1046v1433zM426 1597l106 142l109 -86c10.667 -10 21.5 -16.333 32.5 -19s20.5 -4 28.5 -4c20.667 0 40.667 7.66699 60 23l145 86l58 -72l-170 -133c-23.333 -18 -44.666 -30.333 -63.999 -37
c-20.667 -6.66699 -44.667 -10 -72 -10c-32.667 0 -61.334 4.66699 -86.001 14c-12 4 -31 15 -57 33z" />
    <glyph glyph-name="Ecircumflex" unicode="&#xca;" horiz-adv-x="1167" 
d="M102 1421l181 25v-711l618 723l164 -78l-576 -663l576 -690l-184 -66l-598 737v-680l-181 -34v1437z" />
    <glyph glyph-name="Ecircumflex" unicode="&#x41a;" horiz-adv-x="1167" 
d="M102 1421l181 25v-711l618 723l164 -78l-576 -663l576 -690l-184 -66l-598 737v-680l-181 -34v1437z" />
    <glyph glyph-name="Edieresis" unicode="&#xcb;" horiz-adv-x="1401" 
d="M401 1432l897 1.99902v-1416l-180 -36v1273h-534v-880c0 -88.667 -7 -156.334 -21 -203.001c-22 -75.333 -66.333 -128.666 -133 -159.999c-52 -20 -97 -30 -135 -30c-28.667 0 -54.667 4 -78 12c-23.333 6.66699 -50 19 -80 37l-35 211
c15.333 -19.333 41.333 -39.333 78 -60c35.333 -21.333 68.333 -32 99 -32c13.333 0 25.333 2.66699 36 8c33.333 13.333 56 31 68 53c12 20.667 18 55.334 18 104.001v1117z" />
    <glyph glyph-name="Edieresis" unicode="&#x41b;" horiz-adv-x="1401" 
d="M401 1432l897 1.99902v-1416l-180 -36v1273h-534v-880c0 -88.667 -7 -156.334 -21 -203.001c-22 -75.333 -66.333 -128.666 -133 -159.999c-52 -20 -97 -30 -135 -30c-28.667 0 -54.667 4 -78 12c-23.333 6.66699 -50 19 -80 37l-35 211
c15.333 -19.333 41.333 -39.333 78 -60c35.333 -21.333 68.333 -32 99 -32c13.333 0 25.333 2.66699 36 8c33.333 13.333 56 31 68 53c12 20.667 18 55.334 18 104.001v1117z" />
    <glyph glyph-name="Igrave" unicode="&#xcc;" horiz-adv-x="1819" 
d="M403 1452l-301 -1434l174 -36l201 960l428 -942l434 956l203 -974l174 36l-305 1452l-506 -1120z" />
    <glyph glyph-name="Igrave" unicode="&#x41c;" horiz-adv-x="1819" 
d="M403 1452l-301 -1434l174 -36l201 960l428 -942l434 956l203 -974l174 36l-305 1452l-506 -1120z" />
    <glyph glyph-name="Iacute" unicode="&#xcd;" horiz-adv-x="1280" 
d="M102 1417l179 37v-625h716v588l181 37v-1436l-183 -34v682h-714v-648l-179 -34v1433z" />
    <glyph glyph-name="Iacute" unicode="&#x41d;" horiz-adv-x="1280" 
d="M102 1417l179 37v-625h716v588l181 37v-1436l-183 -34v682h-714v-648l-179 -34v1433z" />
    <glyph glyph-name="Icircumflex" unicode="&#xce;" horiz-adv-x="1700" 
d="M850 1464c206 0 382 -73 528 -219s219 -322 219 -528s-73 -382.333 -219 -529c-146 -146 -322 -219 -528 -219s-382 73 -528 219c-146.667 146.667 -220 323 -220 529s73.167 382 219.5 528s322.5 219 528.5 219zM850 1286c-157.333 0 -291 -55.333 -401 -166
c-112 -112 -168 -246.333 -168 -403c0 -157.333 56 -291.333 168 -402c110 -112 243.667 -168 401 -168c156.667 0 291 56 403 168c110.667 110.667 166 244.667 166 402c0 156.667 -55.333 291 -166 403c-112 110.667 -246.333 166 -403 166z" />
    <glyph glyph-name="Icircumflex" unicode="&#x41e;" horiz-adv-x="1700" 
d="M850 1464c206 0 382 -73 528 -219s219 -322 219 -528s-73 -382.333 -219 -529c-146 -146 -322 -219 -528 -219s-382 73 -528 219c-146.667 146.667 -220 323 -220 529s73.167 382 219.5 528s322.5 219 528.5 219zM850 1286c-157.333 0 -291 -55.333 -401 -166
c-112 -112 -168 -246.333 -168 -403c0 -157.333 56 -291.333 168 -402c110 -112 243.667 -168 401 -168c156.667 0 291 56 403 168c110.667 110.667 166 244.667 166 402c0 156.667 -55.333 291 -166 403c-112 110.667 -246.333 166 -403 166z" />
    <glyph glyph-name="Idieresis" unicode="&#xcf;" horiz-adv-x="1280" 
d="M102 1434h1076v-1418l-183 -34v1273h-714v-1239l-179 -34v1452z" />
    <glyph glyph-name="Idieresis" unicode="&#x41f;" horiz-adv-x="1280" 
d="M102 1434h1076v-1418l-183 -34v1273h-714v-1239l-179 -34v1452z" />
    <glyph glyph-name="Eth" unicode="&#xd0;" horiz-adv-x="1098" 
d="M102 1434l-0.000976562 -1450l181 32v519h229c122.667 0 228.334 43.667 317.001 131c89.333 87.333 134 193 134 317s-44 230.667 -132 320c-88.667 87.333 -195 131 -319 131h-410zM280.999 713l-0.000976562 541.999h233c74 0 137.5 -26.5 190.5 -79.5
s79.5 -117.167 79.5 -192.5s-25.667 -138.666 -77 -189.999c-53.333 -53.333 -117.666 -80 -192.999 -80h-233z" />
    <glyph glyph-name="Eth" unicode="&#x420;" horiz-adv-x="1098" 
d="M102 1434l-0.000976562 -1450l181 32v519h229c122.667 0 228.334 43.667 317.001 131c89.333 87.333 134 193 134 317s-44 230.667 -132 320c-88.667 87.333 -195 131 -319 131h-410zM280.999 713l-0.000976562 541.999h233c74 0 137.5 -26.5 190.5 -79.5
s79.5 -117.167 79.5 -192.5s-25.667 -138.666 -77 -189.999c-53.333 -53.333 -117.666 -80 -192.999 -80h-233z" />
    <glyph glyph-name="Ntilde" unicode="&#xd1;" horiz-adv-x="1280" 
d="M281 717c0 156.667 56 291 168 403c110 110.667 243.667 166 401 166c46.667 0 95 -5.33301 145 -16c49.333 -12.667 85.666 -27 108.999 -43l-37 203c-13.333 6.66699 -44.666 14 -93.999 22c-50.667 8 -91.667 12 -123 12c-206 0 -382.167 -73 -528.5 -219
s-219.5 -322 -219.5 -528s73.333 -382.333 220 -529c146 -146 322 -219 528 -219c60 0 113.333 5.66699 160 17c46 9.33301 91 23 135 41l33 219c-50.667 -34 -102.667 -58.667 -156 -74c-54.667 -16.667 -112 -25 -172 -25c-157.333 0 -291 56 -401 168
c-112 110.667 -168 244.667 -168 402z" />
    <glyph glyph-name="Ntilde" unicode="&#x421;" horiz-adv-x="1280" 
d="M281 717c0 156.667 56 291 168 403c110 110.667 243.667 166 401 166c46.667 0 95 -5.33301 145 -16c49.333 -12.667 85.666 -27 108.999 -43l-37 203c-13.333 6.66699 -44.666 14 -93.999 22c-50.667 8 -91.667 12 -123 12c-206 0 -382.167 -73 -528.5 -219
s-219.5 -322 -219.5 -528s73.333 -382.333 220 -529c146 -146 322 -219 528 -219c60 0 113.333 5.66699 160 17c46 9.33301 91 23 135 41l33 219c-50.667 -34 -102.667 -58.667 -156 -74c-54.667 -16.667 -112 -25 -172 -25c-157.333 0 -291 56 -401 168
c-112 110.667 -168 244.667 -168 402z" />
    <glyph glyph-name="Ograve" unicode="&#xd2;" horiz-adv-x="1100" 
d="M102 1266l39 168h856v-166h-358v-1252l-178 -34v1284h-359z" />
    <glyph glyph-name="Ograve" unicode="&#x422;" horiz-adv-x="1100" 
d="M102 1266l39 168h856v-166h-358v-1252l-178 -34v1284h-359z" />
    <glyph glyph-name="Oacute" unicode="&#xd3;" horiz-adv-x="1323" 
d="M102 1405l172 59l449 -747l332 747l166 -59l-631 -1432l-170 54l219 487z" />
    <glyph glyph-name="Oacute" unicode="&#x423;" horiz-adv-x="1323" 
d="M102 1405l172 59l449 -747l332 747l166 -59l-631 -1432l-170 54l219 487z" />
    <glyph glyph-name="Ocircumflex" unicode="&#xd4;" horiz-adv-x="1593" 
d="M885 1452l0.000976562 -187.999h47c168 0 311.333 -52 430 -156c117.333 -105.333 176 -232.333 176 -381s-59.333 -275.667 -178 -381s-261.334 -158 -428.001 -158h-47v-170l-180 -36v206h-48c-166 0 -308 52.667 -426 158c-117.333 105.333 -176 232.333 -176 381
c0 147.333 58.667 273.666 176 378.999c118 105.333 260 158 426 158h48v151zM657.001 1087c-116 0 -214.333 -34.668 -295 -104.001c-81.333 -70.667 -122 -156 -122 -256c0 -99.333 40.5 -184.166 121.5 -254.499s179.5 -105.5 295.5 -105.5h48v720h-48zM932.001 367
c117.333 0 217 34.668 299 104.001s123 154.666 123 255.999c0 98 -41 182.5 -123 253.5s-181.667 106.5 -299 106.5h-47v-720h47z" />
    <glyph glyph-name="Ocircumflex" unicode="&#x424;" horiz-adv-x="1593" 
d="M885 1452l0.000976562 -187.999h47c168 0 311.333 -52 430 -156c117.333 -105.333 176 -232.333 176 -381s-59.333 -275.667 -178 -381s-261.334 -158 -428.001 -158h-47v-170l-180 -36v206h-48c-166 0 -308 52.667 -426 158c-117.333 105.333 -176 232.333 -176 381
c0 147.333 58.667 273.666 176 378.999c118 105.333 260 158 426 158h48v151zM657.001 1087c-116 0 -214.333 -34.668 -295 -104.001c-81.333 -70.667 -122 -156 -122 -256c0 -99.333 40.5 -184.166 121.5 -254.499s179.5 -105.5 295.5 -105.5h48v720h-48zM932.001 367
c117.333 0 217 34.668 299 104.001s123 154.666 123 255.999c0 98 -41 182.5 -123 253.5s-181.667 106.5 -299 106.5h-47v-720h47z" />
    <glyph glyph-name="Otilde" unicode="&#xd5;" horiz-adv-x="1425" 
d="M713 948l-340 512l-180 -53l411 -619l-502 -761l189 -54l422 654l422 -654l188 54l-502 761l410 619l-197 53z" />
    <glyph glyph-name="Otilde" unicode="&#x425;" horiz-adv-x="1425" 
d="M713 948l-340 512l-180 -53l411 -619l-502 -761l189 -54l422 654l422 -654l188 54l-502 761l410 619l-197 53z" />
    <glyph glyph-name="Odieresis" unicode="&#xd6;" horiz-adv-x="1460" 
d="M102 1415v-1415h1076v-303l180 35v426h-180v1294l-183 -37v-1257h-714v1294z" />
    <glyph glyph-name="Odieresis" unicode="&#x426;" horiz-adv-x="1460" 
d="M102 1415v-1415h1076v-303l180 35v426h-180v1294l-183 -37v-1257h-714v1294z" />
    <glyph glyph-name="multiply" unicode="&#xd7;" horiz-adv-x="1100" 
d="M102 1415l-0.000976562 -644.999c0 -74 30.333 -136.667 91 -188c58.667 -53.333 130.334 -80 215.001 -80h411v-520l180 34v1436l-180 -37v-770h-411c-36 0 -65.667 12.333 -89 37c-24 23.333 -36 52.666 -36 87.999v682z" />
    <glyph glyph-name="multiply" unicode="&#x427;" horiz-adv-x="1100" 
d="M102 1415l-0.000976562 -644.999c0 -74 30.333 -136.667 91 -188c58.667 -53.333 130.334 -80 215.001 -80h411v-520l180 34v1436l-180 -37v-770h-411c-36 0 -65.667 12.333 -89 37c-24 23.333 -36 52.666 -36 87.999v682z" />
    <glyph glyph-name="Oslash" unicode="&#xd8;" horiz-adv-x="1712" 
d="M102 1415v-1415h1508v1452l-180 -37v-1239h-486v1276l-180 -37v-1237h-481v1274z" />
    <glyph glyph-name="Oslash" unicode="&#x428;" horiz-adv-x="1712" 
d="M102 1415v-1415h1508v1452l-180 -37v-1239h-486v1276l-180 -37v-1237h-481v1274z" />
    <glyph glyph-name="Ugrave" unicode="&#xd9;" horiz-adv-x="1892" 
d="M102 1415v-1415h1508v-285l180 35v426h-180v1276l-180 -37v-1239h-486v1276l-180 -37v-1237h-481v1274z" />
    <glyph glyph-name="Ugrave" unicode="&#x429;" horiz-adv-x="1892" 
d="M102 1415v-1415h1508v-285l180 35v426h-180v1276l-180 -37v-1239h-486v1276l-180 -37v-1237h-481v1274z" />
    <glyph glyph-name="Uacute" unicode="&#xda;" horiz-adv-x="1313" 
d="M141 1434h356.999v-535h262c122.667 0 228.334 -43.667 317.001 -131s133 -193 133 -317c0 -124.667 -43.667 -230.667 -131 -318c-88.667 -88.667 -195 -133 -319 -133h-441v1274h-217zM495.999 721l0.000976562 -542.999h264c73.333 0 136.666 26.667 189.999 80
s80 117.666 80 192.999c0 74.667 -26 138.667 -78 192c-53.333 52 -117.333 78 -192 78h-264z" />
    <glyph glyph-name="Uacute" unicode="&#x42a;" horiz-adv-x="1313" 
d="M141 1434h356.999v-535h262c122.667 0 228.334 -43.667 317.001 -131s133 -193 133 -317c0 -124.667 -43.667 -230.667 -131 -318c-88.667 -88.667 -195 -133 -319 -133h-441v1274h-217zM495.999 721l0.000976562 -542.999h264c73.333 0 136.666 26.667 189.999 80
s80 117.666 80 192.999c0 74.667 -26 138.667 -78 192c-53.333 52 -117.333 78 -192 78h-264z" />
    <glyph glyph-name="Ucircumflex" unicode="&#xdb;" horiz-adv-x="1362" 
d="M102 1417l180.999 37v-555h262c122.667 0 228.334 -43.667 317.001 -131s133 -193 133 -317c0 -124.667 -43.667 -230.667 -131 -318c-88.667 -88.667 -195 -133 -319 -133h-443v1417zM280.999 721l0.000976562 -542.999h264c73.333 0 136.666 26.667 189.999 80
s80 117.666 80 192.999c0 74.667 -26 138.667 -78 192c-53.333 52 -117.333 78 -192 78h-264zM1079 1417l181 37v-1436l-181 -36v1435z" />
    <glyph glyph-name="Ucircumflex" unicode="&#x42b;" horiz-adv-x="1362" 
d="M102 1417l180.999 37v-555h262c122.667 0 228.334 -43.667 317.001 -131s133 -193 133 -317c0 -124.667 -43.667 -230.667 -131 -318c-88.667 -88.667 -195 -133 -319 -133h-443v1417zM280.999 721l0.000976562 -542.999h264c73.333 0 136.666 26.667 189.999 80
s80 117.666 80 192.999c0 74.667 -26 138.667 -78 192c-53.333 52 -117.333 78 -192 78h-264zM1079 1417l181 37v-1436l-181 -36v1435z" />
    <glyph glyph-name="Udieresis" unicode="&#xdc;" horiz-adv-x="1098" 
d="M102 0l-0.000976562 1417l181 37v-555h262c122.667 0 228.334 -43.667 317.001 -131s133 -193 133 -317c0 -124.667 -43.667 -230.667 -131 -318c-88.667 -88.667 -195 -133 -319 -133h-443zM280.999 721l0.000976562 -542.999h264c73.333 0 136.666 26.667 189.999 80
s80 117.666 80 192.999c0 74.667 -26 138.667 -78 192c-53.333 52 -117.333 78 -192 78h-264z" />
    <glyph glyph-name="Udieresis" unicode="&#x42c;" horiz-adv-x="1098" 
d="M102 0l-0.000976562 1417l181 37v-555h262c122.667 0 228.334 -43.667 317.001 -131s133 -193 133 -317c0 -124.667 -43.667 -230.667 -131 -318c-88.667 -88.667 -195 -133 -319 -133h-443zM280.999 721l0.000976562 -542.999h264c73.333 0 136.666 26.667 189.999 80
s80 117.666 80 192.999c0 74.667 -26 138.667 -78 192c-53.333 52 -117.333 78 -192 78h-264z" />
    <glyph glyph-name="Yacute" unicode="&#xdd;" horiz-adv-x="1251" 
d="M139 1415c36 20.667 69.668 34.333 101.001 41c30 5.33301 83.667 8 161 8c206.667 0 383 -73 529 -219s219 -322 219 -528s-73 -382.333 -219 -529c-146 -146 -322.333 -219 -529 -219c-60 0 -108.333 4.33301 -145 13c-36.667 6.66699 -76.334 18.667 -119.001 36
l-35 215c36 -22.667 80.667 -42.334 134 -59.001c52.667 -18 107.667 -27 165 -27c150.667 0 281.167 52.667 391.5 158s165.5 223.333 165.5 354h-645v162h645c0 110.667 -47.667 212.334 -143 305.001c-109.333 106.667 -247.333 160 -414 160c-50 0 -101 -7.5 -153 -22.5
s-96.333 -36.167 -133 -63.5z" />
    <glyph glyph-name="Yacute" unicode="&#x42d;" horiz-adv-x="1251" 
d="M139 1415c36 20.667 69.668 34.333 101.001 41c30 5.33301 83.667 8 161 8c206.667 0 383 -73 529 -219s219 -322 219 -528s-73 -382.333 -219 -529c-146 -146 -322.333 -219 -529 -219c-60 0 -108.333 4.33301 -145 13c-36.667 6.66699 -76.334 18.667 -119.001 36
l-35 215c36 -22.667 80.667 -42.334 134 -59.001c52.667 -18 107.667 -27 165 -27c150.667 0 281.167 52.667 391.5 158s165.5 223.333 165.5 354h-645v162h645c0 110.667 -47.667 212.334 -143 305.001c-109.333 106.667 -247.333 160 -414 160c-50 0 -101 -7.5 -153 -22.5
s-96.333 -36.167 -133 -63.5z" />
    <glyph glyph-name="Thorn" unicode="&#xde;" horiz-adv-x="2023" 
d="M102 1417l181.001 33v-610h143c27.333 172 112.666 319.333 255.999 442c142 122.667 306 184 492 184c206 0 382 -73 528 -219s219 -322 219 -528c0 -204.667 -73 -381 -219 -529c-146 -147.333 -322 -221 -528 -221c-205.333 0 -383 76.667 -533 230
c-143.333 146 -215 306.333 -215 481h-143v-664l-181 -32v1433zM1174 1288c-157.333 0 -291.333 -55.333 -402 -166c-112 -112 -168 -246.333 -168 -403c0 -157.333 56 -291.333 168 -402c110.667 -111.333 244.667 -167 402 -167c156.667 0 291 55.667 403 167
c110.667 110.667 166 244.667 166 402c0 156.667 -55.333 291 -166 403c-112 110.667 -246.333 166 -403 166z" />
    <glyph glyph-name="Thorn" unicode="&#x42e;" horiz-adv-x="2023" 
d="M102 1417l181.001 33v-610h143c27.333 172 112.666 319.333 255.999 442c142 122.667 306 184 492 184c206 0 382 -73 528 -219s219 -322 219 -528c0 -204.667 -73 -381 -219 -529c-146 -147.333 -322 -221 -528 -221c-205.333 0 -383 76.667 -533 230
c-143.333 146 -215 306.333 -215 481h-143v-664l-181 -32v1433zM1174 1288c-157.333 0 -291.333 -55.333 -402 -166c-112 -112 -168 -246.333 -168 -403c0 -157.333 56 -291.333 168 -402c110.667 -111.333 244.667 -167 402 -167c156.667 0 291 55.667 403 167
c110.667 110.667 166 244.667 166 402c0 156.667 -55.333 291 -166 403c-112 110.667 -246.333 166 -403 166z" />
    <glyph glyph-name="germandbls" unicode="&#xdf;" horiz-adv-x="1118" 
d="M190 1010c0 122.667 44 224.333 132 305c86 79.333 192.333 119 319 119h375v-1418l-180 -32v718l-549 -718l-185 32l437 564c-84.667 0 -162.667 40 -234 120c-76.667 86 -115 189.333 -115 310zM371 1010c0 -74 25.833 -137.667 77.5 -191s115.167 -80 190.5 -80h197
v539h-197c-75.333 0 -138.833 -26 -190.5 -78s-77.5 -115.333 -77.5 -190z" />
    <glyph glyph-name="germandbls" unicode="&#x42f;" horiz-adv-x="1118" 
d="M190 1010c0 122.667 44 224.333 132 305c86 79.333 192.333 119 319 119h375v-1418l-180 -32v718l-549 -718l-185 32l437 564c-84.667 0 -162.667 40 -234 120c-76.667 86 -115 189.333 -115 310zM371 1010c0 -74 25.833 -137.667 77.5 -191s115.167 -80 190.5 -80h197
v539h-197c-75.333 0 -138.833 -26 -190.5 -78s-77.5 -115.333 -77.5 -190z" />
    <glyph glyph-name="agrave" unicode="&#xe0;" horiz-adv-x="1016" 
d="M240 367c0 -72.667 23.667 -130.668 71 -174.001c48 -44 109 -66 183 -66c76 0 142 22.5 198 67.5s84 102.5 84 172.5c0 70.667 -28 129.334 -84 176.001c-56 44.667 -122 67 -198 67c-74 0 -135 -22.333 -183 -67c-47.333 -45.333 -71 -104 -71 -176zM78 366.999
c0 104.667 37.332 195.332 111.999 271.999c75.333 76.667 166.333 115 273 115c73.333 0 139.5 -14.333 198.5 -43s97.167 -69 114.5 -121v160c0 69.333 -17.667 121 -53 155c-36.667 32.667 -96.667 49 -180 49c-82 0 -135.333 -2 -160 -6
c-58.667 -9.33301 -124.334 -34.666 -197.001 -75.999l41 179c76.667 20 131.334 33 164.001 39c32.667 4 81.334 6 146.001 6c116 0 201.333 -15.667 256 -47c96.667 -56 145 -165.333 145 -328v-707l-162 -26v143c-28.667 -50.667 -73.667 -89 -135 -115
c-52 -21.333 -111.333 -32 -178 -32c-106.667 0 -197.667 36.667 -273 110c-74.667 74 -112 165 -112 273z" />
    <glyph glyph-name="agrave" unicode="&#x430;" horiz-adv-x="1016" 
d="M240 367c0 -72.667 23.667 -130.668 71 -174.001c48 -44 109 -66 183 -66c76 0 142 22.5 198 67.5s84 102.5 84 172.5c0 70.667 -28 129.334 -84 176.001c-56 44.667 -122 67 -198 67c-74 0 -135 -22.333 -183 -67c-47.333 -45.333 -71 -104 -71 -176zM78 366.999
c0 104.667 37.332 195.332 111.999 271.999c75.333 76.667 166.333 115 273 115c73.333 0 139.5 -14.333 198.5 -43s97.167 -69 114.5 -121v160c0 69.333 -17.667 121 -53 155c-36.667 32.667 -96.667 49 -180 49c-82 0 -135.333 -2 -160 -6
c-58.667 -9.33301 -124.334 -34.666 -197.001 -75.999l41 179c76.667 20 131.334 33 164.001 39c32.667 4 81.334 6 146.001 6c116 0 201.333 -15.667 256 -47c96.667 -56 145 -165.333 145 -328v-707l-162 -26v143c-28.667 -50.667 -73.667 -89 -135 -115
c-52 -21.333 -111.333 -32 -178 -32c-106.667 0 -197.667 36.667 -273 110c-74.667 74 -112 165 -112 273z" />
    <glyph glyph-name="aacute" unicode="&#xe1;" horiz-adv-x="1194" 
d="M76 494l0.00195312 517.998c0 142 31.333 243 94 303c62.667 58.667 160.334 88 293.001 88h428c39.333 0 79 21 119 63l-37 -176c-32.667 -18.667 -70.334 -28 -113.001 -28h-397c-94 0 -157.833 -19.5 -191.5 -58.5s-50.5 -102.833 -50.5 -191.5v-168
c34 54.667 80.333 96.334 139 125.001c59.333 28.667 138.666 43 237.999 43c143.333 0 265.666 -50.667 366.999 -152c100.667 -100.667 151 -222.667 151 -366s-49.667 -265.666 -149 -366.999c-101.333 -102.667 -224.333 -154 -369 -154
c-143.333 0 -266.333 50.667 -369 152c-102 100.667 -153 223.667 -153 369zM223.002 491.998c0 -104 36.999 -192.333 110.999 -265c72 -73.333 160 -110 264 -110s192.5 36.5 265.5 109.5s109.5 161.5 109.5 265.5c0 103.333 -36.333 192 -109 266
c-73.333 72 -162 108 -266 108c-105.333 0 -194.166 -36.167 -266.499 -108.5s-108.5 -160.833 -108.5 -265.5z" />
    <glyph glyph-name="aacute" unicode="&#x431;" horiz-adv-x="1194" 
d="M76 494l0.00195312 517.998c0 142 31.333 243 94 303c62.667 58.667 160.334 88 293.001 88h428c39.333 0 79 21 119 63l-37 -176c-32.667 -18.667 -70.334 -28 -113.001 -28h-397c-94 0 -157.833 -19.5 -191.5 -58.5s-50.5 -102.833 -50.5 -191.5v-168
c34 54.667 80.333 96.334 139 125.001c59.333 28.667 138.666 43 237.999 43c143.333 0 265.666 -50.667 366.999 -152c100.667 -100.667 151 -222.667 151 -366s-49.667 -265.666 -149 -366.999c-101.333 -102.667 -224.333 -154 -369 -154
c-143.333 0 -266.333 50.667 -369 152c-102 100.667 -153 223.667 -153 369zM223.002 491.998c0 -104 36.999 -192.333 110.999 -265c72 -73.333 160 -110 264 -110s192.5 36.5 265.5 109.5s109.5 161.5 109.5 265.5c0 103.333 -36.333 192 -109 266
c-73.333 72 -162 108 -266 108c-105.333 0 -194.166 -36.167 -266.499 -108.5s-108.5 -160.833 -108.5 -265.5z" />
    <glyph glyph-name="acircumflex" unicode="&#xe2;" horiz-adv-x="938" 
d="M76 1075h467c72 0 137.333 -28 196 -84c57.333 -57.333 86 -119.333 86 -186c0 -57.333 -14.333 -105 -43 -143c-30 -38.667 -65.333 -66 -106 -82c62.667 -23.333 109.667 -59 141 -107c30 -49.333 45 -109.333 45 -180c0 -75.333 -30.667 -143 -92 -203
s-129 -90 -203 -90h-491v1075zM233 502v-361h263c58.667 0 107 16.167 145 48.5s57 76.5 57 132.5c0 54 -19 97.5 -57 130.5s-86.333 49.5 -145 49.5h-263zM233 629h285c36.667 0 71 15.667 103 47c30 30 45 64 45 102c0 40 -13 75.667 -39 107
c-27.333 31.333 -61 47 -101 47h-293v-303z" />
    <glyph glyph-name="acircumflex" unicode="&#x432;" horiz-adv-x="938" 
d="M76 1075h467c72 0 137.333 -28 196 -84c57.333 -57.333 86 -119.333 86 -186c0 -57.333 -14.333 -105 -43 -143c-30 -38.667 -65.333 -66 -106 -82c62.667 -23.333 109.667 -59 141 -107c30 -49.333 45 -109.333 45 -180c0 -75.333 -30.667 -143 -92 -203
s-129 -90 -203 -90h-491v1075zM233 502v-361h263c58.667 0 107 16.167 145 48.5s57 76.5 57 132.5c0 54 -19 97.5 -57 130.5s-86.333 49.5 -145 49.5h-263zM233 629h285c36.667 0 71 15.667 103 47c30 30 45 64 45 102c0 40 -13 75.667 -39 107
c-27.333 31.333 -61 47 -101 47h-293v-303z" />
    <glyph glyph-name="atilde" unicode="&#xe3;" horiz-adv-x="768" 
d="M76 1075h586l28 -143h-452v-920l-162 -26v1089z" />
    <glyph glyph-name="atilde" unicode="&#x433;" horiz-adv-x="768" 
d="M76 1075h586l28 -143h-452v-920l-162 -26v1089z" />
    <glyph glyph-name="adieresis" unicode="&#xe4;" horiz-adv-x="1264" 
d="M287 1075l768.001 -0.000976562v-932h133v-358l-162 -37v252h-790v-219l-160 -35v397h47c43.333 0 81.666 21.333 114.999 64c32.667 40.667 49 90.334 49 149.001v719zM446.001 931.999v-575.999c0 -58.667 -10 -108.334 -30 -149.001c-22 -42.667 -46.667 -64 -74 -64
h551v789h-447z" />
    <glyph glyph-name="adieresis" unicode="&#x434;" horiz-adv-x="1264" 
d="M287 1075l768.001 -0.000976562v-932h133v-358l-162 -37v252h-790v-219l-160 -35v397h47c43.333 0 81.666 21.333 114.999 64c32.667 40.667 49 90.334 49 149.001v719zM446.001 931.999v-575.999c0 -58.667 -10 -108.334 -30 -149.001c-22 -42.667 -46.667 -64 -74 -64
h551v789h-447z" />
    <glyph glyph-name="aring" unicode="&#xe5;" horiz-adv-x="1188" 
d="M637 1098c109.333 0 208.999 -28 298.999 -84c75.333 -46.667 134 -105.334 176 -176.001l-807 -525c35.333 -50 78.333 -90 129 -120c62.667 -37.333 130.334 -56 203.001 -56c78 0 146.333 9.66699 205 29c57.333 19.333 113.333 53.333 168 102l61 -157
c-61.333 -44 -125.333 -77 -192 -99c-67.333 -23.333 -148 -35 -242 -35c-156 0 -288.5 54.667 -397.5 164s-163.5 242 -163.5 398c0 152.667 54 284.334 162 395.001c106 109.333 239 164 399 164zM392.999 858c-58.667 -48 -99.667 -97.667 -123 -149
c-24.667 -53.333 -37 -106 -37 -158c0 -18 1.66699 -35.667 5 -53c2.66699 -19.333 6 -37.333 10 -54l633 414c-50.667 57.333 -126 86 -226 86c-46 0 -90.333 -6 -133 -18c-42 -14 -85 -36.667 -129 -68z" />
    <glyph glyph-name="aring" unicode="&#x435;" horiz-adv-x="1188" 
d="M637 1098c109.333 0 208.999 -28 298.999 -84c75.333 -46.667 134 -105.334 176 -176.001l-807 -525c35.333 -50 78.333 -90 129 -120c62.667 -37.333 130.334 -56 203.001 -56c78 0 146.333 9.66699 205 29c57.333 19.333 113.333 53.333 168 102l61 -157
c-61.333 -44 -125.333 -77 -192 -99c-67.333 -23.333 -148 -35 -242 -35c-156 0 -288.5 54.667 -397.5 164s-163.5 242 -163.5 398c0 152.667 54 284.334 162 395.001c106 109.333 239 164 399 164zM392.999 858c-58.667 -48 -99.667 -97.667 -123 -149
c-24.667 -53.333 -37 -106 -37 -158c0 -18 1.66699 -35.667 5 -53c2.66699 -19.333 6 -37.333 10 -54l633 414c-50.667 57.333 -126 86 -226 86c-46 0 -90.333 -6 -133 -18c-42 -14 -85 -36.667 -129 -68z" />
    <glyph glyph-name="ae" unicode="&#xe6;" horiz-adv-x="1606" 
d="M78 1036l473 -497l-473 -502l166 -49l477 544v-544l162 26v518l473 -544l168 49l-473 502l473 497l-168 49l-473 -532v532l-162 -18v-514l-477 532z" />
    <glyph glyph-name="ae" unicode="&#x436;" horiz-adv-x="1606" 
d="M78 1036l473 -497l-473 -502l166 -49l477 544v-544l162 26v518l473 -544l168 49l-473 502l473 497l-168 49l-473 -532v532l-162 -18v-514l-477 532z" />
    <glyph glyph-name="ccedilla" unicode="&#xe7;" horiz-adv-x="920" 
d="M438 1098c87.333 0 156.33 -14.9961 206.997 -44.9961c32.667 -12.667 65.334 -40.667 98.001 -84c41.333 -53.333 62 -108 62 -164c0 -64 -14.333 -116.667 -43 -158c-30 -40.667 -69 -69.334 -117 -86.001c50.667 -8 93.667 -30.333 129 -67
c45.333 -46.667 68 -106.334 68 -179.001c0 -94 -35 -172.333 -105 -235c-69.333 -62.667 -157.333 -94 -264 -94c-42 0 -79.833 2 -113.5 6s-70.167 12.667 -109.5 26c-30 12.667 -54 24.334 -72 35.001c-17.333 11.333 -50.666 35.333 -99.999 72l106 133
c31.333 -36.667 71 -65.334 119 -86.001c46.667 -20.667 94.334 -31 143.001 -31c72.667 0 126.667 11.667 162 35c48 31.333 72 83.333 72 156c0 47.333 -20.667 84.666 -62 111.999c-40.667 27.333 -99.334 41 -176.001 41h-133v142h133
c64.667 0 113.334 10.667 146.001 32c39.333 27.333 59 71.333 59 132c0 52.667 -16.333 93.334 -49 122.001s-79 43 -139 43c-50.667 0 -102 -8.83301 -154 -26.5s-92.333 -44.167 -121 -79.5l-71 119c31.333 26 60 46.167 86 60.5s51.5 26.166 76.5 35.499
s51.167 17.666 78.5 24.999c26 5.33301 54 8 84 8z" />
    <glyph glyph-name="ccedilla" unicode="&#x437;" horiz-adv-x="920" 
d="M438 1098c87.333 0 156.33 -14.9961 206.997 -44.9961c32.667 -12.667 65.334 -40.667 98.001 -84c41.333 -53.333 62 -108 62 -164c0 -64 -14.333 -116.667 -43 -158c-30 -40.667 -69 -69.334 -117 -86.001c50.667 -8 93.667 -30.333 129 -67
c45.333 -46.667 68 -106.334 68 -179.001c0 -94 -35 -172.333 -105 -235c-69.333 -62.667 -157.333 -94 -264 -94c-42 0 -79.833 2 -113.5 6s-70.167 12.667 -109.5 26c-30 12.667 -54 24.334 -72 35.001c-17.333 11.333 -50.666 35.333 -99.999 72l106 133
c31.333 -36.667 71 -65.334 119 -86.001c46.667 -20.667 94.334 -31 143.001 -31c72.667 0 126.667 11.667 162 35c48 31.333 72 83.333 72 156c0 47.333 -20.667 84.666 -62 111.999c-40.667 27.333 -99.334 41 -176.001 41h-133v142h133
c64.667 0 113.334 10.667 146.001 32c39.333 27.333 59 71.333 59 132c0 52.667 -16.333 93.334 -49 122.001s-79 43 -139 43c-50.667 0 -102 -8.83301 -154 -26.5s-92.333 -44.167 -121 -79.5l-71 119c31.333 26 60 46.167 86 60.5s51.5 26.166 76.5 35.499
s51.167 17.666 78.5 24.999c26 5.33301 54 8 84 8z" />
    <glyph glyph-name="egrave" unicode="&#xe8;" 
d="M76 1061l162 26v-749l772 774v-1098l-162 -28v741l-772 -760v1094z" />
    <glyph glyph-name="egrave" unicode="&#x438;" 
d="M76 1061l162 26v-749l772 774v-1098l-162 -28v741l-772 -760v1094z" />
    <glyph glyph-name="eacute" unicode="&#xe9;" 
d="M76 1063l162 27v-750l772 774v-1098l-162 -28v741l-772 -760v1094zM371 1229l80 106.001l81 -63c11.333 -8 19.666 -13.167 24.999 -15.5s13 -3.5 23 -3.5c16 0 30.333 6.33301 43 19l110 63l43 -53l-129 -100c-30 -23.333 -63.333 -35 -100 -35
c-26 0 -48 3.33301 -66 10c-5.33301 1.33301 -19.666 9.66602 -42.999 24.999z" />
    <glyph glyph-name="eacute" unicode="&#x439;" 
d="M76 1063l162 27v-750l772 774v-1098l-162 -28v741l-772 -760v1094zM371 1229l80 106.001l81 -63c11.333 -8 19.666 -13.167 24.999 -15.5s13 -3.5 23 -3.5c16 0 30.333 6.33301 43 19l110 63l43 -53l-129 -100c-30 -23.333 -63.333 -35 -100 -35
c-26 0 -48 3.33301 -66 10c-5.33301 1.33301 -19.666 9.66602 -42.999 24.999z" />
    <glyph glyph-name="ecircumflex" unicode="&#xea;" horiz-adv-x="1014" 
d="M76 1067l162 18v-534l528 543l170 -58l-518 -497l518 -516l-170 -50l-528 551v-510l-162 -26v1079z" />
    <glyph glyph-name="ecircumflex" unicode="&#x43a;" horiz-adv-x="1014" 
d="M76 1067l162 18v-534l528 543l170 -58l-518 -497l518 -516l-170 -50l-528 551v-510l-162 -26v1079z" />
    <glyph glyph-name="edieresis" unicode="&#xeb;" horiz-adv-x="1194" 
d="M328 1073l788.001 2v-1061l-162 -28v946h-467v-598c0 -88.667 -8 -156.334 -24 -203.001c-22 -61.333 -60.333 -103 -115 -125c-30 -12 -64 -18 -102 -18c-70 0 -126.667 21.667 -170 65l69 131c15.333 -13.333 29.666 -23.333 42.999 -30c14 -8.66699 28.333 -13 43 -13
c19.333 0 37.333 5.66699 54 17c13.333 6.66699 24 17.334 32 32.001c7.33301 15.333 11 37.333 11 66v18v799z" />
    <glyph glyph-name="edieresis" unicode="&#x43b;" horiz-adv-x="1194" 
d="M328 1073l788.001 2v-1061l-162 -28v946h-467v-598c0 -88.667 -8 -156.334 -24 -203.001c-22 -61.333 -60.333 -103 -115 -125c-30 -12 -64 -18 -102 -18c-70 0 -126.667 21.667 -170 65l69 131c15.333 -13.333 29.666 -23.333 42.999 -30c14 -8.66699 28.333 -13 43 -13
c19.333 0 37.333 5.66699 54 17c13.333 6.66699 24 17.334 32 32.001c7.33301 15.333 11 37.333 11 66v18v799z" />
    <glyph glyph-name="igrave" unicode="&#xec;" horiz-adv-x="1511" 
d="M303 1102l-227 -1090l160 -26l145 692l377 -678l372 682l144 -696l160 26l-228 1090l-448 -821z" />
    <glyph glyph-name="igrave" unicode="&#x43c;" horiz-adv-x="1511" 
d="M303 1102l-227 -1090l160 -26l145 692l377 -678l372 682l144 -696l160 26l-228 1090l-448 -821z" />
    <glyph glyph-name="iacute" unicode="&#xed;" horiz-adv-x="1049" 
d="M76 1063l162 27v-463h573v436l162 27v-1078l-162 -24v497h-573v-473l-162 -24v1075z" />
    <glyph glyph-name="iacute" unicode="&#x43d;" horiz-adv-x="1049" 
d="M76 1063l162 27v-463h573v436l162 27v-1078l-162 -24v497h-573v-473l-162 -24v1075z" />
    <glyph glyph-name="icircumflex" unicode="&#xee;" horiz-adv-x="1274" 
d="M637 1098c155.333 0 287.666 -54.667 396.999 -164s164 -241.666 164 -396.999c0 -154.667 -54.667 -286.667 -164 -396s-241.666 -164 -396.999 -164c-156 0 -288.5 54.667 -397.5 164s-163.5 241.333 -163.5 396c0 155.333 54.5 287.666 163.5 396.999
s241.5 164 397.5 164zM639 934c-109.333 0 -203 -39 -281 -117c-77.333 -78 -116 -171.333 -116 -280c0 -110.667 38.667 -205 116 -283c78 -78 171.667 -117 281 -117s202.833 39 280.5 117s116.5 172.333 116.5 283c0 108.667 -38.833 202 -116.5 280
s-171.167 117 -280.5 117z" />
    <glyph glyph-name="icircumflex" unicode="&#x43e;" horiz-adv-x="1274" 
d="M637 1098c155.333 0 287.666 -54.667 396.999 -164s164 -241.666 164 -396.999c0 -154.667 -54.667 -286.667 -164 -396s-241.666 -164 -396.999 -164c-156 0 -288.5 54.667 -397.5 164s-163.5 241.333 -163.5 396c0 155.333 54.5 287.666 163.5 396.999
s241.5 164 397.5 164zM639 934c-109.333 0 -203 -39 -281 -117c-77.333 -78 -116 -171.333 -116 -280c0 -110.667 38.667 -205 116 -283c78 -78 171.667 -117 281 -117s202.833 39 280.5 117s116.5 172.333 116.5 283c0 108.667 -38.833 202 -116.5 280
s-171.167 117 -280.5 117z" />
    <glyph glyph-name="idieresis" unicode="&#xef;" horiz-adv-x="997" 
d="M76 1075h844v-1063l-162 -26v946h-520v-920l-162 -26v1089z" />
    <glyph glyph-name="idieresis" unicode="&#x43f;" horiz-adv-x="997" 
d="M76 1075h844v-1063l-162 -26v946h-520v-920l-162 -26v1089z" />
    <glyph glyph-name="eth" unicode="&#xf0;" horiz-adv-x="1247" 
d="M78 1063l153 27.001v-228c42.667 70 98.5 125.833 167.5 167.5s142.167 62.5 219.5 62.5c148 0 275.667 -50 383 -150c113.333 -105.333 170 -239 170 -401c0 -162.667 -56.667 -297.334 -170 -404.001c-106 -99.333 -233.667 -149 -383 -149
c-78.667 0 -151.667 20.333 -219 61c-66.667 40 -122.667 96 -168 168v-594l-153 -29v1469zM229 541.001c0 -108 37.666 -200.333 112.999 -277c75.333 -76 167.333 -114 276 -114c108 0 200.333 38 277 114c76.667 76.667 115 169 115 277c0 106 -38.333 197.333 -115 274
s-169 115 -277 115c-107.333 0 -198.666 -37.667 -273.999 -113c-76.667 -76.667 -115 -168.667 -115 -276z" />
    <glyph glyph-name="eth" unicode="&#x440;" horiz-adv-x="1247" 
d="M78 1063l153 27.001v-228c42.667 70 98.5 125.833 167.5 167.5s142.167 62.5 219.5 62.5c148 0 275.667 -50 383 -150c113.333 -105.333 170 -239 170 -401c0 -162.667 -56.667 -297.334 -170 -404.001c-106 -99.333 -233.667 -149 -383 -149
c-78.667 0 -151.667 20.333 -219 61c-66.667 40 -122.667 96 -168 168v-594l-153 -29v1469zM229 541.001c0 -108 37.666 -200.333 112.999 -277c75.333 -76 167.333 -114 276 -114c108 0 200.333 38 277 114c76.667 76.667 115 169 115 277c0 106 -38.333 197.333 -115 274
s-169 115 -277 115c-107.333 0 -198.666 -37.667 -273.999 -113c-76.667 -76.667 -115 -168.667 -115 -276z" />
    <glyph glyph-name="ntilde" unicode="&#xf1;" horiz-adv-x="1055" 
d="M76 539c0 -156 54.5 -288.668 163.5 -398.001s241.5 -164 397.5 -164c56 0 112 8.33301 168 25s113.333 46.667 172 90l-94 137c-30 -24 -63 -43 -99 -57c-47.333 -19.333 -96.333 -29 -147 -29c-116 0 -211.667 39 -287 117c-74.667 78 -112 171 -112 279
c0 110.667 38 204.667 114 282c76.667 78 171.667 117 285 117c52 0 98.333 -8.33301 139 -25c41.333 -16 77 -36.333 107 -61l94 133c-42.667 34 -87 60 -133 78c-62.667 24.667 -131.667 37 -207 37c-156 0 -288.5 -54.667 -397.5 -164s-163.5 -241.666 -163.5 -396.999z
" />
    <glyph glyph-name="ntilde" unicode="&#x441;" horiz-adv-x="1055" 
d="M76 539c0 -156 54.5 -288.668 163.5 -398.001s241.5 -164 397.5 -164c56 0 112 8.33301 168 25s113.333 46.667 172 90l-94 137c-30 -24 -63 -43 -99 -57c-47.333 -19.333 -96.333 -29 -147 -29c-116 0 -211.667 39 -287 117c-74.667 78 -112 171 -112 279
c0 110.667 38 204.667 114 282c76.667 78 171.667 117 285 117c52 0 98.333 -8.33301 139 -25c41.333 -16 77 -36.333 107 -61l94 133c-42.667 34 -87 60 -133 78c-62.667 24.667 -131.667 37 -207 37c-156 0 -288.5 -54.667 -397.5 -164s-163.5 -241.666 -163.5 -396.999z
" />
    <glyph glyph-name="ograve" unicode="&#xf2;" horiz-adv-x="979" 
d="M434 932v-946l162 28v918h305v143h-795l-30 -143h358z" />
    <glyph glyph-name="ograve" unicode="&#x442;" horiz-adv-x="979" 
d="M434 932v-946l162 28v918h305v143h-795l-30 -143h358z" />
    <glyph glyph-name="oacute" unicode="&#xf3;" horiz-adv-x="1159" 
d="M78 1055l147 45l393 -709l320 709l145 -45l-643 -1454l-147 43l248 573z" />
    <glyph glyph-name="oacute" unicode="&#x443;" horiz-adv-x="1159" 
d="M78 1055l147 45l393 -709l320 709l145 -45l-643 -1454l-147 43l248 573z" />
    <glyph glyph-name="ocircumflex" unicode="&#xf4;" horiz-adv-x="1987" 
d="M920 981l0.000976562 219l153 27v-244c35.333 35.333 80.333 62 135 80c53.333 18 104 27 152 27c147.333 0 274.333 -50 381 -150c113.333 -105.333 170 -239 170 -401c0 -162.667 -54.667 -295.334 -164 -398.001c-110.667 -103.333 -239.667 -155 -387 -155
c-50.667 0 -99.334 7.33301 -146.001 22c-57.333 19.333 -104.333 47.333 -141 84v-471l-153 -27v498c-37.333 -35.333 -82.666 -62 -135.999 -80c-52.667 -17.333 -102.334 -26 -149.001 -26c-136.667 0 -261 49.667 -373 149c-124 110.667 -186 245.334 -186 404.001
c0 159.333 56 291 168 395c112 102 242.333 153 391 153c49.333 0 99 -8 149 -24c50.667 -16.667 96 -44 136 -82zM920.001 829c-28.667 40 -65.667 68.001 -111 84.001c-46.667 15.333 -104.667 23 -174 23c-114.667 0 -209.667 -39 -285 -117
c-76 -79.333 -114 -172.666 -114 -279.999c0 -110.667 37.333 -204.334 112 -281.001c75.333 -76.667 171 -115 287 -115c73.333 0 131.333 7.66699 174 23c42 13.333 79 40.666 111 81.999v581zM1073 829.001l0.000976562 -581c31.333 -38.667 71 -65.334 119 -80.001
c46.667 -16.667 102.667 -25 168 -25c113.333 0 207.333 39 282 117c74 76.667 111 169.667 111 279c0 110.667 -35.333 203.334 -106 278.001c-75.333 79.333 -171 119 -287 119c-68.667 0 -125.334 -7.66699 -170.001 -23c-46.667 -14.667 -85.667 -42.667 -117 -84z" />
    <glyph glyph-name="ocircumflex" unicode="&#x444;" horiz-adv-x="1987" 
d="M920 981l0.000976562 219l153 27v-244c35.333 35.333 80.333 62 135 80c53.333 18 104 27 152 27c147.333 0 274.333 -50 381 -150c113.333 -105.333 170 -239 170 -401c0 -162.667 -54.667 -295.334 -164 -398.001c-110.667 -103.333 -239.667 -155 -387 -155
c-50.667 0 -99.334 7.33301 -146.001 22c-57.333 19.333 -104.333 47.333 -141 84v-471l-153 -27v498c-37.333 -35.333 -82.666 -62 -135.999 -80c-52.667 -17.333 -102.334 -26 -149.001 -26c-136.667 0 -261 49.667 -373 149c-124 110.667 -186 245.334 -186 404.001
c0 159.333 56 291 168 395c112 102 242.333 153 391 153c49.333 0 99 -8 149 -24c50.667 -16.667 96 -44 136 -82zM920.001 829c-28.667 40 -65.667 68.001 -111 84.001c-46.667 15.333 -104.667 23 -174 23c-114.667 0 -209.667 -39 -285 -117
c-76 -79.333 -114 -172.666 -114 -279.999c0 -110.667 37.333 -204.334 112 -281.001c75.333 -76.667 171 -115 287 -115c73.333 0 131.333 7.66699 174 23c42 13.333 79 40.666 111 81.999v581zM1073 829.001l0.000976562 -581c31.333 -38.667 71 -65.334 119 -80.001
c46.667 -16.667 102.667 -25 168 -25c113.333 0 207.333 39 282 117c74 76.667 111 169.667 111 279c0 110.667 -35.333 203.334 -106 278.001c-75.333 79.333 -171 119 -287 119c-68.667 0 -125.334 -7.66699 -170.001 -23c-46.667 -14.667 -85.667 -42.667 -117 -84z" />
    <glyph glyph-name="otilde" unicode="&#xf5;" 
d="M127 1055l334 -482l-373 -553l168 -40l297 458l295 -458l170 40l-373 553l336 482l-170 41l-258 -398l-258 398z" />
    <glyph glyph-name="otilde" unicode="&#x445;" 
d="M127 1055l334 -482l-373 -553l168 -40l297 458l295 -458l170 40l-373 553l336 482l-170 41l-258 -398l-258 398z" />
    <glyph glyph-name="odieresis" unicode="&#xf6;" horiz-adv-x="1120" 
d="M76 1063v-1063h807v-227l161 26v344h-135v947l-161 -27v-920h-510v947z" />
    <glyph glyph-name="odieresis" unicode="&#x446;" horiz-adv-x="1120" 
d="M76 1063v-1063h807v-227l161 26v344h-135v947l-161 -27v-920h-510v947z" />
    <glyph glyph-name="divide" unicode="&#xf7;" horiz-adv-x="907" 
d="M78 1061v-483c0 -56 22.167 -103.5 66.5 -142.5s97.833 -58.5 160.5 -58.5h363v-391l161 26v1078l-161 -29v-541h-336c-24.667 0 -46.667 9 -66 27c-18.667 17.333 -28 39 -28 65v478z" />
    <glyph glyph-name="divide" unicode="&#x447;" horiz-adv-x="907" 
d="M78 1061v-483c0 -56 22.167 -103.5 66.5 -142.5s97.833 -58.5 160.5 -58.5h363v-391l161 26v1078l-161 -29v-541h-336c-24.667 0 -46.667 9 -66 27c-18.667 17.333 -28 39 -28 65v478z" />
    <glyph glyph-name="oslash" unicode="&#xf8;" horiz-adv-x="1444" 
d="M76 1063v-1063h1290v1090l-160 -27v-920h-405v947l-160 -27v-920h-403v947z" />
    <glyph glyph-name="oslash" unicode="&#x448;" horiz-adv-x="1444" 
d="M76 1063v-1063h1290v1090l-160 -27v-920h-405v947l-160 -27v-920h-403v947z" />
    <glyph glyph-name="ugrave" unicode="&#xf9;" horiz-adv-x="1581" 
d="M76 1063v-1063h1265v-213l162 27v329h-135v947l-162 -27v-920h-403v947l-162 -27v-920h-403v947z" />
    <glyph glyph-name="ugrave" unicode="&#x449;" horiz-adv-x="1581" 
d="M76 1063v-1063h1265v-213l162 27v329h-135v947l-162 -27v-920h-403v947l-162 -27v-920h-403v947z" />
    <glyph glyph-name="uacute" unicode="&#xfa;" 
d="M104 1075h313.999v-448h254c94 0 173.667 -29.333 239 -88c66 -58.667 99 -134 99 -226c0 -92.667 -32.333 -167.667 -97 -225c-65.333 -58.667 -145.666 -88 -240.999 -88h-416v932h-180zM417.999 483l-0.000976562 -340.001h227c58.667 0 107.334 15 146.001 45
c38 28.667 57 70.334 57 125.001c0 53.333 -19.167 95 -57.5 125s-86.833 45 -145.5 45h-227z" />
    <glyph glyph-name="uacute" unicode="&#x44a;" 
d="M104 1075h313.999v-448h254c94 0 173.667 -29.333 239 -88c66 -58.667 99 -134 99 -226c0 -92.667 -32.333 -167.667 -97 -225c-65.333 -58.667 -145.666 -88 -240.999 -88h-416v932h-180zM417.999 483l-0.000976562 -340.001h227c58.667 0 107.334 15 146.001 45
c38 28.667 57 70.334 57 125.001c0 53.333 -19.167 95 -57.5 125s-86.833 45 -145.5 45h-227z" />
    <glyph glyph-name="ucircumflex" unicode="&#xfb;" horiz-adv-x="1176" 
d="M78 1057l160.001 35v-465h254c95.333 0 175.666 -28.667 240.999 -86c64 -58.667 96 -134.667 96 -228c0 -92.667 -32 -167.667 -96 -225c-64 -58.667 -144.333 -88 -241 -88h-414v1057zM238.001 483v-342h227c58.667 0 107 15 145 45c38.667 30 58 72.333 58 127
c0 53.333 -19.333 95 -58 125c-38 30 -86.333 45 -145 45h-227zM938.001 -18l160 34v1076l-160 -35v-1075z" />
    <glyph glyph-name="ucircumflex" unicode="&#x44b;" horiz-adv-x="1176" 
d="M78 1057l160.001 35v-465h254c95.333 0 175.666 -28.667 240.999 -86c64 -58.667 96 -134.667 96 -228c0 -92.667 -32 -167.667 -96 -225c-64 -58.667 -144.333 -88 -241 -88h-414v1057zM238.001 483v-342h227c58.667 0 107 15 145 45c38.667 30 58 72.333 58 127
c0 53.333 -19.333 95 -58 125c-38 30 -86.333 45 -145 45h-227zM938.001 -18l160 34v1076l-160 -35v-1075z" />
    <glyph glyph-name="udieresis" unicode="&#xfc;" horiz-adv-x="905" 
d="M76 1059l162.001 33v-465h254c95.333 0 175.666 -28.667 240.999 -86c64 -58.667 96 -134.667 96 -228c0 -92.667 -32 -167.667 -96 -225c-64 -58.667 -144.333 -88 -241 -88h-416v1059zM238.001 483v-340.001h227c58.667 0 107 15 145 45
c38.667 28.667 58 70.334 58 125.001c0 53.333 -19.333 95 -58 125c-38 30 -86.333 45 -145 45h-227z" />
    <glyph glyph-name="udieresis" unicode="&#x44c;" horiz-adv-x="905" 
d="M76 1059l162.001 33v-465h254c95.333 0 175.666 -28.667 240.999 -86c64 -58.667 96 -134.667 96 -228c0 -92.667 -32 -167.667 -96 -225c-64 -58.667 -144.333 -88 -241 -88h-416v1059zM238.001 483v-340.001h227c58.667 0 107 15 145 45
c38.667 28.667 58 70.334 58 125.001c0 53.333 -19.333 95 -58 125c-38 30 -86.333 45 -145 45h-227z" />
    <glyph glyph-name="yacute" unicode="&#xfd;" horiz-adv-x="1055" 
d="M76 985c43.333 32.667 88.3311 57.998 134.998 75.998c64 24.667 133 37 207 37c155.333 0 287.666 -54.667 396.999 -164s164 -241.666 164 -396.999c0 -154.667 -54.667 -286.667 -164 -396s-241.666 -164 -396.999 -164c-74 0 -142.333 12.333 -205 37
c-46.667 18 -92.334 43.333 -137.001 76l96 137c30 -24.667 62.667 -43.667 98 -57c48 -19.333 97.333 -29 148 -29c104.667 0 194.667 35.667 270 107c70 65.333 111.667 144.333 125 237h-512v142h506c-15.333 80.667 -55.666 150.334 -120.999 209.001
c-75.333 66.667 -164.666 100 -267.999 100c-53.333 0 -102.666 -9 -147.999 -27c-34 -13.333 -66.667 -33 -98 -59z" />
    <glyph glyph-name="yacute" unicode="&#x44d;" horiz-adv-x="1055" 
d="M76 985c43.333 32.667 88.3311 57.998 134.998 75.998c64 24.667 133 37 207 37c155.333 0 287.666 -54.667 396.999 -164s164 -241.666 164 -396.999c0 -154.667 -54.667 -286.667 -164 -396s-241.666 -164 -396.999 -164c-74 0 -142.333 12.333 -205 37
c-46.667 18 -92.334 43.333 -137.001 76l96 137c30 -24.667 62.667 -43.667 98 -57c48 -19.333 97.333 -29 148 -29c104.667 0 194.667 35.667 270 107c70 65.333 111.667 144.333 125 237h-512v142h506c-15.333 80.667 -55.666 150.334 -120.999 209.001
c-75.333 66.667 -164.666 100 -267.999 100c-53.333 0 -102.666 -9 -147.999 -27c-34 -13.333 -66.667 -33 -98 -59z" />
    <glyph glyph-name="thorn" unicode="&#xfe;" horiz-adv-x="1522" 
d="M76 1063l147.002 24v-479h107c17.333 147.333 78 266.166 182 356.499s228.333 135.5 373 135.5c155.333 0 287.666 -54.667 396.999 -164s164 -241.666 164 -396.999c0 -154.667 -54.667 -286.667 -164 -396c-110.667 -110.667 -243 -166 -397 -166
c-148.667 0 -278.334 54.667 -389.001 164c-100 98.667 -155.333 206.667 -166 324h-107v-453l-147 -24v1075zM885.002 950c-112 0 -208.332 -40.333 -288.999 -121c-80.667 -80 -121 -176.667 -121 -290s40.333 -209.666 121 -288.999
c79.333 -80.667 175.666 -121 288.999 -121s210.333 40.333 291 121c78.667 79.333 118 175.666 118 288.999s-39.333 210 -118 290c-79.333 80.667 -176.333 121 -291 121z" />
    <glyph glyph-name="thorn" unicode="&#x44e;" horiz-adv-x="1522" 
d="M76 1063l147.002 24v-479h107c17.333 147.333 78 266.166 182 356.499s228.333 135.5 373 135.5c155.333 0 287.666 -54.667 396.999 -164s164 -241.666 164 -396.999c0 -154.667 -54.667 -286.667 -164 -396c-110.667 -110.667 -243 -166 -397 -166
c-148.667 0 -278.334 54.667 -389.001 164c-100 98.667 -155.333 206.667 -166 324h-107v-453l-147 -24v1075zM885.002 950c-112 0 -208.332 -40.333 -288.999 -121c-80.667 -80 -121 -176.667 -121 -290s40.333 -209.666 121 -288.999
c79.333 -80.667 175.666 -121 288.999 -121s210.333 40.333 291 121c78.667 79.333 118 175.666 118 288.999s-39.333 210 -118 290c-79.333 80.667 -176.333 121 -291 121z" />
    <glyph glyph-name="ydieresis" unicode="&#xff;" horiz-adv-x="961" 
d="M131 760c0 92.667 31.999 168.333 95.999 227c64.667 57.333 145.334 86 242.001 86h414v-1061l-162 -30v587l-502 -606l-143 70l375 432c-86 0 -160 26 -222 78c-65.333 56 -98 128.333 -98 217zM290.999 759.999c0 -53.333 19 -95 57 -125
c38.667 -30 87.334 -45 146.001 -45h227v340h-227c-58.667 0 -107.334 -14.333 -146.001 -43c-38 -30 -57 -72.333 -57 -127z" />
    <glyph glyph-name="ydieresis" unicode="&#x44f;" horiz-adv-x="961" 
d="M131 760c0 92.667 31.999 168.333 95.999 227c64.667 57.333 145.334 86 242.001 86h414v-1061l-162 -30v587l-502 -606l-143 70l375 432c-86 0 -160 26 -222 78c-65.333 56 -98 128.333 -98 217zM290.999 759.999c0 -53.333 19 -95 57 -125
c38.667 -30 87.334 -45 146.001 -45h227v340h-227c-58.667 0 -107.334 -14.333 -146.001 -43c-38 -30 -57 -72.333 -57 -127z" />
    <glyph glyph-name=".null" horiz-adv-x="0" 
 />
    <glyph glyph-name="nonmarkingreturn" horiz-adv-x="713" 
 />
    </font>
</defs>
</svg>
