<?xml version="1.0" standalone="no"?>
<!DOCTYPE svg PUBLIC "-//W3C//DTD SVG 1.1//EN" "http://www.w3.org/Graphics/SVG/1.1/DTD/svg11.dtd" >
<svg xmlns="http://www.w3.org/2000/svg" xmlns:xlink="http://www.w3.org/1999/xlink" version="1.1">
<metadata>
Created by FontForge 20161116 at Mon May  3 23:17:11 2004
 By Jimmy Warting
Digitized data copyright The Monotype Corporation 1991-1995. All rights reserved. Monotype CorsivaTM is a trademark of The Monotype Corporation which may be registered in certain jurisdictions.
</metadata>
<defs>
<font id="Current" horiz-adv-x="914" >
  <font-face 
    font-family="Current"
    font-weight="400"
    font-style="italic"
    font-stretch="normal"
    units-per-em="2048"
    panose-1="3 1 1 1 1 2 1 1 1 1"
    ascent="1638"
    descent="-410"
    x-height="1056"
    cap-height="1404"
    bbox="0 -538 1845 1618"
    underline-thickness="102"
    underline-position="-297"
    slope="-14.1"
    unicode-range="U+0020-2122"
  />
<missing-glyph horiz-adv-x="1024" 
d="M128 0v1618h768v-1618h-768zM256 128h512v1362h-512v-1362z" />
    <glyph glyph-name=".notdef" horiz-adv-x="1024" 
d="M128 0v1618h768v-1618h-768zM256 128h512v1362h-512v-1362z" />
    <glyph glyph-name=".null" horiz-adv-x="0" 
 />
    <glyph glyph-name="nonmarkingreturn" horiz-adv-x="450" 
 />
    <glyph glyph-name="space" unicode=" " horiz-adv-x="450" 
 />
    <glyph glyph-name="exclam" unicode="!" horiz-adv-x="333" 
d="M244 375h-145v1029h145v-1029zM244 0h-145v144h145v-144z" />
    <glyph glyph-name="quotedbl" unicode="&#x22;" horiz-adv-x="540" 
d="M444 1170h-142v234h142v-234zM251 1170h-144v234h144v-234z" />
    <glyph glyph-name="numbersign" unicode="#" horiz-adv-x="1589" 
d="M1043 0h-164l64 335h-350l-63 -335h-166l63 335h-326l32 153h327l68 361h-326l32 155h326l64 333h164l-64 -333h350l63 333h166l-65 -333h330l-33 -155h-328l-68 -361h326l-32 -153h-326zM625 488h350l67 361h-350z" />
    <glyph glyph-name="dollar" unicode="$" horiz-adv-x="806" 
d="M105 678v-1h270v-427q-146 -105 -326 -105v-144q173 0 326 81v-224h49v252q149 94 235 247q90 158 91 340v0v29h-326v428q146 105 326 105v144q-173 0 -326 -80v224h-49v-253q-149 -94 -236 -247q-89 -158 -90 -341v0v-28h56zM605 677q-10 -230 -181 -386v386h181z
M375 1114v-388h-181q10 231 181 388z" />
    <glyph glyph-name="percent" unicode="%" horiz-adv-x="1305" 
d="M1261 278q0 -117 -82.5 -199.5t-198.5 -82.5t-198.5 82.5t-82.5 199.5t82 199t199 82q116 0 198.5 -82t82.5 -199zM659 879q0 -116 -82.5 -198.5t-198.5 -82.5q-117 0 -199 82.5t-82 198.5q0 117 82 199.5t199 82.5q116 0 198.5 -82.5t82.5 -199.5zM888 1278l-377 -1404
h-39l374 1404h42zM1182 278q0 84 -59.5 143.5t-142.5 59.5q-84 0 -143 -59.5t-59 -143.5t59 -143t143 -59t143 59t59 143zM580 879q0 84 -59 143t-143 59t-144 -59t-60 -143q0 -83 60 -142t144 -59t143 59t59 142z" />
    <glyph glyph-name="ampersand" unicode="&#x26;" horiz-adv-x="876" 
d="M812 703q0 -217 -122 -397l122 -306h-146l-75 191q-182 -173 -433 -189v-2h-49v847q111 0 206 38l-206 519h703q0 -183 -89 -342q-86 -154 -235 -249l133 -334q47 105 47 224h144zM648 1260h-337l123 -310q161 114 214 310zM533 339l-164 413q-100 -41 -211 -49v-557
q227 22 375 193z" />
    <glyph glyph-name="quotesingle" unicode="'" horiz-adv-x="462" 
d="M389 1263q0 -221 -151 -373l-101 103q111 111 108 267v0v144h144v-141z" />
    <glyph glyph-name="parenleft" unicode="(" horiz-adv-x="606" 
d="M69 197v0q0 -213 151 -363.5t364 -150.5v144q-152 0 -261 106.5t-109 257.5v676q0 151 109 257.5t261 106.5v144q-213 0 -364 -150.5t-151 -364.5v0h95v-663h-95z" />
    <glyph glyph-name="parenright" unicode=")" horiz-adv-x="682" 
d="M612 197v0q0 -213 -151 -363.5t-364 -150.5v144q152 0 261 106.5t109 257.5v676q0 151 -109 257.5t-261 106.5v144q213 0 364 -150.5t151 -364.5v0h-95v-663h95z" />
    <glyph glyph-name="asterisk" unicode="*" horiz-adv-x="708" 
d="M633 925l-186 108v-145h-144v145l-186 -108v144l134 77l-134 76v146l186 -108v144h144v-144l186 108v-146l-134 -76l134 -77v-144z" />
    <glyph glyph-name="plus" unicode="+" horiz-adv-x="701" 
d="M624 629h-185v-186h-144v186h-186v146h186v186h144v-186h185v-146z" />
    <glyph glyph-name="comma" unicode="," horiz-adv-x="400" 
d="M299 2q0 -175 -118 -294l-80 81q88 88 85 211v0v114h113v-112z" />
    <glyph glyph-name="hyphen" unicode="-" horiz-adv-x="725" 
d="M624 629h-516v146h516v-146z" />
    <glyph glyph-name="hyphen" unicode="&#x2010;" horiz-adv-x="725" 
d="M624 629h-516v146h516v-146z" />
    <glyph glyph-name="period" unicode="." horiz-adv-x="353" 
d="M253 0h-144v144h144v-144z" />
    <glyph glyph-name="slash" unicode="/" horiz-adv-x="548" 
d="M500 1285l-374 -1404h-42l377 1404h39z" />
    <glyph glyph-name="zero" unicode="0" horiz-adv-x="1167" 
d="M1089 906v0q0 213 -150.5 364t-363.5 151t-364 -151t-151 -364v0h95v-410h-95v0q0 -213 151 -364t364 -151t363.5 151t150.5 364v0h-95v410h95zM575 125q-154 0 -262.5 108.5t-108.5 262.5v0v0v410v0v0q0 154 108.5 262.5t262.5 108.5q152 0 261 -107t109 -257v-424
q0 -150 -109 -257t-261 -107z" />
    <glyph glyph-name="one" unicode="1" horiz-adv-x="803" 
d="M710 0h-144v1186q-63 -133 -187 -213q-128 -83 -280 -83v143q154 1 262.5 109.5t108.5 261.5h145v-375h95v-1029z" />
    <glyph glyph-name="two" unicode="2" horiz-adv-x="647" 
d="M55 0v-1h516v144h-467v207q206 19 346.5 172.5t140.5 362.5q0 223 -157.5 380.5t-378.5 157.5v-144q162 0 277 -115.5t115 -278.5q0 -162 -115 -277.5t-277 -116.5v-491v0z" />
    <glyph glyph-name="three" unicode="3" horiz-adv-x="683" 
d="M611 512q-2 -213 -152.5 -362.5t-363.5 -149.5v144q153 0 261.5 107.5t110.5 260.5q1 153 -108 262.5t-264 110.5v0l2 286q211 0 319 184h-321v49h496q-44 -160 -176 -265t-302 -110q209 -7 354 -157.5t144 -359.5z" />
    <glyph glyph-name="four" unicode="4" horiz-adv-x="705" 
d="M613 0h-144v515h96v372h-465v284q114 0 209 66q92 64 135 167h151q-43 -154 -167 -257t-285 -116h470v-1031z" />
    <glyph glyph-name="five" unicode="5" horiz-adv-x="695" 
d="M87 1403v0h516v-144h-467v-206q206 -19 347 -173t141 -363q0 -222 -157.5 -380t-379.5 -158v144q163 1 278 116t115 278t-115 278.5t-278 115.5v492v0z" />
    <glyph glyph-name="six" unicode="6" horiz-adv-x="1193" 
d="M919 1405h-205l-501 -500q-159 -158 -159 -383q0 -222 156 -377q160 -160 381 -160q223 0 383 160q156 156 156 378q0 223 -157 380l-1 1l-63 -64q-129 128 -318 128q-67 0 -129 -19q104 105 112 113zM872 801q7 -8 22 -25q92 -110 92 -254q0 -162 -115 -277t-280 -115
q-163 0 -278 115t-115 278t117 280q114 115 276 115q173 0 281 -117z" />
    <glyph glyph-name="seven" unicode="7" horiz-adv-x="608" 
d="M587 1388q0 -195 -136 -338.5t-331 -161.5v-373h97l-2 -515h-144v1031q115 0 208.5 63t135.5 166h-344v144h516v-16z" />
    <glyph glyph-name="eight" unicode="8" horiz-adv-x="1213" 
d="M761 1029q127 43 217.5 143.5t119.5 232.5h-1005q29 -132 119 -232.5t217 -143.5q-164 -53 -267 -192q-105 -143 -105 -320q0 -223 157.5 -380.5t380.5 -157.5t380.5 157.5t157.5 380.5q0 177 -105 320q-103 139 -267 192zM966 515q0 -153 -108.5 -261.5t-262.5 -108.5
q-153 0 -262 108.5t-109 261.5q0 154 109 262.5t262 108.5q154 0 262.5 -108.5t108.5 -262.5zM261 1356h668q-45 -95 -135 -153t-199 -58t-199 58t-135 153z" />
    <glyph glyph-name="nine" unicode="9" horiz-adv-x="1196" 
d="M289 0h205l501 500q159 158 159 383q0 222 -155 377q-161 161 -382 161q-222 0 -380.5 -158.5t-158.5 -379.5q0 -224 157 -381h1l64 63q128 -128 317 -128q67 0 129 19q-104 -105 -112 -113zM337 605q-8 7 -23 24q-92 110 -92 254q0 162 115 277t280 115
q163 0 278.5 -115t115.5 -277q0 -164 -116 -279.5t-278 -115.5q-172 0 -280 117z" />
    <glyph glyph-name="colon" unicode=":" horiz-adv-x="298" 
d="M234 885h-145v144h145v-144zM234 0h-145v144h145v-144z" />
    <glyph glyph-name="semicolon" unicode=";" horiz-adv-x="365" 
d="M291 703h-114v115h114v-115zM291 5q0 -174 -119 -293l-81 79q86 89 86 213v0v113h114v-112z" />
    <glyph glyph-name="less" unicode="&#x3c;" horiz-adv-x="468" 
d="M374 0h-142q0 156 -114 267v0v0v178q114 111 114 267h142q0 -206 -142 -357q142 -148 142 -355z" />
    <glyph glyph-name="equal" unicode="=" horiz-adv-x="696" 
d="M624 775h-515v144h515v-144zM624 485h-515v144h515v-144z" />
    <glyph glyph-name="greater" unicode="&#x3e;" horiz-adv-x="457" 
d="M369 267v0q-113 -111 -113 -267h-145q0 205 145 355q-145 153 -145 357h145q0 -156 113 -267v0v0v-178z" />
    <glyph glyph-name="question" unicode="?" horiz-adv-x="636" 
d="M595 888q0 -212 -151 -362.5t-364 -150.5v0v144q154 0 262.5 108.5t108.5 260.5q0 142 -92.5 246t-229.5 122v-441h-49v589q214 0 364.5 -151t150.5 -365zM224 0h-144v144h144v-144z" />
    <glyph glyph-name="at" unicode="@" horiz-adv-x="1541" 
d="M1493 701q0 -185 -92 -345q-89 -156 -240 -250v399q-53 -102 -152 -162t-217 -60v-96h-2q-213 0 -363.5 151t-150.5 365q0 212 151 362.5t363 150.5t363 -149t152 -361v0v-407q139 179 139 402q0 272 -191.5 463t-462.5 191t-462 -191t-191 -463q0 -270 191 -461
t462 -191h2v-49h-2q-291 0 -496 205t-205 496q0 292 205 497.5t496 205.5q292 0 497.5 -205.5t205.5 -497.5zM1161 706q0 36 -7 71q-27 128 -128.5 211.5t-235.5 83.5q-153 0 -261.5 -108t-108.5 -261q0 -41 8 -76q26 -127 127.5 -211t234.5 -84q152 0 261.5 104t109.5 252
v18z" />
    <glyph glyph-name="A" unicode="A" horiz-adv-x="851" 
d="M762 1361v43q-290 0 -496 -205.5t-206 -494.5v0v-704h144v678h414v-678h144v1361v0zM205 727q8 184 123 325.5t290 188.5v-514h-413z" />
    <glyph glyph-name="B" unicode="B" horiz-adv-x="858" 
d="M793 678h-521q227 -61 373 -247q148 -190 148 -431h-703v1404q289 0 494.5 -204t208.5 -494v0v-28zM647 726q-9 211 -154 362t-354 170v-532h508zM629 144q-45 169 -179.5 282.5t-310.5 128.5v-411h490z" />
    <glyph glyph-name="C" unicode="C" horiz-adv-x="793" 
d="M782 124q-239 0 -408 169.5t-169 407.5q0 239 169 408t408 169v0v144h-0.5h-0.5q-298 0 -509.5 -211.5t-211.5 -509.5t211.5 -509.5t509.5 -211.5h1v144v0z" />
    <glyph glyph-name="D" unicode="D" horiz-adv-x="847" 
d="M794 703q0 -292 -206 -497.5t-497 -205.5v1404q291 0 497 -205.5t206 -495.5zM648 703q0 191 -117 342q-115 148 -296 197v-564h-95v-532q215 19 361.5 178.5t146.5 378.5z" />
    <glyph glyph-name="E" unicode="E" horiz-adv-x="820" 
d="M776 559q-191 0 -341 -117t-197 -298h522v-144h-686q0 241 147 431q145 187 372 247h-519v28q2 290 207 494t495 204v-144q-225 0 -386 -155t-170 -379h556v-167z" />
    <glyph glyph-name="F" unicode="F" horiz-adv-x="746" 
d="M760 1260q-225 0 -386 -155t-171 -379h528v-48h-529v-678h-145v705q2 289 207.5 494t495.5 205v-144z" />
    <glyph glyph-name="G" unicode="G" horiz-adv-x="847" 
d="M787 678h-2l2 -678q-292 0 -497.5 205.5t-205.5 497.5q0 291 205.5 496t497.5 205l-2 -144q-231 0 -394 -163t-163 -394q0 -193 116 -342.5t297 -198.5v516h-267v48h413v-48z" />
    <glyph glyph-name="H" unicode="H" horiz-adv-x="896" 
d="M802 0h-50v678h-508v-678h-144v1404h144v-582h508v582h50v-1404z" />
    <glyph glyph-name="I" unicode="I" horiz-adv-x="338" 
d="M244 0h-144v1404h144v-1404z" />
    <glyph glyph-name="J" unicode="J" horiz-adv-x="875" 
d="M796 699q0 -289 -206.5 -494t-496.5 -205v144q231 0 394.5 164t163.5 395v0v701h145v-705z" />
    <glyph glyph-name="K" unicode="K" horiz-adv-x="849" 
d="M789 1404q0 -278 -189.5 -480t-464.5 -219v-6q275 -19 464.5 -220.5t189.5 -478.5h-146q0 218 -146.5 377t-361.5 178v-555h-49v1404h49v-555q215 17 362.5 177t147.5 378h144z" />
    <glyph glyph-name="L" unicode="L" horiz-adv-x="771" 
d="M761 144v-144q-290 0 -496 205t-207 494v0v705h144v-701q0 -231 164 -395t395 -164z" />
    <glyph glyph-name="M" unicode="M" horiz-adv-x="1583" 
d="M1506 0h-144v701q0 225 -155 387t-379 172v-1260h-48v701h-121q0 193 -116 342t-297 197v-1240h-144v1404q241 0 430 -147q186 -145 248 -370v517h32q288 -3 490.5 -207t203.5 -492v0v-705z" />
    <glyph glyph-name="N" unicode="N" horiz-adv-x="906" 
d="M829 0h-145v701q0 225 -155 387t-378 172v-1260h-49v1404h33q288 -3 491 -207.5t203 -491.5v0v-705z" />
    <glyph glyph-name="O" unicode="O" horiz-adv-x="1536" 
d="M1485 702q0 297 -211 507.5t-508 210.5t-507.5 -211t-210.5 -508t210.5 -508t506.5 -211v96h0.5h0.5q259 0 441.5 182.5t182.5 441.5v0h95zM767 126q-238 0 -406.5 168.5t-168.5 406.5t168.5 406.5t406.5 168.5t406.5 -168.5t168.5 -406.5t-168.5 -406.5t-406.5 -168.5z
" />
    <glyph glyph-name="P" unicode="P" horiz-adv-x="789" 
d="M769 678h-559v-678h-144v1404q290 0 495.5 -205t207.5 -494v0v-27zM623 726q-8 184 -123.5 326t-289.5 190v-516h413z" />
    <glyph glyph-name="Q" unicode="Q" horiz-adv-x="1552" 
d="M1489 697q0 298 -210.5 508.5t-508.5 210.5q-297 0 -507.5 -210.5t-210.5 -508.5q0 -297 210.5 -507.5t507.5 -210.5q83 0 164 19h537v49h-396q186 87 299 260q115 178 115 390zM1346 697q0 -237 -168.5 -406t-406.5 -169t-406.5 169t-168.5 406q0 238 168.5 407
t406.5 169t406.5 -169t168.5 -407z" />
    <glyph glyph-name="R" unicode="R" horiz-adv-x="858" 
d="M793 678h-519q226 -62 371 -248q148 -190 148 -430h-146q0 218 -146.5 377t-361.5 178v-555h-49v1404q291 0 496.5 -205t206.5 -496v0v-25zM647 726q-9 211 -154 362t-354 170v-532h508z" />
    <glyph glyph-name="S" unicode="S" horiz-adv-x="828" 
d="M780 697q0 -288 -206.5 -492.5t-496.5 -204.5v144q225 0 386.5 155t170.5 379h-557v28q3 290 208 494t495 204v-144q-225 0 -386 -155t-171 -379h557v-29z" />
    <glyph glyph-name="T" unicode="T" horiz-adv-x="1391" 
d="M1374 701h-48q0 225 -156 387t-380 172v-1260h-144v1247q-190 -41 -314 -192q-125 -154 -125 -352h-145q0 283 198.5 487.5t481.5 213.5h21h27v-96q244 -9 414 -185t170 -422z" />
    <glyph glyph-name="U" unicode="U" horiz-adv-x="1574" 
d="M1497 694q0 -287 -206.5 -490.5t-494.5 -203.5q-291 0 -497 205.5t-206 495.5v0v703h144v-703v0q0 -231 163.5 -394t395.5 -163q231 0 393.5 163.5t162.5 395.5h96v701h49v-710z" />
    <glyph glyph-name="V" unicode="V" horiz-adv-x="920" 
d="M826 0h-33q-286 3 -489 207t-204 492v0v705h144v-701q0 -225 155 -387t378 -172v1260h49v-1404z" />
    <glyph glyph-name="W" unicode="W" horiz-adv-x="1597" 
d="M1504 144v-144q-241 0 -431 147q-186 144 -247 370v-517h-33q-286 3 -489 207t-204 492v0v705h144v-701q0 -225 155 -387t378 -172v1260h49v-701h121q0 -193 116 -342t296 -197v1240h145v-1260z" />
    <glyph glyph-name="X" unicode="X" horiz-adv-x="1484" 
d="M1470 0q-291 0 -496 205.5t-205 497.5q0 290 205 495.5t496 205.5v-144q-231 0 -394 -163t-163 -394t163 -395t394 -164v-144zM767 701q0 -291 -205.5 -496t-495.5 -205v144q231 0 394 163t163 394t-163 395t-394 164v144q291 0 496 -205.5t205 -497.5z" />
    <glyph glyph-name="Y" unicode="Y" horiz-adv-x="896" 
d="M802 0h-702v144h654v559q-275 19 -464.5 221t-189.5 480h144q0 -218 147 -377t363 -178v555h48v-1404z" />
    <glyph glyph-name="Z" unicode="Z" horiz-adv-x="786" 
d="M770 0h-702v847q218 0 377 147t178 361h-555v49h702q0 -278 -189.5 -480t-464.5 -221v-559h654v-144z" />
    <glyph glyph-name="bracketleft" unicode="[" horiz-adv-x="376" 
d="M338 -317h-291v1691h291v-120h-250v-1452h250v-119z" />
    <glyph glyph-name="backslash" unicode="\" horiz-adv-x="531" 
d="M499 -119h-40l-377 1404h42z" />
    <glyph glyph-name="bracketright" unicode="]" horiz-adv-x="449" 
d="M64 -317h292v1691h-292v-120h250v-1452h-250v-119z" />
    <glyph glyph-name="asciicircum" unicode="^" horiz-adv-x="911" 
d="M830 1148q-206 0 -357 142q-148 -142 -355 -142v142q156 0 267 114v0v0h178q108 -114 267 -114v-142z" />
    <glyph glyph-name="underscore" unicode="_" horiz-adv-x="887" 
d="M786 144v-144h-659v144h659z" />
    <glyph glyph-name="grave" unicode="`" horiz-adv-x="452" 
d="M372 993l-102 -103q-150 150 -150 373v141h144v-144q-3 -156 108 -267z" />
    <glyph glyph-name="a" unicode="a" horiz-adv-x="1213" 
d="M596 1054q221 0 378 -159t157 -381v-514h-145v148v-1v160q-57 -106 -162 -171q-108 -68 -231 -68v-90h-1v0q-104 0 -199 38q-150 60 -244 195.5t-94 302.5q0 225 156 382.5t385 157.5zM558 124q12 -1 35 -2q162 0 278 114.5t116 277.5q0 165 -115 280.5t-279 115.5
q-163 0 -278.5 -116.5t-115.5 -279.5q0 -153 103.5 -265t255.5 -125z" />
    <glyph glyph-name="b" unicode="b" horiz-adv-x="827" 
d="M242 1058v528h-148v-528h97v-530h-97v-528h148q218 0 373 155.5t155 374.5t-154.5 373.5t-373.5 154.5zM242 148v0v762q157 0 268.5 -111.5t111.5 -268.5q0 -158 -111 -270t-269 -112z" />
    <glyph glyph-name="c" unicode="c" horiz-adv-x="627" 
d="M184 528q0 163 115 278t277 116v144q-221 0 -378.5 -157.5t-157.5 -380.5q0 -222 157.5 -380t378.5 -158v144q-162 1 -277 116t-115 278z" />
    <glyph glyph-name="d" unicode="d" horiz-adv-x="862" 
d="M629 1058v528h148v-530h-97v-528h97v-528h-148q-219 0 -373.5 154.5t-154.5 373.5t155 374.5t373 155.5zM629 148v0v762q-158 0 -269 -112t-111 -270q0 -157 111.5 -268.5t268.5 -111.5z" />
    <glyph glyph-name="e" unicode="e" horiz-adv-x="1133" 
d="M580 1055q-222 0 -380 -158t-158 -380q0 -223 157 -380t379 -158v144q-156 1 -268.5 108t-122.5 261h787v0h144v25q0 222 -157.5 380t-380.5 158zM607 540h-420q9 156 123 263.5t270 107.5q131 0 234 -77t142 -197h-349v-97z" />
    <glyph glyph-name="f" unicode="f" horiz-adv-x="665" 
d="M713 1435v147q-219 0 -373.5 -154.5t-154.5 -373.5h-150v-50h249v-478h-101v-524h151v1002h148v50h-148v40q15 144 123.5 242.5t255.5 98.5z" />
    <glyph glyph-name="g" unicode="g" horiz-adv-x="723" 
d="M482 -5v19q-167 50 -273 188q-108 142 -108 321q0 219 155 373.5t374 154.5v0v-1058q-2 -218 -156.5 -372t-372.5 -154v147q158 0 269.5 111.5t111.5 269.5zM249 523q0 -144 95 -252t235 -127v379h-97v349q-104 -44 -168 -137q-65 -96 -65 -212z" />
    <glyph glyph-name="h" unicode="h" horiz-adv-x="830" 
d="M772 532q-2 217 -155.5 371t-370.5 155v0h-2v528h-148v-528h97v-530h-97v-528h148v908q158 0 269 -111t111 -269v0v-528h148v532z" />
    <glyph glyph-name="i" unicode="i" horiz-adv-x="327" 
d="M243 1222h-160v182h160v-182zM243 0h-160v1058h160v-1058z" />
    <glyph glyph-name="j" unicode="j" horiz-adv-x="687" 
d="M482 0h97v528h-97v528h148v-1056q0 -219 -154.5 -373.5t-373.5 -154.5v148q157 0 268.5 111t111.5 269zM482 1405v-147h148v147h-148z" />
    <glyph glyph-name="k" unicode="k" horiz-adv-x="826" 
d="M240 528q218 1 372.5 156t154.5 372h-148q0 -157 -111.5 -268.5t-268.5 -111.5v0v908h-148v-528h97v-528h-97v-528h148v380q156 0 268 -111.5t112 -268.5h148q0 217 -154.5 372t-372.5 156z" />
    <glyph glyph-name="l" unicode="l" horiz-adv-x="586" 
d="M193 530h-97v526h97v530h-147v-1056q0 -219 154 -374t374 -156v150q-158 0 -269.5 111t-111.5 269z" />
    <glyph glyph-name="m" unicode="m" horiz-adv-x="1238" 
d="M1157 0h-147v528q0 151 -103 261t-253 119v-908h-50v908h-355v-908h-148v908h-2v148h530q219 0 373.5 -154t154.5 -372v0v-530z" />
    <glyph glyph-name="n" unicode="n" horiz-adv-x="857" 
d="M777 0h-150v528q0 158 -110.5 269t-267.5 111v0h-99v-376h97v-532h-148v1058h51v-2h97q219 0 373.5 -154t154.5 -372h2v-530z" />
    <glyph glyph-name="o" unicode="o" horiz-adv-x="1197" 
d="M588 1066q-223 0 -381 -158t-158 -380q0 -223 157.5 -380.5t381.5 -157.5q222 0 380 157.5t158 380.5q0 222 -158 380t-380 158zM588 121q-163 0 -279 115.5t-116 278.5t116 278.5t279 115.5t278.5 -115.5t115.5 -278.5t-115.5 -278.5t-278.5 -115.5z" />
    <glyph glyph-name="p" unicode="p" horiz-adv-x="1221" 
d="M218 -501h-145v1026q0 222 157 381t378 159q229 0 385 -157.5t156 -382.5q0 -167 -95 -304q-93 -133 -243 -194q-96 -38 -199 -38h-0.5h-0.5v90q-123 0 -231 68q-105 65 -162 171v-160v1v-660zM611 133h2q10 0 33 2q151 13 255 125t104 265q0 163 -115.5 279.5
t-278.5 116.5q-164 0 -279 -115.5t-115 -280.5q0 -163 116 -277.5t278 -114.5z" />
    <glyph glyph-name="q" unicode="q" horiz-adv-x="1231" 
d="M1005 -501h145v1026q0 222 -157 381t-378 159q-229 0 -385 -157.5t-156 -382.5q0 -167 95 -304q93 -133 243 -194q95 -38 198 -38h1h1v90q123 0 231 68q105 65 162 171v-160v1v-660zM612 133h-2q-10 0 -33 2q-152 13 -255.5 125t-103.5 265q0 163 115.5 279.5
t278.5 116.5q164 0 279 -115.5t115 -280.5q0 -163 -116 -277.5t-278 -114.5z" />
    <glyph glyph-name="r" unicode="r" horiz-adv-x="636" 
d="M122 753v303h-50v-1056h147v528q0 157 111.5 268.5t269.5 111.5v148q-156 0 -284.5 -83.5t-193.5 -219.5z" />
    <glyph glyph-name="s" unicode="s" horiz-adv-x="682" 
d="M234 553q10 149 120 252t261 103v148q-216 0 -372 -149.5t-156 -360.5v-43h378q-9 -149 -118.5 -252t-259.5 -103v-148q211 0 364 146.5t164 356.5v0v50h-381z" />
    <glyph glyph-name="t" unicode="t" horiz-adv-x="752" 
d="M353 528h-97v503h247v50h-150v503h-148v-503h-147v-50h147v-507q2 -217 156.5 -370.5t372.5 -155.5v150q-158 0 -269.5 111t-111.5 269z" />
    <glyph glyph-name="u" unicode="u" horiz-adv-x="1203" 
d="M1119 528v528h-148v-530q0 -156 -111.5 -267t-268.5 -111q-158 0 -269 111t-111 269v528h-148v-528q0 -219 154.5 -373.5t373.5 -154.5t373.5 154.5t154.5 373.5v0z" />
    <glyph glyph-name="v" unicode="v" horiz-adv-x="871" 
d="M101 1058h147v-530q0 -157 111 -268t270 -112v0v0v2h99v376h-99v532h147v-2h2v-1056h-149q-218 0 -373 154.5t-155 373.5v0v530z" />
    <glyph glyph-name="w" unicode="w" horiz-adv-x="1203" 
d="M52 1056h148v-528q0 -151 103 -260t252 -118v906h51v-528h122q1 -116 67 -212q63 -94 167 -138v878h148v-1006h-2v-50q-173 0 -311.5 103t-190.5 265v-368h-26q-218 0 -373 154.5t-155 373.5v0v528z" />
    <glyph glyph-name="x" unicode="x" horiz-adv-x="1192" 
d="M1138 908v0v150q-219 0 -373.5 -154.5t-156.5 -373.5q0 219 -154.5 373.5t-373.5 154.5v0v-150q158 0 269.5 -111t111.5 -269q0 -157 -111.5 -268.5t-269.5 -111.5v0v-148q219 0 373.5 154.5t154.5 373.5q2 -219 156.5 -373.5t373.5 -154.5v0v148q-158 0 -270 111.5
t-112 268.5q0 158 112 269t270 111z" />
    <glyph glyph-name="y" unicode="y" horiz-adv-x="857" 
d="M96 526q2 -218 155.5 -371t371.5 -153v0h1v-530h148v528h-97v530h97v528h-148v-908q-158 0 -269 111t-111 269v0v528h-148v-532z" />
    <glyph glyph-name="z" unicode="z" horiz-adv-x="660" 
d="M79 148v-148h530v148h-479v384q202 19 340 169.5t139 356.5h-530v-148h352q-44 -104 -139 -168t-213 -64v-530z" />
    <glyph glyph-name="braceleft" unicode="{" horiz-adv-x="745" 
d="M85 412q110 -107 115 -259v0v-15q9 -209 162.5 -355.5t365.5 -146.5v147q-154 0 -264.5 106.5t-115.5 257.5q-7 209 -146 357q139 145 146 355q5 153 115.5 259.5t264.5 106.5v148q-211 0 -364 -146.5t-164 -356.5v0v-14q-5 -153 -115 -260v0v0v-184z" />
    <glyph glyph-name="bar" unicode="|" horiz-adv-x="261" 
d="M118 -153v1737h50v-1737h-50z" />
    <glyph glyph-name="braceright" unicode="}" horiz-adv-x="828" 
d="M754 412q-110 -107 -116 -259v0q1 -5 0 -15q-9 -209 -162.5 -355.5t-365.5 -146.5v147q154 0 265 106.5t115 257.5q7 209 146 357q-139 145 -146 355q-4 153 -115 259.5t-265 106.5v148q212 0 364.5 -146.5t163.5 -356.5v0v-14q6 -153 116 -260v0v0v-184z" />
    <glyph glyph-name="asciitilde" unicode="~" horiz-adv-x="770" 
d="M678 796v-144q-35 -20 -70 -41q-40 -21 -70 -21v0q-29 0 -69 22q-35 21 -70 41v0q-32 17 -65 17q-36 0 -74 -21v0q-106 -61 -139 -59v0v144q33 -2 139 59v0q38 21 74 21q33 0 65 -17v0q35 -20 70 -41q40 -22 69 -22v0q30 -1 70 21q35 21 70 41z" />
    <glyph glyph-name="cent" unicode="&#xa2;" horiz-adv-x="638" 
d="M582 918v144q-91 0 -178 -31v194h-47v-214q-140 -65 -224 -194q-86 -133 -86 -292t86 -292q84 -129 224 -194v-213h47v194q86 -31 178 -31v143q-95 1 -178 44v698q83 44 178 44zM357 204q-167 118 -167 321t167 321v-642z" />
    <glyph glyph-name="sterling" unicode="&#xa3;" horiz-adv-x="733" 
d="M383 225q-36 0 -74 -22q-106 -60 -137 -59v533h529v49h-528q10 222 171 377t386 155l-1 144q-289 0 -495 -205t-206 -494v0v-703h144v0q32 -1 137 59q38 22 74 22q32 0 65 -17q35 -21 69 -42q41 -22 70 -22t69 21l70 42v143q-35 -20 -70 -41q-40 -22 -69 -21
q-29 0 -70 22q-34 21 -68 40t-66 19z" />
    <glyph glyph-name="registered" unicode="&#xae;" horiz-adv-x="705" 
d="M340 1404q-120 0 -204.5 -84.5t-84.5 -203.5q0 -120 84.5 -204.5t204.5 -84.5q119 0 203.5 84.5t84.5 204.5q0 119 -84.5 203.5t-203.5 84.5zM340 885q-96 0 -163.5 67.5t-67.5 163.5q0 95 67.5 162.5t163.5 67.5q95 0 163 -67.5t68 -162.5q0 -96 -68 -163.5t-163 -67.5z
M321 1118h129l-1 12q-4 71 -51 123t-116 58v1h-18v0v0v-52v0v-124v0v-18v0v-176h18v132q49 -7 82.5 -44.5t33.5 -87.5h52q0 61 -36.5 109.5t-92.5 66.5zM282 1259q47 -6 79.5 -41t35.5 -82h-115v123z" />
    <glyph glyph-name="copyright" unicode="&#xa9;" horiz-adv-x="704" 
d="M383 1242v0q-55 0 -94 -39t-39 -95q0 -55 39 -94t94 -39v0v-52v0q-77 0 -131 54.5t-54 130.5q0 77 54 131.5t131 54.5v0v-52zM627 1116q0 -120 -84.5 -204.5t-203.5 -84.5t-204 84.5t-85 204.5q0 119 85 203.5t204 84.5t203.5 -84.5t84.5 -203.5zM570 1116
q0 95 -68 162.5t-163 67.5t-163 -67.5t-68 -162.5q0 -96 68 -163.5t163 -67.5t163 67.5t68 163.5z" />
    <glyph glyph-name="trademark" unicode="&#x2122;" horiz-adv-x="819" 
d="M276 1385h-75v-392h-57v392h-74v20h206v-20zM732 1201v0q-1 84 -61 144t-144 60v0h-206v-20v0v-392h57v392h120v-392h57v390q67 -10 112 -62t46 -120h-38v-208h57v206v0v0v0.5v0.5v1z" />
    <glyph glyph-name="plusminus" unicode="&#xb1;" horiz-adv-x="636" 
d="M566 774h-186v186h-144v-186h-186v-144h186v-186h144v186h186v144zM566 300v-144h-516v144h516z" />
    <glyph glyph-name="yen" unicode="&#xa5;" horiz-adv-x="1383" 
d="M1372 1404h-144q0 -208 -136.5 -365.5t-342.5 -185.5q213 122 273 130l-53 -53q-115 -63 -249 -80q-21 -2 -49 0v-1q-6 1 -36 5q-202 31 -337 186.5t-135 363.5h-144q0 -240 147 -430q144 -186 370 -247h-264v-49h351v-47h-351v-49h351v-582h144v582h351v49h-351v47h351
v49h-264q227 61 371 247q147 190 147 430z" />
    <glyph glyph-name="guillemotleft" unicode="&#xab;" horiz-adv-x="740" 
d="M646 0h-142q0 156 -114 267v0v0v178q114 111 114 267h142q0 -206 -142 -357q142 -148 142 -355zM374 0h-142q0 156 -114 267v0v0v178q114 111 114 267h142q0 -206 -142 -357q142 -148 142 -355z" />
    <glyph glyph-name="guillemotright" unicode="&#xbb;" horiz-adv-x="729" 
d="M113 0h143q0 156 113 267v0v0v178q-113 111 -113 267h-143q0 -206 143 -357q-143 -148 -143 -355zM385 0h143q0 156 113 267v0v0v178q-113 111 -113 267h-143q0 -206 143 -357q-143 -148 -143 -355z" />
    <glyph glyph-name="ellipsis" unicode="&#x2026;" horiz-adv-x="693" 
d="M605 0h-144v144h144v-144zM412 144h-144v-144h144v144zM218 144h-143v-144h143v144z" />
    <glyph glyph-name="quotedblleft" unicode="&#x201c;" horiz-adv-x="540" 
d="M444 1170h-142v234h142v-234zM251 1170h-144v234h144v-234z" />
    <glyph glyph-name="quotedblright" unicode="&#x201d;" horiz-adv-x="540" 
d="M444 1170h-142v234h142v-234zM251 1170h-144v234h144v-234z" />
    <glyph glyph-name="currency" unicode="&#xa4;" horiz-adv-x="933" 
d="M892 677v49h-92q-9 283 -213 480.5t-488 197.5v-144q224 0 385.5 -155t171.5 -378h-612v-50h56q1 -26 3 -47h-59v-50h66q43 -249 237 -413q196 -167 454 -167v144q-198 0 -351 125q-151 122 -193 311h635v50h-644q-3 24 -4 47h648z" />
    <glyph glyph-name="perthousand" unicode="&#x2030;" horiz-adv-x="1892" 
d="M1215 278q0 -117 -82.5 -199.5t-198.5 -82.5t-198.5 82.5t-82.5 199.5t82 199t199 82t199 -82t82 -199zM613 879q0 -116 -82.5 -198.5t-198.5 -82.5q-117 0 -199 82.5t-82 198.5q0 117 82 199.5t199 82.5q116 0 198.5 -82.5t82.5 -199.5zM842 1278l-377 -1404h-39
l375 1404h41zM1136 278q0 84 -59 143.5t-143 59.5t-143 -59.5t-59 -143.5t59 -143t143 -59t143 59t59 143zM534 879q0 84 -59 143t-143 59t-144 -59t-60 -143q0 -83 60 -142t144 -59t143 59t59 142zM1845 278q0 -117 -82.5 -199.5t-198.5 -82.5q-117 0 -199.5 82.5
t-82.5 199.5t82.5 199t199.5 82q116 0 198.5 -82t82.5 -199zM1765 278q0 84 -59 143.5t-142 59.5q-84 0 -143 -59.5t-59 -143.5t59 -143t143 -59q83 0 142 59t59 143z" />
    <glyph glyph-name="afii10023" unicode="&#x401;" horiz-adv-x="820" 
d="M611 1451h-144v144h144v-144zM323 1451h-146v144h146v-144zM776 559q-191 0 -341 -117t-197 -298h522v-144h-686q0 241 147 431q145 187 372 247h-519v28q2 290 207 494t495 204v-144q-225 0 -386 -155t-170 -379h556v-167z" />
    <glyph glyph-name="afii10053" unicode="&#x404;" horiz-adv-x="773" 
d="M757 1280v0v144h-0.5h-0.5q-298 0 -509.5 -211.5t-211.5 -509.5t211.5 -509.5t509.5 -211.5h1v144v0q-232 0 -399.5 161.5t-176.5 392.5h576v48h-576q10 231 177 391.5t399 160.5z" />
    <glyph glyph-name="afii10055" unicode="&#x406;" horiz-adv-x="358" 
d="M264 0h-145v1404h145v-1404z" />
    <glyph glyph-name="afii10056" unicode="&#x407;" horiz-adv-x="449" 
d="M481 1451h-144v146h144v-146zM192 1451h-146v146h146v-146zM337 -2h-145v1404h145v-1404z" />
    <glyph glyph-name="afii10017" unicode="&#x410;" horiz-adv-x="791" 
d="M702 1361v43q-290 0 -496 -205.5t-206 -494.5v0v-704h144v678h414v-678h144v1361v0zM145 727q8 184 123.5 325.5t289.5 188.5v-514h-413z" />
    <glyph glyph-name="afii10018" unicode="&#x411;" horiz-adv-x="805" 
d="M86 1404h702v-144h-654v-559q275 -19 464.5 -221t189.5 -480h-702v1404zM134 555v-411h490q-44 169 -179 282.5t-311 128.5z" />
    <glyph glyph-name="afii10019" unicode="&#x412;" horiz-adv-x="867" 
d="M807 1404q0 -278 -189.5 -480t-464.5 -219v-4q275 -19 464.5 -221t189.5 -480h-703v1404h703zM643 1260h-490v-411q176 15 310.5 128.5t179.5 282.5zM153 555v-411h490q-45 169 -179.5 282.5t-310.5 128.5z" />
    <glyph glyph-name="afii10020" unicode="&#x413;" horiz-adv-x="768" 
d="M218 0v701q0 231 164 395t395 164v144q-291 0 -496.5 -205t-206.5 -494v0v-705h144z" />
    <glyph glyph-name="afii10021" unicode="&#x414;" horiz-adv-x="1511" 
d="M1119 48v1210v0v145q-299 0 -511 -206.5t-212 -498.5v0v-650h-362v-284h149v235h213v-1h149v1h425v-1h149v1h213v-235h148v284h-361zM970 48h-425v649v0q0 193 121 345q118 149 304 197v-1191z" />
    <glyph glyph-name="afii10022" unicode="&#x415;" horiz-adv-x="820" 
d="M776 559q-191 0 -341 -117t-197 -298h522v-144h-686q0 241 147 431q145 187 372 247h-519v28q2 290 207 494t495 204v-144q-225 0 -386 -155t-170 -379h556v-167z" />
    <glyph glyph-name="afii10024" unicode="&#x416;" horiz-adv-x="1502" 
d="M931 703q0 231 163 394t394 163v144q-241 0 -428.5 -146t-249.5 -373v519h-49v-517q-61 225 -247 370q-190 147 -430 147v-144q231 0 394 -164t163 -395t-163 -394t-394 -163v-144q240 0 430 147q186 144 247 370v-517h49v519q62 -227 249.5 -373t428.5 -146v144
q-231 0 -394 164t-163 395z" />
    <glyph glyph-name="afii10025" unicode="&#x417;" horiz-adv-x="873" 
d="M104 845v-167h557q-9 -224 -170 -379t-387 -155v-144q290 0 495.5 204t207.5 493v0v29h-521q227 60 374 248.5t147 429.5h-686v-144h522q-48 -181 -196 -297q-151 -118 -343 -118z" />
    <glyph glyph-name="afii10026" unicode="&#x418;" horiz-adv-x="938" 
d="M118 699q1 -288 204 -492t489 -207v0h33v1404h-49v-1260q-223 10 -378 172t-155 387v0v701h-144v-705z" />
    <glyph glyph-name="afii10027" unicode="&#x419;" horiz-adv-x="925" 
d="M117 701v703h144v-701q0 -225 155 -386.5t378 -170.5v1258h49v-1404h-32q-288 4 -490.5 208t-203.5 493zM335 1597v-144h290v144h-290z" />
    <glyph glyph-name="afii10028" unicode="&#x41a;" horiz-adv-x="873" 
d="M248 717v-30q242 -51 400.5 -243t158.5 -444h-144q0 191 -117 341t-298 198v-539h-144v1404h49v-555q215 17 361.5 176.5t146.5 378.5h146q0 -252 -158.5 -444t-400.5 -243z" />
    <glyph glyph-name="afii10029" unicode="&#x41b;" horiz-adv-x="938" 
d="M118 705q1 287 204 491.5t489 207.5v0h33v-1404h-49v1260q-223 -10 -378 -172t-155 -387v0v-701h-144v705z" />
    <glyph glyph-name="afii10030" unicode="&#x41c;" horiz-adv-x="1601" 
d="M1524 705q-1 288 -203.5 492t-490.5 207v0h-32v-517q-62 225 -248 370q-189 147 -430 147v-1404h144v1240q181 -48 297 -197t116 -342h121v-701h49v1260q223 -10 378 -172t155 -387v0v-701h144v705z" />
    <glyph glyph-name="afii10031" unicode="&#x41d;" 
d="M674 1404v-678h-412v678h-144v-1404h144v678h412v-678h146v1404h-146z" />
    <glyph glyph-name="afii10032" unicode="&#x41e;" horiz-adv-x="1536" 
d="M1485 702q0 297 -211 507.5t-508 210.5t-507.5 -211t-210.5 -508t210.5 -508t506.5 -211v96h0.5h0.5q259 0 441.5 182.5t182.5 441.5v0h95zM767 126q-238 0 -406.5 168.5t-168.5 406.5t168.5 406.5t406.5 168.5t406.5 -168.5t168.5 -406.5t-168.5 -406.5t-406.5 -168.5z
" />
    <glyph glyph-name="afii10033" unicode="&#x41f;" horiz-adv-x="924" 
d="M847 705q0 287 -203 491.5t-491 207.5v0h-33v-1404h49v1260q223 -10 378 -172t155 -387v0v-701h145v705z" />
    <glyph glyph-name="afii10034" unicode="&#x420;" horiz-adv-x="807" 
d="M84 1260v144q290 0 495.5 -205t207.5 -494v0v-27h-559v-678h-144v1260zM228 726h413q-8 184 -123.5 326t-289.5 190v-516z" />
    <glyph glyph-name="afii10035" unicode="&#x421;" horiz-adv-x="793" 
d="M782 124q-239 0 -408 169.5t-169 407.5q0 239 169 408t408 169v0v144h-0.5h-0.5q-298 0 -509.5 -211.5t-211.5 -509.5t211.5 -509.5t509.5 -211.5h1v144v0z" />
    <glyph glyph-name="afii10036" unicode="&#x422;" horiz-adv-x="1409" 
d="M809 1308v96h-28h-21q-283 -9 -481.5 -213.5t-198.5 -487.5h145q0 198 125 352q124 151 314 192v-1247h145v1260q223 -10 379 -172t156 -387h48q0 246 -170 422t-413 185z" />
    <glyph glyph-name="afii10037" unicode="&#x423;" 
d="M820 1404h-48v-555q-216 19 -363 178t-147 377h-144q0 -278 189.5 -480t464.5 -221v-559h-654v-144h702v1404z" />
    <glyph glyph-name="afii10038" unicode="&#x424;" horiz-adv-x="1501" 
d="M1484 701q0 292 -205 497.5t-496 205.5t-496.5 -204.5t-206.5 -494.5v0v-27h629v-678h144v678h631v23zM224 726q10 204 148 353.5t337 174.5v-528h-485zM853 1254q201 -25 339 -174t148 -354h-487v528z" />
    <glyph glyph-name="afii10039" unicode="&#x425;" horiz-adv-x="1502" 
d="M641 701q0 -231 -163 -394t-394 -163v-144q290 0 495.5 205t205.5 496q0 292 -205 497.5t-496 205.5v-144q231 0 394 -164t163 -395zM1488 0v144q-231 0 -394 164t-163 395t163 394t394 163v144q-291 0 -496 -205.5t-205 -495.5q0 -292 205 -497.5t496 -205.5z" />
    <glyph glyph-name="afii10040" unicode="&#x426;" horiz-adv-x="969" 
d="M895 144h-145v1260h-146v-1240h-3q-7 2 -18 5q-173 55 -282 201.5t-109 330.5h-96v703h-49v-716q6 -250 167.5 -439.5t402.5 -235.5q2 0 4.5 -1t4.5 -1q10 -2 31 -6h10q6 0 16 -1t15 -2h11q13 -2 38 -2h148v144z" />
    <glyph glyph-name="afii10041" unicode="&#x427;" 
d="M820 1404h-50v-555q-214 17 -361 177t-147 378h-144q0 -252 158 -444t398 -243v-717h146v1404z" />
    <glyph glyph-name="afii10042" unicode="&#x428;" horiz-adv-x="1615" 
d="M1522 144v1260h-145v-1260h-484v1260h-146v-1254q-206 25 -345.5 182.5t-139.5 368.5h-96v703h-48v-716q5 -286 209.5 -487t491.5 -201v0h703v144z" />
    <glyph glyph-name="afii10043" unicode="&#x429;" horiz-adv-x="1670" 
d="M1451 144v1260h-144v-1260h-486v1260h-145v-1254h-1q-26 3 -36 5q-3 1 -8 2q-10 2 -32 7q-178 51 -292.5 199.5t-114.5 337.5h-96v703h-49v-716q6 -286 211 -487t492 -201v0h846v144h-145z" />
    <glyph glyph-name="afii10044" unicode="&#x42a;" horiz-adv-x="955" 
d="M935 0q0 278 -189 480t-463 221v703h-195v-144h144v-1260h703zM283 555q176 -15 309.5 -128.5t178.5 -282.5h-488v411z" />
    <glyph glyph-name="afii10045" unicode="&#x42b;" horiz-adv-x="1179" 
d="M939 1404h146v-1404h-146v1404zM118 0v1404h48v-703q275 -19 464.5 -221t189.5 -480h-702zM166 144h490q-44 169 -179 282.5t-311 128.5v-411z" />
    <glyph glyph-name="afii10046" unicode="&#x42c;" horiz-adv-x="811" 
d="M791 0q0 278 -189.5 480t-464.5 221v703h-49v-1404h703zM137 555q176 -15 310.5 -128.5t179.5 -282.5h-490v411z" />
    <glyph glyph-name="afii10047" unicode="&#x42d;" horiz-adv-x="822" 
d="M43 1280h-1v144h1v0q298 0 509.5 -211.5t211.5 -509.5t-211.5 -509.5t-509.5 -211.5h-1v144h1q232 0 399.5 161.5t176.5 392.5h-577v48h577q-10 231 -177 391.5t-399 160.5z" />
    <glyph glyph-name="afii10048" unicode="&#x42e;" horiz-adv-x="1566" 
d="M1513 703q0 290 -205 495.5t-496 205.5v0h-25v-629h-629v629h-49v-1404h144v629h534v-629h30q290 3 493 208.5t203 494.5zM835 144v1116q224 -10 379 -171.5t155 -385.5q0 -225 -155 -387t-379 -172z" />
    <glyph glyph-name="afii10049" unicode="&#x42f;" 
d="M820 559v845q-290 0 -495.5 -205t-206.5 -494v0v-27h519q-227 -62 -372 -248q-147 -189 -147 -430h144q0 218 146.5 377t361.5 178v-555h50v559zM770 1258v-436h-496q40 176 177 298t319 138z" />
    <glyph glyph-name="afii10065" unicode="&#x430;" horiz-adv-x="1213" 
d="M596 1054q221 0 378 -159t157 -381v-514h-145v148v-1v160q-57 -106 -162 -171q-108 -68 -231 -68v-90h-1v0q-104 0 -199 38q-150 60 -244 195.5t-94 302.5q0 225 156 382.5t385 157.5zM558 124q12 -1 35 -2q162 0 278 114.5t116 277.5q0 165 -115 280.5t-279 115.5
q-163 0 -278.5 -116.5t-115.5 -279.5q0 -153 103.5 -265t255.5 -125z" />
    <glyph glyph-name="afii10066" unicode="&#x431;" horiz-adv-x="712" 
d="M261 1034v24q0 157 112 267.5t269 110.5v148q-219 0 -373.5 -154.5t-154.5 -373.5h97v-530h-97v-528q219 0 373.5 154.5t154.5 373.5q0 179 -107 320t-274 188zM261 177v701q105 -44 169 -139t64 -213q0 -116 -64.5 -211t-168.5 -138z" />
    <glyph glyph-name="afii10067" unicode="&#x432;" horiz-adv-x="720" 
d="M647 0q0 206 -137.5 356.5t-339.5 169.5v2h477v29l-2 22q-19 201 -170 339.5t-356 139.5v-1058h528zM496 579h-326v326q127 -17 218 -108t108 -218zM470 148h-300v230q214 -28 300 -230z" />
    <glyph glyph-name="afii10068" unicode="&#x433;" horiz-adv-x="619" 
d="M581 947v0v85q-213 0 -363.5 -151t-150.5 -364v0v-515h144v516v0q0 139 92.5 243.5t228.5 122.5q18 3 49 3v60z" />
    <glyph glyph-name="afii10069" unicode="&#x434;" horiz-adv-x="1141" 
d="M290 50v575q0 179 126 305t304 126v0v0h148v-1006h233v-207h-148v157h-761v-157h-97v-2h-50v209h245zM720 1006q-157 0 -268.5 -112t-111.5 -269h97v-575h283v956z" />
    <glyph glyph-name="afii10070" unicode="&#x435;" horiz-adv-x="1130" 
d="M576 1066q-222 0 -380 -158t-158 -380q0 -223 157 -380t379 -158v144q-156 1 -268.5 108t-122.5 261h787v0h144q1 13 1 25q0 222 -158 380t-381 158zM603 551h-420q9 156 123 263.5t270 107.5q131 0 234 -77t142 -197h-349v-97z" />
    <glyph glyph-name="afii10072" unicode="&#x436;" horiz-adv-x="1168" 
d="M1115 910v0v148q-174 0 -312.5 -103t-190.5 -265v368h-51v-368q-52 162 -188 263q-140 103 -314 103v0v-148q158 0 269 -111t111 -269q0 -157 -111.5 -268.5t-268.5 -111.5v0v-148q174 0 314 103q136 101 188 263v-366h51v368q52 -162 190.5 -265t312.5 -103v0v148
q-157 0 -269 111.5t-112 268.5q0 158 112 270t269 112z" />
    <glyph glyph-name="afii10073" unicode="&#x437;" horiz-adv-x="724" 
d="M648 1059q0 -175 -105 -315q-101 -137 -263 -190h368v-32q0 -215 -155.5 -367t-373.5 -154v150q151 0 260.5 102.5t120.5 250.5h-381v175q117 0 213 65q93 63 139 167h-352v148h529z" />
    <glyph glyph-name="afii10074" unicode="&#x438;" horiz-adv-x="741" 
d="M119 528v528h147v-528q0 -144 95 -251t235 -126v377h-97v528h148v-1056q-219 0 -373.5 154.5t-154.5 373.5z" />
    <glyph glyph-name="afii10075" unicode="&#x439;" horiz-adv-x="723" 
d="M118 528v530h148v-530h-2q2 -144 96.5 -251t235.5 -126v377h-97v530h147v-971h-1v-87q-218 0 -372.5 154.5t-156.5 373.5h2zM529 1405v-183h-295v183h295z" />
    <glyph glyph-name="afii10076" unicode="&#x43a;" horiz-adv-x="726" 
d="M159 1056v-378q149 9 252 118t103 260h148q0 -211 -146.5 -364t-356.5 -164v0q210 -11 356.5 -163.5t146.5 -364.5h-148q0 151 -103 260t-252 120v-380h-51v1056h51z" />
    <glyph glyph-name="afii10077" unicode="&#x43b;" horiz-adv-x="741" 
d="M119 528v-528h147v530q0 144 95 250.5t235 124.5v-377h-97v-528h148v1056q-219 0 -373.5 -154.5t-154.5 -373.5z" />
    <glyph glyph-name="afii10078" unicode="&#x43c;" horiz-adv-x="1238" 
d="M1157 0h-147v528q0 151 -103 261t-253 119v-908h-50v908h-355v-908h-148v908h-2v148h530q219 0 373.5 -154t154.5 -372v0v-530z" />
    <glyph glyph-name="afii10079" unicode="&#x43d;" horiz-adv-x="741" 
d="M499 1056v-503h-233v503h-147v-1056h147v503h233v-503h148v1056h-148z" />
    <glyph glyph-name="afii10080" unicode="&#x43e;" horiz-adv-x="1197" 
d="M588 1066q-223 0 -381 -158t-158 -380q0 -223 157.5 -380.5t381.5 -157.5q222 0 380 157.5t158 380.5q0 222 -158 380t-380 158zM588 121q-163 0 -279 115.5t-116 278.5t116 278.5t279 115.5t278.5 -115.5t115.5 -278.5t-115.5 -278.5t-278.5 -115.5z" />
    <glyph glyph-name="afii10081" unicode="&#x43f;" horiz-adv-x="876" 
d="M795 0h-150v528q0 158 -110.5 269t-267.5 111v0h-99v-376h97v-532h-148v1058h51v-2h97q219 0 373.5 -154t154.5 -372h2v-530z" />
    <glyph glyph-name="afii10082" unicode="&#x440;" horiz-adv-x="1221" 
d="M218 -501h-145v1026q0 222 157 381t378 159q229 0 385 -157.5t156 -382.5q0 -167 -95 -304q-93 -133 -243 -194q-96 -38 -199 -38h-0.5h-0.5v90q-123 0 -231 68q-105 65 -162 171v-160v1v-660zM611 133h2q10 0 33 2q151 13 255 125t104 265q0 163 -115.5 279.5
t-278.5 116.5q-164 0 -279 -115.5t-115 -280.5q0 -163 116 -277.5t278 -114.5z" />
    <glyph glyph-name="afii10083" unicode="&#x441;" horiz-adv-x="627" 
d="M184 528q0 163 115 278t277 116v144q-221 0 -378.5 -157.5t-157.5 -380.5q0 -222 157.5 -380t378.5 -158v144q-162 1 -277 116t-115 278z" />
    <glyph glyph-name="afii10084" unicode="&#x442;" horiz-adv-x="645" 
d="M585 1029h-514v-49h185v-980h144v980h185v49z" />
    <glyph glyph-name="afii10085" unicode="&#x443;" horiz-adv-x="875" 
d="M114 526q2 -218 155.5 -371t371.5 -153v0h1v-530h148v528h-97v530h97v528h-148v-908q-158 0 -269 111t-111 269v0v528h-148v-532z" />
    <glyph glyph-name="afii10086" unicode="&#x444;" horiz-adv-x="1173" 
d="M576 1048q-218 0 -373 -155.5t-155 -374.5q0 -212 146.5 -364.5t356.5 -163.5v-528h51v627q170 9 287.5 133t117.5 296h97q0 219 -154.5 374.5t-373.5 155.5zM203 442q-7 35 -7 76q0 151 103 261t252 119v-759q-129 8 -225.5 93t-122.5 210zM602 139v759q129 -8 225 -93
t122 -210q8 -34 8 -75q0 -151 -103 -261t-252 -120z" />
    <glyph glyph-name="afii10087" unicode="&#x445;" horiz-adv-x="1192" 
d="M1138 908v0v150q-219 0 -373.5 -154.5t-156.5 -373.5q0 219 -154.5 373.5t-373.5 154.5v0v-150q158 0 269.5 -111t111.5 -269q0 -157 -111.5 -268.5t-269.5 -111.5v0v-148q219 0 373.5 154.5t154.5 373.5q2 -219 156.5 -373.5t373.5 -154.5v0v148q-158 0 -270 111.5
t-112 268.5q0 158 112 269t270 111z" />
    <glyph glyph-name="afii10088" unicode="&#x446;" horiz-adv-x="990" 
d="M107 528v528h51v-528h97q0 -157 111.5 -268.5t268.5 -111.5v0v0v910h148v-910h148v-148h-296q-219 0 -373.5 154.5t-154.5 373.5z" />
    <glyph glyph-name="afii10089" unicode="&#x447;" horiz-adv-x="766" 
d="M621 1056v-378q-149 9 -252 118.5t-103 259.5h-147q0 -212 146 -364.5t356 -161.5v-530h51v1056h-51z" />
    <glyph glyph-name="afii10090" unicode="&#x448;" horiz-adv-x="1226" 
d="M76 528v528h50v-528h97q0 -137 87.5 -242t219.5 -131v901h148v-908h306v908h148v-908h2v-148h-530q-219 0 -373.5 154.5t-154.5 373.5z" />
    <glyph glyph-name="afii10091" unicode="&#x449;" horiz-adv-x="1326" 
d="M61 528v528h51v-528h97q0 -137 87 -242t219 -131v901h148v-908h307v908h147v-908h150v-148h-678q-219 0 -373.5 154.5t-154.5 373.5z" />
    <glyph glyph-name="afii10092" unicode="&#x44a;" horiz-adv-x="772" 
d="M749 0q0 212 -145.5 364.5t-356.5 163.5v528h-157v-148h106v-908h553zM247 380q109 -8 196 -71t130 -161h-326v232z" />
    <glyph glyph-name="afii10093" unicode="&#x44b;" horiz-adv-x="1016" 
d="M672 0q0 212 -146.5 364.5t-356.5 163.5v528h-50v-1056h553zM493 148h-324v232q109 -8 196.5 -71t127.5 -161zM922 1056h-147v-1056h147v1056z" />
    <glyph glyph-name="afii10094" unicode="&#x44c;" horiz-adv-x="666" 
d="M643 0q0 212 -146.5 364.5t-356.5 163.5v528h-50v-1056h553zM466 148h-326v232q109 -8 196.5 -71t129.5 -161z" />
    <glyph glyph-name="afii10095" unicode="&#x44d;" horiz-adv-x="739" 
d="M114 957v148q228 0 389.5 -162.5t161.5 -391.5q0 -227 -161.5 -389t-389.5 -162v148q161 1 276.5 110.5t125.5 267.5h-402v51h402q-10 159 -125.5 269t-276.5 111z" />
    <glyph glyph-name="afii10096" unicode="&#x44e;" horiz-adv-x="1240" 
d="M1170 528q0 213 -147 366t-358 162v2h-50v-454h-355v454h-148v-1056h148v454h355v-456h50q211 11 358 163.5t147 364.5zM665 150v758q150 -9 253.5 -119t103.5 -261t-103.5 -260t-253.5 -118z" />
    <glyph glyph-name="afii10097" unicode="&#x44f;" horiz-adv-x="685" 
d="M431 503h-368v32q0 203 140 353q137 147 338 166v2h50v-1056h-50v377q-140 -18 -235 -125.5t-95 -251.5h-148q0 175 104 315q102 137 264 188zM541 905q-133 -18 -226 -117t-102 -235h328v352z" />
    <glyph glyph-name="afii10071" unicode="&#x451;" horiz-adv-x="1128" 
d="M579 1065q-222 0 -380 -158t-158 -380q0 -223 157 -380t379 -158v144q-156 1 -268.5 108t-122.5 261h787v0h144v25q0 222 -157.5 380t-380.5 158zM606 550h-420q9 156 123 263.5t270 107.5q131 0 234 -77t142 -197h-349v-97zM508 1222h-161v182h161v-182zM793 1222h-161
v182h161v-182z" />
    <glyph glyph-name="afii10101" unicode="&#x454;" horiz-adv-x="673" 
d="M616 957v148q-228 0 -389.5 -162.5t-161.5 -391.5q0 -227 161.5 -389t389.5 -162v148q-160 1 -276 110.5t-126 267.5h402v51h-402q10 159 126 269t276 111z" />
    <glyph glyph-name="afii10103" unicode="&#x456;" horiz-adv-x="395" 
d="M278 1222h-160v182h160v-182zM278 0h-160v1058h160v-1058z" />
    <glyph glyph-name="afii10104" unicode="&#x457;" horiz-adv-x="547" 
d="M348 1060v-1060h-161v1060h161zM205 1222h-160v182h160v-182zM490 1222h-160v182h160v-182z" />
    <glyph glyph-name="afii10050" unicode="&#x490;" horiz-adv-x="775" 
d="M783 1529h-144v-144q-240 -50 -397 -240q-159 -193 -159 -443v0v-702h144v700v0q0 231 162.5 394t393.5 163v9v0v263z" />
    <glyph glyph-name="afii10098" unicode="&#x491;" horiz-adv-x="578" 
d="M539 939v84v0v144h-144v-165q-162 -47 -264 -182q-105 -137 -105 -310h1v-513h143v514v0q0 139 92 243t228 122q18 3 49 3v60v0z" />
    <glyph glyph-name="radicalex" unicode="&#x203e;" horiz-adv-x="2048" 
 />
    <glyph glyph-name="afii61352" unicode="&#x2116;" horiz-adv-x="1647" 
d="M1620 660q0 -141 -99 -240t-240 -99q-140 0 -239.5 99t-99.5 240q0 140 99.5 239t239.5 99q141 0 240 -99t99 -239zM1526 660q0 101 -71.5 173t-173.5 72q-101 0 -172 -72t-71 -173q0 -102 71 -173t172 -71q102 0 173.5 71t71.5 173zM1620 126v96h-678v-96h678zM773 1404
v-445q-77 196 -250 318q-178 124 -395 127v0h-33v-1404h49v1258q224 -10 378.5 -171t154.5 -386v0v-701h145v1404h-49z" />
    <glyph glyph-name="Euro" unicode="&#x20ac;" horiz-adv-x="925" 
d="M901 1278v0v144h-0.5h-0.5q-291 0 -500.5 -203t-219.5 -493h-127v-50h127q1 -26 3 -47h-130v-50h137q44 -256 244.5 -427.5t465.5 -171.5h1v144v0q-206 0 -364 129.5t-200 325.5h564v50h-573q-3 25 -4 47h577v50h-577q10 231 177.5 391.5t399.5 160.5z" />
  </font>
</defs>
</svg>
